SplineFontDB: 3.2
FontName: WebService-Solid
FullName: web-service-solid
FamilyName: Web Service Solid
Weight: Black
Copyright: 
Version: 
ItalicAngle: 0
UnderlinePosition: -51
UnderlineWidth: 25
Ascent: 448
Descent: 64
InvalidEm: 0
LayerCount: 2
Layer: 0 0 "+BBcEMAQ0BD0EOAQ5 +BD8EOwQwBD0A" 1
Layer: 1 0 "+BB8ENQRABDUENAQ9BDgEOQAA +BD8EOwQwBD0A" 0
XUID: [1021 552 812165604 14802]
OS2Version: 0
OS2_WeightWidthSlopeOnly: 0
OS2_UseTypoMetrics: 0
CreationTime: 1557236032
ModificationTime: 1597750163
PfmFamily: 17
TTFWeight: 900
TTFWidth: 5
LineGap: 46
VLineGap: 46
Panose: 2 0 5 3 0 0 0 0 0 0
OS2TypoAscent: 0
OS2TypoAOffset: 1
OS2TypoDescent: 0
OS2TypoDOffset: 1
OS2TypoLinegap: 46
OS2WinAscent: 0
OS2WinAOffset: 1
OS2WinDescent: 0
OS2WinDOffset: 1
HheadAscent: 0
HheadAOffset: 1
HheadDescent: 0
HheadDOffset: 1
OS2Vendor: 'PfEd'
MarkAttachClasses: 1
DEI: 91125
Encoding: Custom
UnicodeInterp: none
NameList: AGL For New Fonts
DisplaySize: -48
AntiAlias: 1
FitToEm: 0
WinInfo: 0 39 14
BeginPrivate: 0
EndPrivate
BeginChars: 1597 931

StartChar: equip
Encoding: 1 61440 0
Width: 512
HStem: -64 120<64.7225 149.278 180.773 265.446 296.722 381.278> -24 80<17.9116 64 150 180 266 296 382 430.528> 88 68<64.7225 383.278> 302 51<98 284> 386 62<64.7225 383.278>
VStem: 0 64<156.722 385.278> 180 86<-63.2651 -24> 384 64<156.722 385.278>
LayerCount: 2
Fore
SplineSet
98 353 m 1x3f
 284 353 l 1
 284 302 l 1
 98 302 l 1
 98 353 l 1x3f
448 400 m 2
 448 88 l 1
 0 88 l 1
 0 400 l 2
 0 426.5 21.5 448 48 448 c 2
 400 448 l 2
 426.5 448 448 426.5 448 400 c 2
384 172 m 2
 384 370 l 2
 384 378.799804688 376.799804688 386 368 386 c 2
 80 386 l 2
 71.2001953125 386 64 378.799804688 64 370 c 2
 64 172 l 2
 64 163.200195312 71.2001953125 156 80 156 c 2
 368 156 l 2
 376.799804688 156 384 163.200195312 384 172 c 2
48 -24 m 2x7f
 22.5595703125 -24 0 -3.5 0 23 c 2
 0 56 l 1
 448 56 l 1
 448 23 l 2
 448 -3.5 426.5 -24 400 -24 c 2
 382 -24 l 1x7f
 382 -48 l 2
 382 -56.7998046875 374.799804688 -64 366 -64 c 2
 312 -64 l 2xbf
 303.200195312 -64 296 -56.7998046875 296 -48 c 2
 296 -24 l 1
 266 -24 l 1x7f
 266 -48.3837890625 l 2
 266.0234375 -57.232421875 259.528320312 -64.1640625 248.813476562 -64 c 2
 196 -64 l 2xbf
 187.203125 -64.1796875 180.134765625 -57.408203125 180 -47.6162109375 c 2
 180 -24 l 1
 150 -24 l 1x7f
 150 -48 l 2
 150 -56.7998046875 142.799804688 -64 134 -64 c 2
 80 -64 l 2xbf
 71.2001953125 -64 64 -56.7998046875 64 -48 c 2
 64 -24 l 1
 48 -24 l 2x7f
EndSplineSet
Validated: 545
EndChar

StartChar: music
Encoding: 2 61441 1
Width: 512
LayerCount: 2
Fore
SplineSet
511.99 415.99 m 1
 511.99976562 64 l 2
 511.99976562 28.6504 469.01926562 0 415.99976562 0 c 0
 362.98026562 0 319.99976562 28.6504 319.99976562 64 c 0
 319.99976562 99.3496 362.98026562 128 415.99976562 128 c 0
 427.28006562 128 437.94996562 126.45996 447.99976562 124.08008 c 1
 447.99976562 308.71008 l 1
 191.99976562 233.69058 l 1
 191.99976562 0.000580000000014 l 2
 191.99976562 -35.34902 149.01926562 -63.99942 95.99976562 -63.99942 c 0
 42.98026562 -63.99942 -0.000234379999995 -35.34902 -0.000234379999995 0.000580000000014 c 0
 -0.000234379999995 35.35018 42.98026562 64.00058 95.99976562 64.00058 c 0
 107.28006562 64.00058 117.94996562 62.46054 127.99976562 60.08066 c 1
 127.99976562 321.50066 l 2
 127.99976562 335.50066 137.09937562 347.80046 150.40016562 352.00066 c 2
 470.38916562 446.50066 l 2
 490.88916562 453.00066 511.98976562 437.70086 511.98976562 415.99086 c 1
 511.99 415.99 l 1
EndSplineSet
Validated: 33
EndChar

StartChar: search
Encoding: 3 61442 2
Width: 512
LayerCount: 2
Fore
SplineSet
505 5.2998 m 2
 514.2998 -4.09961 514.2998 -19.2998 504.9003906 -28.7002 c 2
 476.5995906 -57 l 2
 467.2997906 -66.40039 452.0995906 -66.40039 442.7001906 -57 c 2
 342.9999906 42.7002 l 2
 338.4999906 47.2002 335.9999906 53.2998 335.9999906 59.7002 c 2
 335.9999906 76 l 1
 300.7001906 48.4004 256.2997906 32 207.9999906 32 c 0
 93.0999906 32 -9.40000001037e-06 125.0996 -9.40000001037e-06 240 c 0
 -9.40000001037e-06 354.9004 93.0995906 448 207.9999906 448 c 0
 322.9003906 448 415.9999906 354.9004 415.9999906 240 c 0
 415.9999906 191.7002 399.5995906 147.2998 371.9999906 112 c 1
 388.2997906 112 l 2
 394.7001806 112 400.7997906 109.5 405.2997906 105 c 2
 505 5.2998 l 2
208 112 m 0
 278.7998 112 336 169.2998 336 240 c 0
 336 310.7998 278.7002 368 208 368 c 0
 137.2002 368 80 310.7002 80 240 c 0
 80 169.2002 137.2998 112 208 112 c 0
EndSplineSet
Validated: 33
EndChar

StartChar: star
Encoding: 5 61445 3
Width: 576
Flags: W
LayerCount: 2
Fore
SplineSet
259.3 430.2 m 2
 271.0998 454.0994 305.0002 453.7996 316.7004 430.2 c 2
 382.0002 297.8 l 1
 528.1002 276.5002 l 2
 554.3004 272.7004 564.8004 240.4006 545.8004 221.9006 c 2
 440.1004 118.9006 l 1
 465.1004 -26.5994 l 2
 469.6004 -52.9002 441.9012 -72.4998 418.701 -60.2996 c 2
 288.001 8.4006 l 1
 157.301 -60.2996 l 2
 134.1008 -72.5994 106.4016 -52.90019 110.9016 -26.5994 c 2
 135.9016 118.9006 l 1
 30.2016 221.9006 l 2
 11.2016 240.4006 21.7016 272.7004 47.9018 276.5002 c 2
 194.0018 297.8 l 1
 259.3 430.2 l 2
EndSplineSet
Validated: 33
EndChar

StartChar: user
Encoding: 6 61447 4
Width: 448
Flags: W
LayerCount: 2
Fore
SplineSet
224 192 m 0
 153.2998 192 96 249.2998 96 320 c 0
 96 390.7002 153.2998 448 224 448 c 0
 294.7002 448 352 390.7002 352 320 c 0
 352 249.2998 294.7002 192 224 192 c 0
313.6 160 m 2
 387.8002 160 448 99.7998 448 25.6 c 2
 448 -15.9996 l 2
 448 -42.4996 426.5 -63.9996 400 -63.9996 c 2
 48 -63.9996 l 2
 21.5 -63.9996 0 -42.4996 0 -15.9996 c 2
 0 25.6 l 2
 0 99.8002 60.2002 160 134.4 160 c 2
 151.0992 160 l 1
 173.4 149.7998 197.9996 144 223.9996 144 c 0
 249.9996 144 274.6998 149.7998 296.9 160 c 1
 313.5992 160 l 1
 313.6 160 l 2
EndSplineSet
Validated: 1
EndChar

StartChar: film
Encoding: 7 61448 5
Width: 512
LayerCount: 2
Fore
SplineSet
488 384 m 2
 501.2998 384 512 373.2998 512 360 c 2
 512 24 l 2
 512 10.7002 501.2998 0 488 0 c 2
 480 0 l 1
 480 20 l 2
 480 26.59961 474.59961 32 468 32 c 2
 428 32 l 2
 421.40039 32 416 26.59961 416 20 c 2
 416 0 l 1
 96 0 l 1
 96 20 l 2
 96 26.59961 90.59961 32 84 32 c 2
 44 32 l 2
 37.40039 32 32 26.59961 32 20 c 2
 32 0 l 1
 24 0 l 2
 10.7002 0 0 10.7002 0 24 c 2
 0 360 l 2
 0 373.2998 10.7002 384 24 384 c 2
 32 384 l 1
 32 364 l 2
 32 357.40039 37.40039 352 44 352 c 2
 84 352 l 2
 90.59961 352 96 357.40039 96 364 c 2
 96 384 l 1
 416 384 l 1
 416 364 l 2
 416 357.40039 421.40039 352 428 352 c 2
 468 352 l 2
 474.59961 352 480 357.40039 480 364 c 2
 480 384 l 1
 488 384 l 2
96 76 m 2
 96 116 l 2
 96 122.59961 90.59961 128 84 128 c 2
 44 128 l 2
 37.40039 128 32 122.59961 32 116 c 2
 32 76 l 2
 32 69.40039 37.40039 64 44 64 c 2
 84 64 l 2
 90.59961 64 96 69.40039 96 76 c 2
96 172 m 2
 96 212 l 2
 96 218.59961 90.59961 224 84 224 c 2
 44 224 l 2
 37.40039 224 32 218.59961 32 212 c 2
 32 172 l 2
 32 165.40039 37.40039 160 44 160 c 2
 84 160 l 2
 90.59961 160 96 165.40039 96 172 c 2
96 268 m 2
 96 308 l 2
 96 314.59961 90.59961 320 84 320 c 2
 44 320 l 2
 37.40039 320 32 314.59961 32 308 c 2
 32 268 l 2
 32 261.40039 37.40039 256 44 256 c 2
 84 256 l 2
 90.59961 256 96 261.40039 96 268 c 2
368 60 m 2
 368 156 l 2
 368 162.59961 362.59961 168 356 168 c 2
 156 168 l 2
 149.40039 168 144 162.59961 144 156 c 2
 144 60 l 2
 144 53.40039 149.40039 48 156 48 c 2
 356 48 l 2
 362.59961 48 368 53.40039 368 60 c 2
368 228 m 2
 368 324 l 2
 368 330.59961 362.59961 336 356 336 c 2
 156 336 l 2
 149.40039 336 144 330.59961 144 324 c 2
 144 228 l 2
 144 221.40039 149.40039 216 156 216 c 2
 356 216 l 2
 362.59961 216 368 221.40039 368 228 c 2
480 76 m 2
 480 116 l 2
 480 122.59961 474.59961 128 468 128 c 2
 428 128 l 2
 421.40039 128 416 122.59961 416 116 c 2
 416 76 l 2
 416 69.40039 421.40039 64 428 64 c 2
 468 64 l 2
 474.59961 64 480 69.40039 480 76 c 2
480 172 m 2
 480 212 l 2
 480 218.59961 474.59961 224 468 224 c 2
 428 224 l 2
 421.40039 224 416 218.59961 416 212 c 2
 416 172 l 2
 416 165.40039 421.40039 160 428 160 c 2
 468 160 l 2
 474.59961 160 480 165.40039 480 172 c 2
480 268 m 2
 480 308 l 2
 480 314.59961 474.59961 320 468 320 c 2
 428 320 l 2
 421.40039 320 416 314.59961 416 308 c 2
 416 268 l 2
 416 261.40039 421.40039 256 428 256 c 2
 468 256 l 2
 474.59961 256 480 261.40039 480 268 c 2
EndSplineSet
Validated: 1
EndChar

StartChar: th-large
Encoding: 8 61449 6
Width: 512
LayerCount: 2
Fore
SplineSet
296 416 m 2
 488 416 l 2
 501.2549 416 512 405.2549 512 392 c 2
 512 232 l 2
 512 218.7451 501.2549 208 488 208 c 2
 296 208 l 2
 282.7451 208 272 218.7451 272 232 c 2
 272 392 l 2
 272 405.2549 282.7451 416 296 416 c 2
216 416 m 2
 229.2549 416 240 405.2549 240 392 c 2
 240 232 l 2
 240 218.7451 229.2549 208 216 208 c 2
 24 208 l 2
 10.7451 208 0 218.7451 0 232 c 2
 0 392 l 2
 0 405.2549 10.7451 416 24 416 c 2
 216 416 l 2
0 152 m 2
 0 165.2549 10.7451 176 24 176 c 2
 216 176 l 2
 229.2549 176 240 165.2549 240 152 c 2
 240 -8 l 2
 240 -21.2549 229.2549 -32 216 -32 c 2
 24 -32 l 2
 10.7451 -32 0 -21.2549 0 -8 c 2
 0 152 l 2
296 -32 m 2
 282.7451 -32 272 -21.2549 272 -8 c 2
 272 152 l 2
 272 165.2549 282.7451 176 296 176 c 2
 488 176 l 2
 501.2549 176 512 165.2549 512 152 c 2
 512 -8 l 2
 512 -21.2549 501.2549 -32 488 -32 c 2
 296 -32 l 2
EndSplineSet
Validated: 513
EndChar

StartChar: th
Encoding: 9 61450 7
Width: 512
LayerCount: 2
Fore
SplineSet
149.333 392 m 2
 149.333 312 l 2
 149.333 298.7451 138.5879 288 125.333 288 c 2
 24 288 l 2
 10.7451 288 0 298.7451 0 312 c 2
 0 392 l 2
 0 405.2549 10.7451 416 24 416 c 2
 125.333 416 l 2
 138.5879 416 149.333 405.2549 149.333 392 c 2
330.667 152 m 1
 330.667 138.7451 319.9219 128 306.666 128 c 2
 205.333 128 l 2
 192.0781 128 181.333 138.7451 181.333 152 c 2
 181.333 232 l 2
 181.333 245.2549 192.0781 256 205.333 256 c 2
 306.667 256 l 2
 319.9219 256 330.667 245.2549 330.667 232 c 2
 330.667 152 l 1
362.667 392 m 1
 362.667 405.2549 373.4121 416 386.667 416 c 2
 488 416 l 2
 501.2549 416 512 405.2549 512 392 c 2
 512 312 l 2
 512 298.7451 501.2549 288 488 288 c 2
 386.667 288 l 2
 373.4121 288 362.667 298.7451 362.667 312 c 2
 362.667 392 l 1
330.667 312 m 1
 330.667 298.7451 319.9219 288 306.666 288 c 2
 205.333 288 l 2
 192.0781 288 181.333 298.7451 181.333 312 c 2
 181.333 392 l 2
 181.333 405.2549 192.0781 416 205.333 416 c 2
 306.667 416 l 2
 319.9219 416 330.667 405.2549 330.667 392 c 2
 330.667 312 l 1
125.333 256 m 2
 138.5879 256 149.333 245.2549 149.333 232 c 2
 149.333 152 l 2
 149.333 138.7451 138.5879 128 125.333 128 c 2
 24 128 l 2
 10.7451 128 0 138.7451 0 152 c 2
 0 232 l 2
 0 245.2549 10.7451 256 24 256 c 2
 125.333 256 l 2
0 72 m 2
 0 85.2549 10.7451 96 24 96 c 2
 125.333 96 l 2
 138.5879 96 149.333 85.2549 149.333 72 c 2
 149.333 -8 l 2
 149.333 -21.2549 138.5879 -32 125.333 -32 c 2
 24 -32 l 2
 10.7451 -32 0 -21.2549 0 -8 c 2
 0 72 l 2
386.667 128 m 0
 373.4121 128 362.667 138.7451 362.667 152 c 2
 362.667 232 l 2
 362.667 245.2549 373.4121 256 386.667 256 c 2
 488 256 l 2
 501.2549 256 512 245.2549 512 232 c 2
 512 152 l 2
 512 138.7451 501.2549 128 488 128 c 2
 386.667 128 l 0
386.667 -32 m 0
 373.4121 -32 362.667 -21.2549 362.667 -8 c 2
 362.667 72 l 2
 362.667 85.2549 373.4121 96 386.667 96 c 2
 488 96 l 2
 501.2549 96 512 85.2549 512 72 c 2
 512 -8 l 2
 512 -21.2549 501.2549 -32 488 -32 c 2
 386.667 -32 l 0
181.333 72 m 2
 181.333 85.2549 192.0781 96 205.333 96 c 2
 306.666 96 l 2
 319.9209 96 330.666 85.2549 330.666 72 c 2
 330.666 -8 l 2
 330.666 -21.2549 319.9209 -32 306.666 -32 c 2
 205.333 -32 l 2
 192.0781 -32 181.333 -21.2549 181.333 -8 c 2
 181.333 72 l 2
EndSplineSet
Validated: 1
EndChar

StartChar: th-list
Encoding: 10 61451 8
Width: 512
LayerCount: 2
Fore
SplineSet
149.333 232 m 2
 149.333 152 l 2
 149.333 138.7451 138.5879 128 125.333 128 c 2
 24 128 l 2
 10.7451 128 0 138.7451 0 152 c 2
 0 232 l 2
 0 245.2549 10.7451 256 24 256 c 2
 125.333 256 l 2
 138.5879 256 149.333 245.2549 149.333 232 c 2
0 72 m 2
 0 85.2549 10.7451 96 24 96 c 2
 125.333 96 l 2
 138.5879 96 149.333 85.2549 149.333 72 c 2
 149.333 -8 l 2
 149.333 -21.2549 138.5879 -32 125.333 -32 c 2
 24 -32 l 2
 10.7451 -32 0 -21.2549 0 -8 c 2
 0 72 l 2
125.333 416 m 2
 138.5879 416 149.333 405.2549 149.333 392 c 2
 149.333 312 l 2
 149.333 298.7451 138.5879 288 125.333 288 c 2
 24 288 l 2
 10.7451 288 0 298.7451 0 312 c 2
 0 392 l 2
 0 405.2549 10.7451 416 24 416 c 2
 125.333 416 l 2
205.333 -32 m 0
 192.0781 -32 181.333 -21.2549 181.333 -8 c 2
 181.333 72 l 2
 181.333 85.2549 192.0781 96 205.333 96 c 2
 488 96 l 2
 501.2549 96 512 85.2549 512 72 c 2
 512 -8 l 2
 512 -21.2549 501.2549 -32 488 -32 c 2
 205.333 -32 l 0
181.333 392 m 1
 181.333 405.2549 192.0781 416 205.333 416 c 2
 488 416 l 2
 501.2549 416 512 405.2549 512 392 c 2
 512 312 l 2
 512 298.7451 501.2549 288 488 288 c 2
 205.333 288 l 2
 192.0781 288 181.333 298.7451 181.333 312 c 2
 181.333 392 l 1
205.333 128 m 0
 192.0781 128 181.333 138.7451 181.333 152 c 2
 181.333 232 l 2
 181.333 245.2549 192.0781 256 205.333 256 c 2
 488 256 l 2
 501.2549 256 512 245.2549 512 232 c 2
 512 152 l 2
 512 138.7451 501.2549 128 488 128 c 2
 205.333 128 l 0
EndSplineSet
Validated: 513
EndChar

StartChar: check
Encoding: 11 61452 9
Width: 512
LayerCount: 2
Fore
SplineSet
173.898 8.5957 m 1
 7.498 174.9957 l 2
 -2.49907 184.99277 -2.49907 201.2018 7.498 211.1998 c 2
 43.7011 247.4039 l 2
 53.69817 257.40195 69.9081 257.40195 79.9052 247.4039 c 2
 192.0002 135.3089 l 1
 432.0952 375.4039 l 2
 442.09227 385.40097 458.3022 385.40097 468.2993 375.4039 c 2
 504.5024 339.1998 l 2
 514.49947 329.20273 514.49947 312.9937 504.5024 302.9957 c 2
 210.1024 8.5947 l 2
 200.10435 -1.40237 183.8954 -1.40237 173.8993 8.595676562 c 1
 173.898 8.5957 l 1
EndSplineSet
Validated: 33
EndChar

StartChar: times
Encoding: 12 61453 10
Width: 352
Flags: W
LayerCount: 2
Fore
SplineSet
242.72 192 m 1
 342.79 91.93 l 2
 355.0703 79.64 355.0703 59.7308 342.79 47.4505 c 2
 320.5498 25.2103 l 2
 308.2695 12.93 288.3496 12.93 276.0703 25.2103 c 2
 176.0003 125.2803 l 1
 75.9303 25.2103 l 2
 63.651 12.93 43.7311 12.93 31.4508 25.2103 c 2
 9.2106 47.4505 l 2
 -3.0697 59.7405 -3.0697 79.6507 9.2106 91.93 c 2
 109.2806 192 l 1
 9.2106 292.07 l 2
 -3.0697 304.36 -3.0697 324.2692 9.2106 336.5495 c 2
 31.4508 358.7897 l 2
 43.7408 371.07 63.651 371.07 75.9303 358.7897 c 2
 176.0003 258.7197 l 1
 276.0703 358.7897 l 2
 288.3603 371.07 308.2695 371.07 320.5498 358.7897 c 2
 342.79 336.5495 l 2
 355.0703 324.2595 355.0703 304.3493 342.79 292.07 c 2
 242.72 192 l 1
EndSplineSet
Validated: 33
EndChar

StartChar: search-plus
Encoding: 13 61454 11
Width: 512
LayerCount: 2
Fore
SplineSet
304 256 m 2
 304 224 l 2
 304 217.40039 298.59961 212 292 212 c 2
 236 212 l 1
 236 156 l 2
 236 149.40039 230.59961 144 224 144 c 2
 192 144 l 2
 185.40039 144 180 149.40039 180 156 c 2
 180 212 l 1
 124 212 l 2
 117.40039 212 112 217.40039 112 224 c 2
 112 256 l 2
 112 262.59961 117.40039 268 124 268 c 2
 180 268 l 1
 180 324 l 2
 180 330.59961 185.40039 336 192 336 c 2
 224 336 l 2
 230.59961 336 236 330.59961 236 324 c 2
 236 268 l 1
 292 268 l 2
 298.59961 268 304 262.59961 304 256 c 2
505 -28.7002 m 2
 476.7002 -57 l 2
 467.29981 -66.40039 452.0996 -66.40039 442.7998 -57 c 2
 343 42.7002 l 2
 338.5 47.2002 336 53.2998 336 59.7002 c 2
 336 76 l 1
 300.7002 48.4004 256.2998 32 208 32 c 0
 93.1 32 0 125.0996 0 240 c 0
 0 354.9004 93.0996 448 208 448 c 0
 322.9004 448 416 354.9004 416 240 c 0
 416 191.7002 399.5996 147.2998 372 112 c 1
 388.2998 112 l 2
 394.70019 112 400.7998 109.5 405.2998 105 c 2
 505 5.2998 l 2
 514.2998 -4.09961 514.2998 -19.2998 505 -28.7002 c 2
344 240 m 0
 344 315.2002 283.2002 376 208 376 c 0
 132.7998 376 72 315.2002 72 240 c 0
 72 164.7998 132.7998 104 208 104 c 0
 283.2002 104 344 164.7998 344 240 c 0
EndSplineSet
Validated: 545
EndChar

StartChar: search-minus
Encoding: 14 61456 12
Width: 512
LayerCount: 2
Fore
SplineSet
304 256 m 2
 304 224 l 2
 304 217.40039 298.59961 212 292 212 c 2
 124 212 l 2
 117.40039 212 112 217.40039 112 224 c 2
 112 256 l 2
 112 262.59961 117.40039 268 124 268 c 2
 292 268 l 2
 298.59961 268 304 262.59961 304 256 c 2
505 -28.7002 m 2
 476.7002 -57 l 2
 467.29981 -66.40039 452.0996 -66.40039 442.7998 -57 c 2
 343 42.7002 l 2
 338.5 47.2002 336 53.2998 336 59.7002 c 2
 336 76 l 1
 300.7002 48.4004 256.2998 32 208 32 c 0
 93.1 32 0 125.0996 0 240 c 0
 0 354.9004 93.0996 448 208 448 c 0
 322.9004 448 416 354.9004 416 240 c 0
 416 191.7002 399.5996 147.2998 372 112 c 1
 388.2998 112 l 2
 394.70019 112 400.7998 109.5 405.2998 105 c 2
 505 5.2998 l 2
 514.2998 -4.09961 514.2998 -19.2998 505 -28.7002 c 2
344 240 m 0
 344 315.2002 283.2002 376 208 376 c 0
 132.7998 376 72 315.2002 72 240 c 0
 72 164.7998 132.7998 104 208 104 c 0
 283.2002 104 344 164.7998 344 240 c 0
EndSplineSet
Validated: 545
EndChar

StartChar: power-off
Encoding: 15 61457 13
Width: 512
LayerCount: 2
Fore
SplineSet
400 393.9 m 1
 463 348.9 504 275.299 504 192 c 0
 504 55.2 393.2 -55.7 256.5 -56 c 0
 120 -56.299805 8.2 55 8 191.6 c 0
 7.9003906 274.9008 48.9004 348.701 111.8 393.8 c 0
 123.5002 402.0998 139.8 398.5998 146.8 386.0998 c 2
 162.5998 358.0002 l 2
 168.50019 347.5002 165.70039 334.2004 156.00019 327.0002 c 0
 114.50019 296.2004 88.00019 247.4006 88.00019 192.1002 c 0
 87.9005806 99.8004 162.50019 24.0002 256.00019 24.0002 c 0
 347.59979 24.0002 424.60019 98.2004 424.00019 193.1002 c 0
 423.700385 244.901 399.29999 294.9012 355.90059 327.1002 c 0
 346.20039 334.3004 343.50019 347.6002 349.40059 358.0006 c 2
 365.20039 386.1002 l 2
 372.20039 398.5006 388.40059 402.2008 400.00019 393.90098 c 1
 400 393.9 l 1
296 184 m 2
 296 170.7002 285.2998 160 272 160 c 2
 240 160 l 2
 226.7002 160 216 170.7002 216 184 c 2
 216 424 l 2
 216 437.2998 226.7002 448 240 448 c 2
 272 448 l 2
 285.2998 448 296 437.2998 296 424 c 2
 296 184 l 2
EndSplineSet
Validated: 545
EndChar

StartChar: signal
Encoding: 16 61458 14
Width: 640
Flags: W
LayerCount: 2
Fore
SplineSet
216 160 m 2
 224.83984 160 232 152.83984 232 144 c 2
 232 -48 l 2
 232 -56.83984 224.83984 -64 216 -64 c 2
 168 -64 l 2
 159.16016 -64 152 -56.83984 152 -48 c 2
 152 144 l 2
 152 152.83984 159.16016 160 168 160 c 2
 216 160 l 2
88 64 m 2
 96.83984 64 104 56.83984 104 48 c 2
 104 -48 l 2
 104 -56.83984 96.83984 -64 88 -64 c 2
 40 -64 l 2
 31.16016 -64 24 -56.83984 24 -48 c 2
 24 48 l 2
 24 56.83984 31.16016 64 40 64 c 2
 88 64 l 2
344 256 m 2
 352.83984 256 360 248.83984 360 240 c 2
 360 -48 l 2
 360 -56.83984 352.83984 -64 344 -64 c 2
 296 -64 l 2
 287.16016 -64 280 -56.83984 280 -48 c 2
 280 240 l 2
 280 248.83984 287.16016 256 296 256 c 2
 344 256 l 2
472 352 m 2
 480.83984 352 488 344.83984 488 336 c 2
 488 -48 l 2
 488 -56.83984 480.83984 -64 472 -64 c 2
 424 -64 l 2
 415.16016 -64 408 -56.83984 408 -48 c 2
 408 336 l 2
 408 344.83984 415.16016 352 424 352 c 2
 472 352 l 2
600 448 m 2
 608.83984 448 616 440.83984 616 432 c 2
 616 -48 l 2
 616 -56.83984 608.83984 -64 600 -64 c 2
 552 -64 l 2
 543.16016 -64 536 -56.83984 536 -48 c 2
 536 432 l 2
 536 440.83984 543.16016 448 552 448 c 2
 600 448 l 2
EndSplineSet
Validated: 1
EndChar

StartChar: cog
Encoding: 17 61459 15
Width: 512
LayerCount: 2
Fore
SplineSet
487.4 132.3 m 2
 492.29941 129.5002 494.49961 123.70039 492.99961 118.2004 c 0
 481.90001 82.5002 462.99961 50.3 438.29941 23.5998 c 0
 434.49961 19.40058 428.4 18.50019 423.49961 21.3 c 2
 380.90001 45.9006 l 1
 362.90001 30.5998 342.29941 18.7004 320.09921 10.8 c 1
 320.09921 -38.4002 l 2
 320.09921 -43.99981 316.1998 -48.9002 310.6998 -50.0994 c 0
 275.7994 -57.90018 238.1998 -58.2996 201.4998 -50.0994 c 0
 195.9998 -48.90018 192.09941 -43.99979 192.09941 -38.4002 c 2
 192.09941 10.8 l 1
 169.79961 18.5998 149.20001 30.5002 131.29961 45.9006 c 1
 88.70001 21.3 l 2
 83.90021 18.5002 77.70001 19.5002 73.90021 23.5998 c 0
 49.20001 50.4006 30.29961 82.5998 19.20001 118.2004 c 0
 17.59942 123.59981 19.799619 129.4006 24.70001 132.2004 c 2
 67.29961 156.8 l 1
 62.99981 180.0002 62.99981 203.8 67.29961 227.0002 c 1
 24.70001 251.5998 l 2
 19.79962 254.40058 17.49981 260.20039 19.20001 265.5998 c 0
 30.29961 301.3 49.20001 333.5002 73.90021 360.2004 c 0
 77.70001 364.4006 83.79962 365.30001 88.70001 362.5002 c 2
 131.20001 337.9006 l 1
 149.20001 353.2004 169.79961 365.0998 191.99981 373.0002 c 1
 191.99981 422.2004 l 2
 191.99981 427.80001 195.9002 432.7004 201.4002 433.9006 c 0
 236.2996 441.7004 273.9002 442.09982 310.5992 433.9006 c 0
 316.0992 432.7004 319.99959 427.80001 319.99959 422.2004 c 2
 319.99959 373.0998 l 1
 342.29939 365.3 362.89999 353.4006 380.79939 338.0002 c 1
 423.39999 362.5998 l 2
 428.19979 365.40058 434.39999 364.40058 438.19979 360.3 c 0
 462.89999 333.5002 481.79939 301.3 492.89999 265.7004 c 0
 494.4996 260.30001 492.299404 254.5002 487.39999 251.7004 c 2
 444.79939 227.0998 l 1
 449.09919 203.9006 449.09919 180.0998 444.79939 156.9006 c 1
 487.4 132.3 l 2
256 112 m 0
 300.0996 112 336 147.9004 336 192 c 0
 336 236.0996 300.0996 272 256 272 c 0
 211.9004 272 176 236.0996 176 192 c 0
 176 147.9004 211.9004 112 256 112 c 0
EndSplineSet
Validated: 33
EndChar

StartChar: home
Encoding: 18 61461 16
Width: 576
Flags: W
LayerCount: 2
Fore
SplineSet
280.37 299.74 m 2
 282.21863 301.23023 285.64539 302.43922 288.01941 302.43922 c 0
 290.39441 302.43922 293.82117 301.23024 295.6698 299.74 c 2
 479.9998 148 l 1
 479.9998 -16 l 2
 479.9998 -24.83203 472.83183 -32 463.9998 -32 c 2
 351.9798 -31.69043 l 1
 351.978823438 -31.69043 l 2
 343.146793438 -31.69043 335.978823438 -24.52246 335.978823438 -15.69043 c 0
 335.978823438 -15.6757816 335.978823438 -15.6533206 335.9798 -15.6396488 c 2
 335.9798 79.9999512 l 2
 335.9798 88.8319812 328.81085 95.9999512 319.9798 95.9999512 c 2
 255.9798 95.9999512 l 2
 247.14777 95.9999512 239.9798 88.8319812 239.9798 79.9999512 c 2
 239.9798 -15.7100488 l 1
 239.9798 -15.7100488 l 1
 239.9798 -24.4981388 232.84699 -31.6661488 224.0589 -31.7100488 c 2
 111.9989 -32.0000878 l 2
 103.16687 -32.0000878 95.9989 -24.8321178 95.9989 -16.0000878 c 2
 95.9989 147.8899122 l 1
 280.37 299.74 l 2
571.6 196.53 m 2
 574.04531 194.54172 576.02969 190.37082 576.02969 187.21945 c 0
 576.02969 184.8464 574.80703 181.43332 573.3002 179.59933 c 2
 547.8002 148.59933 l 2
 545.81387 146.19601 541.66934 144.24484 538.55118 144.24484 c 0
 536.16544 144.24484 532.7377 145.47922 530.90079 146.99972 c 2
 295.67079 340.73972 l 2
 293.82216 342.22995 290.3954 343.43894 288.0204 343.43894 c 0
 285.64638 343.43894 282.21962 342.22996 280.37099 340.73972 c 2
 45.15099 146.99972 l 2
 43.31408 145.48312 39.89025 144.25167 37.50841 144.25167 c 0
 34.38048 144.25167 30.22814 146.21358 28.24083 148.6296 c 2
 2.74083 179.6296 l 2
 1.22032 181.46749 -0.01405 184.89522 -0.01405 187.27999 c 0
 -0.01405 190.39913 1.93712 194.54269 4.34044 196.52999 c 2
 257.47044 404.99999 l 2
 264.80638 411.03612 278.47044 415.93549 287.97044 415.93549 c 0
 297.47142 415.93549 311.13454 411.03608 318.47044 404.99999 c 2
 408.00074 331.33979 l 1
 408.00074 403.95019 l 2
 408.00074 410.57421 413.37672 415.95019 420.00074 415.95019 c 2
 476.00074 415.95019 l 2
 482.62476 415.95019 488.00074 410.57421 488.00074 403.95019 c 2
 488.00074 265.44019 l 1
 571.6 196.53 l 2
EndSplineSet
Validated: 5
EndChar

StartChar: clock
Encoding: 19 61463 17
Width: 512
LayerCount: 2
Fore
SplineSet
256 440 m 0
 393 440 504 329 504 192 c 0
 504 55 393 -56 256 -56 c 0
 119 -56 8 55 8 192 c 0
 8 329 119 440 256 440 c 0
313.1 89.9004 m 2
 318.50039 86.00001 326.0004 87.2002 329.9008 92.50001 c 2
 358.1 131.29981 l 2
 362.00039 136.7002 360.90078 144.20021 355.50039 148.09961 c 2
 292.00039 194.29981 l 1
 292.00039 331.99981 l 2
 292.00039 338.59942 286.6 343.99981 280.00039 343.99981 c 2
 232.00039 343.99981 l 2
 225.40078 343.99981 220.00039 338.59942 220.00039 331.99981 c 2
 220.00039 163.69981 l 2
 220.00039 159.90001 221.80019 156.29942 224.90078 153.99961 c 2
 313.1 89.9004 l 2
EndSplineSet
Validated: 33
EndChar

StartChar: road
Encoding: 20 61464 18
Width: 576
Flags: W
LayerCount: 2
Fore
SplineSet
573.19 45.3301 m 2
 582.44977 24.1397 567.69 0 545.4595 0 c 2
 348.6195 0 l 1
 338.309 97.6797 l 2
 337.449625 105.82032 330.58927 112 322.3998 112 c 2
 253.599 112 l 2
 245.40955 112 238.5492 105.82031 237.6898 97.6797 c 2
 227.3793 0 l 1
 30.5393 0 l 2
 8.3088 0 -6.4509 24.1396 2.7991 45.3301 c 2
 142.5891 365.3301 l 2
 147.55883 376.71 158.3889 384 170.3196 384 c 2
 267.9094 384 l 1
 265.4592 360.8398 l 2
 264.9592 356.12007 268.66916 351.99996 273.41916 351.99996 c 2
 302.57936 351.99996 l 2
 307.32936 351.99996 311.03932 356.12008 310.53932 360.8398 c 2
 308.08912 384 l 1
 405.67892 384 l 2
 417.59882 384 428.42892 376.70996 433.39962 365.3301 c 2
 573.19 45.3301 l 2
260.4 312.84 m 2
 255.80918 269.2599 l 2
 255.05918 262.17006 260.60996 256.0001 267.73988 256.0001 c 2
 308.27988 256.0001 l 2
 315.4 256.0001 320.95958 262.17002 320.20958 269.2599 c 2
 315.60997 312.84 l 2
 315.179306 316.91031 311.73985 320.00016 307.65001 320.00016 c 2
 268.36001 320.00016 l 1
 268.35512719 320.00016 l 2
 264.38149719 320.00016 260.81703719 316.79215 260.4 312.84 c 2
315.64 144 m 0
 325.14 144 332.5502 152.23047 331.5502 161.6797 c 2
 326.48086 209.6797 l 2
 325.620508 217.82032 318.76016 224 310.57066 224 c 2
 265.42026 224 l 2
 257.23081 224 250.37046 217.82031 249.51006 209.6797 c 2
 244.44072 161.6797 l 2
 243.44072 152.23048 250.8499 144 260.34992 144 c 2
 315.64 144 l 0
EndSplineSet
Validated: 33
EndChar

StartChar: download
Encoding: 21 61465 19
Width: 512
LayerCount: 2
Fore
SplineSet
216 448 m 1
 296 448 l 2
 309.2998 448 320 437.2998 320 424 c 2
 320 256 l 1
 407.7002 256 l 2
 425.5 256 434.4004 234.5 421.7998 221.9004 c 2
 269.6998 69.7004 l 2
 262.1998 62.2004 249.9 62.2004 242.4 69.7004 c 2
 90.099 221.9004 l 2
 77.4994 234.5 86.39978 256 104.1996 256 c 2
 191.9994 256 l 1
 191.9994 424 l 2
 191.9994 437.2998 202.6996 448 215.9994 448 c 2
 216 448 l 1
512 72 m 2
 512 -40 l 2
 512 -53.2998 501.2998 -64 488 -64 c 2
 24 -64 l 2
 10.7002 -64 0 -53.2998 0 -40 c 2
 0 72 l 2
 0 85.2998 10.7002 96 24 96 c 2
 170.7 96 l 1
 219.7 47 l 2
 239.7996 26.9004 272.2 26.9004 292.2996 47 c 2
 341.2996 96 l 1
 487.9996 96 l 2
 501.2994 96 511.9996 85.2998 512 72 c 2
388 -16 m 0
 388 -5 379 4 368 4 c 0
 357 4 348 -5 348 -16 c 0
 348 -27 357 -36 368 -36 c 0
 379 -36 388 -27 388 -16 c 0
452 -16 m 0
 452 -5 443 4 432 4 c 0
 421 4 412 -5 412 -16 c 0
 412 -27 421 -36 432 -36 c 0
 443 -36 452 -27 452 -16 c 0
EndSplineSet
Validated: 33
EndChar

StartChar: inbox
Encoding: 22 61468 20
Width: 576
Flags: W
LayerCount: 2
Fore
SplineSet
567.938 204.092 m 2
 572.3882 197.4172 575.99952 185.4895 575.99952 177.468 c 2
 575.99952 177.467023438 l 1
 575.99952 48.000023438 l 2
 575.99952 21.490223438 554.50932 2.34379999995e-05 527.99952 2.34379999995e-05 c 2
 47.99952 2.34379999995e-05 l 2
 21.48972 2.34379999995e-05 -0.000480000000039 21.490223438 -0.000480000000039 48.000023438 c 2
 -0.000480000000039 177.467023438 l 1
 -0.000480000000039 177.468 l 2
 -0.000480000000039 185.48948 3.61085 197.4172 8.06104 204.092 c 2
 113.75004 362.626 l 2
 121.61625 374.4248 139.50784 384 153.68854 384 c 2
 422.30954 384 l 2
 436.49024 384 454.38274 374.42383 462.24904 362.626 c 2
 567.938 204.092 l 2
162.252 320 m 1
 76.918 192 l 1
 200 192 l 1
 232 128 l 1
 344 128 l 1
 376 192 l 1
 499.082 192 l 1
 413.749 320 l 1
 162.252 320 l 1
EndSplineSet
Validated: 1
EndChar

StartChar: redo
Encoding: 23 61470 21
Width: 512
LayerCount: 2
Fore
SplineSet
500.33 448 m 0
 506.95402 448 512.33 442.62402 512.33 436 c 2
 512.33 235.66 l 2
 512.33 229.03598 506.95402 223.66 500.33 223.66 c 2
 300 223.66 l 2
 293.37598 223.66 288 229.03598 288 235.66 c 2
 288 283.0702 l 1
 288 283.0838719 l 2
 288 289.7078919 293.37598 295.0838719 300 295.0838719 c 0
 300.157227 295.0838719 300.413086 295.07703596 300.570312 295.0702 c 2
 402.099312 290.20008 l 1
 373.227212 333.16098 307.784812 368.02818 256.023312 368.02818 c 0
 158.871912 368.02818 80.023312 289.17958 80.023312 192.02818 c 0
 80.023312 94.87588 158.871912 16.02818 256.023312 16.02818 c 0
 292.677612 16.02818 344.760612 35.67858 372.280312 59.88948 c 0
 374.152382 61.5262 377.689492 62.85335 380.175822 62.85335 c 0
 382.918982 62.85335 386.719772 61.27913 388.660202 59.33968 c 2
 422.660202 25.33968 l 2
 424.601612 23.39925 426.177782 19.59652 426.177782 16.8514 c 0
 426.177782 13.89046 424.386762 9.8846 422.179732 7.90999 c 0
 383.209032 -27.36831 308.915732 -56.00021 256.348732 -56.00021 c 2
 256.000099 -56.00021 l 2
 119.100099 -56.00021 8.100099 54.92979 8.000099 191.80979 c 0
 7.9004896 328.46979 119.340099 439.99979 256.000099 439.99979 c 2
 256.27256 439.99979 l 2
 319.49716 439.99979 404.01156 400.87579 444.91956 352.66969 c 1
 440.91956 435.42949 l 2
 440.9117475 435.586717 440.9058881 435.842576 440.9058881 435.999802 c 0
 440.9058881 442.623822 446.2818681 447.999802 452.9058881 447.999802 c 2
 452.91956 447.999802 l 1
 500.33 448 l 0
EndSplineSet
Validated: 33
EndChar

StartChar: sync
Encoding: 24 61473 22
Width: 512
LayerCount: 2
Fore
SplineSet
440.65 435.43 m 2
 440.6421875 435.587227 440.6363281 435.843086 440.6363281 436.000312 c 0
 440.6363281 442.620432 446.0093781 447.996412 452.6295281 448.000312 c 2
 499.9996281 448.000312 l 2
 506.6236481 448.000312 511.9996281 442.624332 511.9996281 436.000312 c 2
 511.9996281 235.650312 l 2
 511.9996281 229.026292 506.6236481 223.650312 499.9996281 223.650312 c 2
 299.7796281 223.650312 l 2
 293.1556081 223.650312 287.7796281 229.026292 287.7796281 235.650312 c 2
 287.7796281 283.059512 l 1
 287.7796281 283.0731839 l 2
 287.7796281 289.6972039 293.1556081 295.0731839 299.7796281 295.0731839 c 0
 299.9368551 295.0731839 300.1917371 295.06732452 300.3489641 295.059512 c 2
 401.8089641 290.200132 l 1
 372.9505641 333.124932 307.5491641 367.962832 255.8249641 367.962832 c 0
 179.3415641 367.962832 102.7259641 307.616132 84.8089641 233.259832 c 0
 83.6116941 228.154362 78.3841641 224.005922 73.1390641 224.000062 c 2
 24.0892641 224.000062 l 2
 17.4652441 224.000062 12.0892641 229.376042 12.0892641 236.000062 c 0
 12.0892641 236.606507 12.1791079 237.583072 12.2894591 238.179752 c 0
 33.9095591 353.079752 134.7294591 439.999752 255.8294591 439.999752 c 2
 256.1136391 439.999752 l 2
 319.3167391 439.999752 403.7806391 400.871852 444.6496391 352.659952 c 1
 440.65 435.43 l 2
255.83 16 m 2
 332.3271 16 408.974 76.3633 426.86 150.74 c 0
 428.05727 155.84547 433.2848 159.99391 438.5299 159.99977 c 2
 487.5797 159.99977 l 2
 494.20372 159.99977 499.5797 154.62379 499.5797 147.99977 c 0
 499.5797 147.393325 499.4898562 146.41676 499.379505 145.82008 c 0
 477.759405 30.92008 376.940505 -55.99992 255.829505 -55.99992 c 2
 255.59513 -55.99992 l 2
 192.46623 -55.99992 108.06513 -16.94812 67.19913 31.16998 c 1
 71.34854 -51.40032 l 2
 71.35732906 -51.565359 71.364165 -51.833914 71.364165 -51.999929 c 0
 71.364165 -58.623949 65.988185 -63.999929 59.364165 -63.999929 c 2
 59.34854 -63.999929 l 1
 11.99894 -63.999929 l 2
 5.37492 -63.999929 -0.00106 -58.623949 -0.00106 -51.999929 c 2
 -0.00106 148.330071 l 2
 -0.00106 154.954091 5.37492 160.330071 11.99894 160.330071 c 2
 212.19894 160.330071 l 2
 218.82296 160.330071 224.19894 154.954091 224.19894 148.330071 c 2
 224.19894 100.929671 l 1
 224.19894 100.9159991 l 2
 224.19894 94.2919791 218.82296 88.9159991 212.19894 88.9159991 c 0
 212.041713 88.9159991 211.785854 88.92283504 211.628628 88.929671 c 2
 109.828628 93.799791 l 1
 138.628428 50.854491 203.969228 15.999991 255.678628 15.999991 c 2
 255.829019 15.999991 l 1
 255.83 16 l 2
EndSplineSet
Validated: 1
EndChar

StartChar: list-alt
Encoding: 25 61474 23
Width: 512
LayerCount: 2
Fore
SplineSet
464 -32 m 2
 48 -32 l 2
 21.4902 -32 0 -10.5098 0 16 c 2
 0 368 l 2
 0 394.5098 21.4902 416 48 416 c 2
 464 416 l 2
 490.5098 416 512 394.5098 512 368 c 2
 512 16 l 2
 512 -10.5098 490.5098 -32 464 -32 c 2
128 328 m 0
 105.9092 328 88 310.0908 88 288 c 0
 88 265.9092 105.9092 248 128 248 c 0
 150.0908 248 168 265.9092 168 288 c 0
 168 310.0908 150.0908 328 128 328 c 0
128 232 m 0
 105.9092 232 88 214.0908 88 192 c 0
 88 169.9092 105.9092 152 128 152 c 0
 150.0908 152 168 169.9092 168 192 c 0
 168 214.0908 150.0908 232 128 232 c 0
128 136 m 0
 105.9092 136 88 118.0908 88 96 c 0
 88 73.9092 105.9092 56 128 56 c 0
 150.0908 56 168 73.9092 168 96 c 0
 168 118.0908 150.0908 136 128 136 c 0
416 272 m 2
 416 304 l 2
 416 310.62695 410.62695 316 404 316 c 2
 204 316 l 2
 197.37305 316 192 310.62695 192 304 c 2
 192 272 l 2
 192 265.37305 197.37305 260 204 260 c 2
 404 260 l 2
 410.62695 260 416 265.37305 416 272 c 2
416 176 m 2
 416 208 l 2
 416 214.62695 410.62695 220 404 220 c 2
 204 220 l 2
 197.37305 220 192 214.62695 192 208 c 2
 192 176 l 2
 192 169.37305 197.37305 164 204 164 c 2
 404 164 l 2
 410.62695 164 416 169.37305 416 176 c 2
416 80 m 2
 416 112 l 2
 416 118.62695 410.62695 124 404 124 c 2
 204 124 l 2
 197.37305 124 192 118.62695 192 112 c 2
 192 80 l 2
 192 73.37305 197.37305 68 204 68 c 2
 404 68 l 2
 410.62695 68 416 73.37305 416 80 c 2
EndSplineSet
Validated: 513
EndChar

StartChar: lock
Encoding: 26 61475 24
Width: 448
Flags: W
LayerCount: 2
Fore
SplineSet
400 224 m 2
 426.5 224 448 202.5 448 176 c 2
 448 -16 l 2
 448 -42.5 426.5 -64 400 -64 c 2
 48 -64 l 2
 21.5 -64 0 -42.5 0 -16 c 2
 0 176 l 2
 0 202.5 21.5 224 48 224 c 2
 72 224 l 1
 72 296 l 2
 72 379.7998 140.2002 448 224 448 c 0
 307.7998 448 376 379.7998 376 296 c 2
 376 224 l 1
 400 224 l 2
296 224 m 1
 296 296 l 2
 296 335.7002 263.7002 368 224 368 c 0
 184.2998 368 152 335.7002 152 296 c 2
 152 224 l 1
 296 224 l 1
EndSplineSet
Validated: 1
EndChar

StartChar: flag
Encoding: 27 61476 25
Width: 512
LayerCount: 2
Fore
SplineSet
349.565 349.217 m 1
 390.0601 349.217 432.1763 365.1232 466.514 381.0715 c 0
 487.7308 390.92502 511.9994 375.44845 511.9994 352.0549 c 2
 511.9994 108.9549 l 2
 511.9994 98.4285 506.83924 88.5477 498.1566 82.5965 c 0
 462.3187 58.033 423.8207 41.7391 375.6516 41.7391 c 0
 308.2786 41.7391 264.0226 76.5223 210.4336 76.5223 c 0
 159.5811 76.5223 124.3096 66.4637 95.9986 54.4002 c 1
 95.9986 -40.0002 l 2
 95.9986 -53.2551 85.2535 -64.0002 71.9986 -64.0002 c 2
 55.9986 -64.0002 l 2
 42.7437 -64.0002 31.9986 -53.2551 31.9986 -40.0002 c 2
 31.9986 346.0548 l 1
 17.4957 356.1749 7.9986 372.9737 7.9986 392.0001 c 0
 7.9986 423.7042 34.3433 449.254 66.3365 447.9522 c 0
 94.8043 446.794 118.1158 423.9854 119.8873 395.5489 c 0
 119.9498 394.568431 120.000581 392.97566 120.000581 391.99324 c 0
 120.000581 386.2823 118.343351 377.31944 116.301361 371.98734 c 1
 137.037661 379.61625 159.391161 384.00004 184.346261 384.00004 c 0
 251.719261 384.00004 295.976261 349.21684 349.564261 349.21684 c 1
 349.565 349.217 l 1
EndSplineSet
Validated: 33
EndChar

StartChar: headphones
Encoding: 28 61477 26
Width: 512
LayerCount: 2
Fore
SplineSet
256 416 m 2
 397.504 416 512 301.479 512 160 c 2
 512 112 l 2
 512 101.083 504.0752 88.2598 494.3096 83.3779 c 2
 479.9278 76.18649 l 1
 477.91706 16.09759 428.5792 -32.00051 367.9998 -32.00051 c 2
 343.9998 -32.00051 l 2
 330.7449 -32.00051 319.9998 -21.25541 319.9998 -8.00051 c 2
 319.9998 167.99949 l 2
 319.9998 181.25439 330.7449 191.99949 343.9998 191.99949 c 2
 367.9998 191.99949 l 2
 399.3416 191.99949 427.6707 179.12059 447.9998 158.37249 c 1
 447.9998 159.99944 l 2
 447.9998 265.86844 361.8689 351.99944 255.9998 351.99944 c 0
 150.1307 351.99944 63.9998 265.86854 63.9998 159.99944 c 2
 63.9998 158.37249 l 1
 84.3289 179.12049 112.658 191.99949 143.9998 191.99949 c 2
 167.9998 191.99949 l 2
 181.2547 191.99949 191.9998 181.25439 191.9998 167.99949 c 2
 191.9998 -8.00051 l 2
 191.9998 -21.25541 181.2547 -32.00051 167.9998 -32.00051 c 2
 143.9998 -32.00051 l 2
 83.4207 -32.00051 34.0828 16.09619 32.0718 76.18649 c 1
 17.689 83.3779 l 2
 7.92435 88.25974 -0.000500000000002 101.083 -0.000500000000002 112 c 1
 -0.000500000000002 112 l 1
 -0.000500000000002 160 l 2
 -0.000500000000002 301.504 114.5195 416 255.9995 416 c 2
 256 416 l 2
EndSplineSet
Validated: 5
EndChar

StartChar: volume-off
Encoding: 29 61478 27
Width: 256
Flags: W
LayerCount: 2
Fore
SplineSet
215 377 m 2
 230 392 256 381.46973 256 360 c 2
 256 24 l 2
 256 2.5303 230 -8 215 7 c 2
 126.0596 96 l 1
 23.9996 96 l 2
 10.7516 96 -0.000399999999999 106.752 -0.000399999999999 120 c 2
 -0.000399999999999 264 l 2
 -0.000399999999999 277.248 10.7516 288 23.9996 288 c 2
 125.9996 288 l 1
 215 377 l 2
EndSplineSet
Validated: 545
EndChar

StartChar: volume-down
Encoding: 30 61479 28
Width: 384
Flags: W
LayerCount: 2
Fore
SplineSet
215.03 375.96 m 2
 230.0398 390.96 255.9997 380.45023 255.9997 358.9805 c 2
 255.9997 23.0195 l 2
 255.9997 1.58 230.0593 -8.9805 215.03 6.0498 c 2
 126.0593 95 l 1
 23.9993 95 l 2
 10.7395 95 -0.000699999999966 105.75 -0.000699999999966 119 c 2
 -0.000699999999966 263 l 2
 -0.000699999999966 276.2598 10.7395 287 23.9993 287 c 2
 126.0593 287 l 1
 215.03 375.96 l 2
338.23 267.88 m 0
 366.4693 252.3302 384.0093 222.8898 384.0093 191.0099 c 0
 384.0093 159.13 366.4693 129.6798 338.2398 114.13 c 0
 326.6793 107.78039 312.0591 111.92004 305.6294 123.5802 c 0
 299.23975 135.1906 303.46924 149.7804 315.0796 156.1906 c 0
 327.98 163.28044 335.9995 176.6203 335.9995 191.0002 c 0
 335.9995 205.3801 327.97997 218.7199 315.0698 225.8205 c 0
 303.4594 232.23066 299.23 246.8205 305.6196 258.4299 c 0
 312.03952 270.0403 326.6499 274.2102 338.23 267.88 c 0
EndSplineSet
Validated: 545
EndChar

StartChar: volume-up
Encoding: 31 61480 29
Width: 576
Flags: W
LayerCount: 2
Fore
SplineSet
215.03 376.95 m 2
 230.0398 391.9598 255.9997 381.44023 255.9997 359.9803 c 2
 255.9997 24.0193 l 2
 255.9997 2.5798 230.0593 -7.9807 215.03 7.0496 c 2
 126.0593 95.9998 l 1
 23.9993 95.9998 l 2
 10.7395 95.9998 -0.000699999999966 106.7498 -0.000699999999966 119.9998 c 2
 -0.000699999999966 263.9998 l 2
 -0.000699999999966 277.2596 10.7395 287.9998 23.9993 287.9998 c 2
 126.0593 287.9998 l 1
 215.03 376.95 l 2
448.35 428.03 m 0
 528.2699 375.57 576 287.33 576 192 c 0
 576 96.67 528.2695 8.42 448.35 -44.04 c 0
 436.7699 -51.65035 421.8803 -47.79977 414.8402 -37.0898 c 0
 407.50036 -25.9296 410.62047 -10.9101 421.7904 -3.5898 c 0
 488.0599 39.9004 527.6104 113.0102 527.6104 191.9902 c 0
 527.6104 270.9697 488.0596 344.0802 421.7904 387.5702 c 0
 410.6205 394.90028 407.5004 409.91 414.8402 421.08 c 0
 422.17028 432.2695 437.18 435.3603 448.35 428.03 c 0
480 192 m 2
 480 128.46 447.9404 70.06 394.2305 35.76 c 0
 382.2305 28.08031 367.6201 32.86059 361.1104 43.21996 c 0
 354.01958 54.50996 357.33013 69.44066 368.51958 76.58036 c 0
 408.26958 101.96996 432.00008 145.11066 432.00008 192.00036 c 0
 432.00008 238.89006 408.26958 282.03066 368.51958 307.42036 c 0
 357.33008 314.57075 354.01958 329.50046 361.1104 340.78076 c 0
 368.20024 352.06006 383.0401 355.38036 394.2305 348.24072 c 0
 447.9405 313.94092 480 255.53072 480 192.00072 c 2
 480 192 l 2
338.23 268.87 m 0
 366.4693 253.33 384.0093 223.8895 384.0093 192.0096 c 0
 384.0093 160.1297 366.4693 130.6795 338.2398 115.1297 c 0
 326.6793 108.78009 312.0591 112.91974 305.6294 124.5799 c 0
 299.23975 136.1903 303.46924 150.7801 315.0796 157.1903 c 0
 327.98 164.28014 335.9995 177.62 335.9995 191.9999 c 0
 335.9995 206.37 327.97997 219.7196 315.0698 226.8095 c 0
 303.4594 233.21966 299.23 247.8095 305.6196 259.4199 c 0
 312.03952 271.0303 326.6499 275.2002 338.23 268.87 c 0
EndSplineSet
Validated: 545
EndChar

StartChar: qrcode
Encoding: 32 61481 30
Width: 448
Flags: W
LayerCount: 2
Fore
SplineSet
0 224 m 1
 0 416 l 1
 192 416 l 1
 192 224 l 1
 0 224 l 1
64 352 m 1
 64 288 l 1
 128 288 l 1
 128 352 l 1
 64 352 l 1
256 416 m 1
 448 416 l 1
 448 224 l 1
 256 224 l 1
 256 416 l 1
384 288 m 1
 384 352 l 1
 320 352 l 1
 320 288 l 1
 384 288 l 1
0 -32 m 1
 0 160 l 1
 192 160 l 1
 192 -32 l 1
 0 -32 l 1
64 96 m 1
 64 32 l 1
 128 32 l 1
 128 96 l 1
 64 96 l 1
416 160 m 1
 448 160 l 1
 448 32 l 1
 352 32 l 1
 352 64 l 1
 320 64 l 1
 320 -32 l 1
 256 -32 l 1
 256 160 l 1
 352 160 l 1
 352 128 l 1
 416 128 l 1
 416 160 l 1
416 0 m 1
 448 0 l 1
 448 -32 l 1
 416 -32 l 1
 416 0 l 1
352 0 m 1
 384 0 l 1
 384 -32 l 1
 352 -32 l 1
 352 0 l 1
EndSplineSet
Validated: 1
EndChar

StartChar: barcode
Encoding: 33 61482 31
Width: 512
LayerCount: 2
Fore
SplineSet
0 0 m 1
 0 384 l 1
 18 384 l 1
 18 0 l 1
 0 0 l 1
26.8574 0.273438 m 1
 26.8574 384.000438 l 1
 35.99998 384.000438 l 1
 35.99998 0.273438 l 1
 26.8574 0.273438 l 1
54 0.273438 m 1
 54 384.000438 l 1
 62.85742 384.000438 l 1
 62.85742 0.273438 l 1
 54 0.273438 l 1
98.8574 0.273438 m 1
 98.8574 384.000438 l 1
 107.71385 384.000438 l 1
 107.71385 0.273438 l 1
 98.8574 0.273438 l 1
134.857 0.273438 m 1
 134.857 384.000438 l 1
 152.5709 384.000438 l 1
 152.5709 0.273438 l 1
 134.857 0.273438 l 1
179.714 0.273438 m 1
 179.714 384.000438 l 1
 188.57142 384.000438 l 1
 188.57142 0.273438 l 1
 179.714 0.273438 l 1
197.714 0.273438 m 1
 197.714 384.000438 l 1
 206.57142 384.000438 l 1
 206.57142 0.273438 l 1
 197.714 0.273438 l 1
215.714 0.273438 m 1
 215.714 384.000438 l 1
 224.57142 384.000438 l 1
 224.57142 0.273438 l 1
 215.714 0.273438 l 1
251.429 0.273438 m 1
 251.429 384.000438 l 1
 269.429 384.000438 l 1
 269.429 0.273438 l 1
 251.429 0.273438 l 1
296.286 0.273438 m 1
 296.286 384.000438 l 1
 314.286 384.000438 l 1
 314.286 0.273438 l 1
 296.286 0.273438 l 1
332.285 0.273438 m 1
 332.285 384.000438 l 1
 350.286 384.000438 l 1
 350.286 0.273438 l 1
 332.285 0.273438 l 1
368.286 0.273438 m 1
 368.286 384.000438 l 1
 386.287 384.000438 l 1
 386.287 0.273438 l 1
 368.286 0.273438 l 1
395.143 0.273438 m 1
 395.143 384.000438 l 1
 413.143 384.000438 l 1
 413.143 0.273438 l 1
 395.143 0.273438 l 1
440.286 0.273438 m 1
 440.286 384.000438 l 1
 467.1424 384.000438 l 1
 467.1424 0.273438 l 1
 440.286 0.273438 l 1
476 0.273438 m 1
 476 384.000438 l 1
 485.14258 384.000438 l 1
 485.14258 0.273438 l 1
 476 0.273438 l 1
494 0 m 1
 494 384 l 1
 512 384 l 1
 512 0 l 1
 494 0 l 1
EndSplineSet
Validated: 1
EndChar

StartChar: tag
Encoding: 34 61483 32
Width: 512
LayerCount: 2
Fore
SplineSet
0 195.882 m 2
 0 400 l 2
 0 426.5098 21.4902 448 48 448 c 2
 252.118 448 l 2
 263.0926 448 278.2987 441.70117 286.0584 433.9414 c 2
 497.9414 222.0584 l 2
 516.6855 203.3143 516.6855 172.9217 497.9414 154.1766 c 2
 293.8234 -49.9414 l 2
 275.0783 -68.6855 244.6857 -68.6855 225.9416 -49.9414 c 2
 14.0586 161.9416 l 2
 6.29883 169.70137 4.08562073062e-14 184.9074 0 195.882 c 2
112 384 m 0
 85.4902 384 64 362.5098 64 336 c 0
 64 309.4902 85.4902 288 112 288 c 0
 138.5098 288 160 309.4902 160 336 c 0
 160 362.5098 138.5098 384 112 384 c 0
EndSplineSet
Validated: 33
EndChar

StartChar: tags
Encoding: 35 61484 33
Width: 640
Flags: W
LayerCount: 2
Fore
SplineSet
497.941 222.059 m 2
 516.6851 203.3149 516.6851 172.9223 497.941 154.1772 c 2
 293.823 -49.9408 l 2
 275.0769 -68.6859 244.6843 -68.6849 225.9412 -49.9408 c 2
 14.0582 161.9422 l 2
 6.29843 169.70197 -0.000400000000029 184.908 -0.000400000000029 195.8826 c 2
 -0.000400000000029 400.0006 l 2
 -0.000400000000029 426.5104 21.4898 448.0006 47.9996 448.0006 c 2
 252.1176 448.0006 l 2
 263.0922 448.0006 278.2983 441.70177 286.058 433.942 c 2
 497.941 222.059 l 2
112 288 m 0
 138.5098 288 160 309.4902 160 336 c 0
 160 362.5098 138.5098 384 112 384 c 0
 85.4902 384 64 362.5098 64 336 c 0
 64 309.4902 85.4902 288 112 288 c 0
625.941 154.177 m 1
 421.823 -49.941 l 2
 403.0779 -68.6851 372.6853 -68.6851 353.9412 -49.941 c 2
 353.580848 -49.580648 l 1
 527.639848 124.478352 l 2
 544.638848 141.477352 554.000248 164.078952 554.000248 188.118952 c 0
 554.000248 212.158952 544.637948 234.759552 527.639848 251.758552 c 2
 331.397848 448.000552 l 1
 380.118548 448.000552 l 2
 391.093148 448.000552 406.299248 441.701722 414.058948 433.941952 c 2
 625.941948 222.058952 l 2
 644.686048 203.314852 644.686048 172.922252 625.941948 154.177152 c 1
 625.941 154.177 l 1
EndSplineSet
Validated: 33
EndChar

StartChar: book
Encoding: 36 61485 34
Width: 448
Flags: W
LayerCount: 2
Fore
SplineSet
448 88 m 2
 448 80.5 444.5 73.7002 439.09961 69.4004 c 1
 434.90039 54 434.90039 10.0996 439.09961 -5.2998 c 1
 444.5 -9.70019 448 -16.5 448 -24 c 2
 448 -40 l 2
 448 -53.2998 437.2998 -64 424 -64 c 2
 96 -64 l 2
 43 -64 0 -21 0 32 c 2
 0 352 l 2
 0 405 43 448 96 448 c 2
 424 448 l 2
 437.2998 448 448 437.2998 448 424 c 2
 448 88 l 2
128 314 m 2
 128 294 l 2
 128 290.7002 130.7002 288 134 288 c 2
 346 288 l 2
 349.2998 288 352 290.7002 352 294 c 2
 352 314 l 2
 352 317.2998 349.2998 320 346 320 c 2
 134 320 l 2
 130.7002 320 128 317.2998 128 314 c 2
128 250 m 2
 128 230 l 2
 128 226.7002 130.7002 224 134 224 c 2
 346 224 l 2
 349.2998 224 352 226.7002 352 230 c 2
 352 250 l 2
 352 253.2998 349.2998 256 346 256 c 2
 134 256 l 2
 130.7002 256 128 253.2998 128 250 c 2
381.4 0 m 1
 379.49961 17.0996 379.49961 46.9004 381.4 64 c 1
 96 64 l 2
 78.4004 64 64 49.5996 64 32 c 0
 64 14.2998 78.2998 0 96 0 c 2
 381.4 0 l 1
EndSplineSet
Validated: 33
EndChar

StartChar: bookmark
Encoding: 37 61486 35
Width: 384
Flags: W
LayerCount: 2
Fore
SplineSet
0 -64 m 1
 0 400 l 2
 0 426.5098 21.4902 448 48 448 c 2
 336 448 l 2
 362.5098 448 384 426.5098 384 400 c 2
 384 -64 l 1
 192 48 l 1
 0 -64 l 1
EndSplineSet
Validated: 1
EndChar

StartChar: print
Encoding: 38 61487 36
Width: 512
LayerCount: 2
Fore
SplineSet
448 256 m 0
 483.3496 256 512 227.3496 512 192 c 2
 512 80 l 2
 512 71.16016 504.83984 64 496 64 c 2
 448 64 l 1
 448 -32 l 2
 448 -49.6699 433.6699 -64 416 -64 c 2
 96 -64 l 2
 78.3301 -64 64 -49.6699 64 -32 c 2
 64 64 l 1
 16 64 l 2
 7.16016 64 0 71.16016 0 80 c 2
 0 192 l 2
 0 227.3496 28.6504 256 64 256 c 1
 64 416 l 2
 64 433.6699 78.3301 448 96 448 c 2
 370.74 448 l 2
 379.23023 448 387.3699 444.62988 393.3699 438.62988 c 2
 438.6297 393.37988 l 2
 444.6297 387.37011 447.99982 379.24028 447.99982 370.74998 c 2
 448 256 l 0
384 0 m 1
 384 96 l 1
 128 96 l 1
 128 0 l 1
 384 0 l 1
384 224 m 1
 384 320 l 1
 336 320 l 2
 327.16016 320 320 327.16016 320 336 c 2
 320 384 l 1
 128 384 l 1
 128 224 l 1
 384 224 l 1
432 152 m 0
 445.25 152 456 162.75 456 176 c 0
 456 189.2598 445.25 200 432 200 c 0
 418.75 200 408 189.2598 408 176 c 0
 408 162.75 418.75 152 432 152 c 0
EndSplineSet
Validated: 1
EndChar

StartChar: camera
Encoding: 39 61488 37
Width: 512
LayerCount: 2
Fore
SplineSet
512 304 m 2
 512 16 l 2
 512 -10.5 490.5 -32 464 -32 c 2
 48 -32 l 2
 21.5 -32 0 -10.5 0 16 c 2
 0 304 l 2
 0 330.5 21.5 352 48 352 c 2
 136 352 l 1
 148.2998 384.9004 l 2
 155.2998 403.5996 173.2002 416 193.2002 416 c 2
 318.7002 416 l 2
 338.7002 416 356.5996 403.5996 363.5996 384.9004 c 2
 376 352 l 1
 464 352 l 2
 490.5 352 512 330.5 512 304 c 2
376 160 m 0
 376 226.2002 322.2002 280 256 280 c 0
 189.7998 280 136 226.2002 136 160 c 0
 136 93.7998 189.7998 40 256 40 c 0
 322.2002 40 376 93.7998 376 160 c 0
344 160 m 0
 344 111.5 304.5 72 256 72 c 0
 207.5 72 168 111.5 168 160 c 0
 168 208.5 207.5 248 256 248 c 0
 304.5 248 344 208.5 344 160 c 0
EndSplineSet
Validated: 1
EndChar

StartChar: font
Encoding: 40 61489 38
Width: 448
Flags: W
LayerCount: 2
Fore
SplineSet
432 32 m 2
 440.7998 32 448 24.7998 448 16 c 2
 448 -16 l 2
 448 -24.7998 440.7998 -32 432 -32 c 2
 296 -32 l 2
 287.2002 -32 280 -24.7998 280 -16 c 2
 280 16 l 2
 280 24.7998 287.2002 32 296 32 c 2
 319.4004 32 l 1
 292.7998 112.7998 l 1
 154.5998 112.7998 l 1
 128.0002 32 l 1
 152.0002 32 l 2
 160.8 32 168.0002 24.7998 168.0002 16 c 2
 168.0002 -16 l 2
 168.0002 -24.7998 160.8 -32 152.0002 -32 c 2
 16.0002 -32 l 2
 7.2004 -32 0.000200000000007 -24.7998 0.000200000000007 -16 c 2
 0.000200000000007 16 l 2
 0.000200000000007 24.7998 7.2004 32 16.0002 32 c 2
 42.7004 32 l 1
 172.5004 405.3 l 2
 174.7006 411.70039 180.8002 416.0002 187.6 416.0002 c 2
 260.4008 416.0002 l 2
 267.2006 416.0002 273.3002 411.7004 275.5004 405.3 c 2
 405.3004 32 l 1
 432.0006 32 l 1
 432 32 l 2
174.4 179.7 m 1
 272.9996 179.7 l 1
 231.6998 303.7 l 2
 226.9 318.9002 224.79941 331.9002 223.9996 338.4002 c 1
 222.9996 331.99981 220.6998 318.9998 216.39999 303.7996 c 2
 174.4 179.7 l 1
EndSplineSet
Validated: 5
EndChar

StartChar: bold
Encoding: 41 61490 39
Width: 384
Flags: W
LayerCount: 2
Fore
SplineSet
304.793 204.109 m 1
 349.4268 189.6695 376 150.1539 376 97.986 c 0
 376 37.3522 337.5195 -9.194 286.5557 -24.416 c 0
 264.5245 -30.71092 243.8926 -31.99998 219.6905 -31.99998 c 2
 24.0005 -31.99998 l 2
 15.16359 -31.99998 8.0005 -24.83689 8.0005 -15.99998 c 2
 8.0005 16.42092 l 2
 8.0005 25.25783 15.16359 32.42092 24.0005 32.42092 c 2
 57.1138 32.42092 l 1
 57.1138 350.95092 l 1
 24.0005 350.95092 l 2
 15.16359 350.95092 8.0005 358.11401 8.0005 366.95092 c 2
 8.0005 399.99972 l 2
 8.0005 408.83663 15.16359 415.99972 24.0005 415.99972 c 2
 209.6615 415.99972 l 2
 240.849 415.99972 265.1381 413.98995 289.8246 403.98112 c 0
 332.2006 387.42742 358.4506 348.03772 358.4506 299.80112 c 0
 358.4506 258.26792 338.432 222.64582 304.7934 204.10872 c 1
 304.793 204.109 l 1
142.217 347.191 m 1
 142.217 234.238 l 1
 219.0637 234.238 l 2
 251.7727 234.238 272.092 255.9987 272.092 291.028 c 0
 272.092 313.9714 263.01388 331.9948 247.1858 340.4733 c 0
 237.19752 345.17154 225.9553 347.19107 209.6614 347.19107 c 2
 142.217 347.191 l 1
254.859 41.7158 m 0
 275.9811 50.51658 289.6412 74.5752 289.6402 103 c 0
 289.6402 140.6768 266.2281 166.0566 226.5836 166.0566 c 2
 142.2164 166.0566 l 1
 142.2164 36.8086 l 1
 223.4498 36.8086 l 2
 232.18125 36.8086 244.7184 37.660162 254.859 41.7158 c 0
EndSplineSet
Validated: 37
EndChar

StartChar: italic
Encoding: 42 61491 40
Width: 320
Flags: W
LayerCount: 2
Fore
SplineSet
204.758 32 m 2
 214.8244 32 222.3889 22.81543 220.4621 12.9346 c 2
 214.21698 -19.0654 l 2
 212.82343 -26.20505 205.78827 -32 198.51388 -32 c 2
 198.512903438 -32 l 1
 40.033903438 -32 l 2
 29.966503438 -32 22.402103438 -22.81543 24.328803438 -12.9346 c 2
 30.573923438 19.0654 l 2
 31.967473438 26.20505 39.002633438 32 46.277023438 32 c 2
 46.278 32 l 1
 85.7487 32 l 1
 147.8385 352 l 1
 113.9928 352 l 2
 103.9264 352 96.3619 361.18359 98.2887 371.0635 c 2
 104.53089 403.0635 l 2
 105.92347 410.20412 112.95862 416 120.23499 416 c 2
 279.96699 416 l 2
 290.03339 416 297.59789 406.81641 295.67109 396.9365 c 2
 289.4289 364.9365 l 2
 288.03632 357.79588 281.00117 352 273.7248 352 c 2
 233.0002 352 l 1
 170.9084 32 l 1
 204.757 32 l 1
 204.758 32 l 2
EndSplineSet
Validated: 33
EndChar

StartChar: text-height
Encoding: 43 61492 41
Width: 576
Flags: W
LayerCount: 2
Fore
SplineSet
16 416 m 2
 304 416 l 2
 312.83691 416 320 408.83691 320 400 c 2
 320 304 l 2
 320 295.16309 312.83691 288 304 288 c 2
 268.5039 288 l 2
 259.66699 288 252.5039 295.16309 252.5039 304 c 2
 252.5039 352 l 1
 197.7432 352 l 1
 197.7432 32 l 1
 232 32 l 2
 240.83691 32 248 24.83691 248 16 c 2
 248 -16 l 2
 248 -24.83691 240.83691 -32 232 -32 c 2
 88 -32 l 2
 79.16309 -32 72 -24.83691 72 -16 c 2
 72 16 l 2
 72 24.83691 79.16309 32 88 32 c 2
 122.2568 32 l 1
 122.2568 352 l 1
 67.4961 352 l 1
 67.4961 304 l 2
 67.4961 295.16309 60.33301 288 51.4961 288 c 2
 16 288 l 2
 7.16309 288 0 295.16309 0 304 c 2
 0 400 l 2
 0 408.83691 7.16309 416 16 416 c 2
491.308 411.315 m 2
 571.3031 331.314 l 2
 581.309 321.3062 574.29724 303.9995 559.9906 303.9995 c 2
 512.0004 303.9995 l 1
 512.0004 79.9995 l 1
 560.0004 79.9995 l 2
 575.6391 79.9995 580.6352 62.0083 571.3139 52.685 c 2
 491.3188 -27.316 l 2
 485.07173 -33.56209 474.937 -33.56014 468.6928 -27.316 c 2
 388.6977 52.685 l 2
 378.6918 62.6928 385.70356 79.9995 400.0102 79.9995 c 2
 448.0004 79.9995 l 1
 448.0004 303.9995 l 1
 400.0004 303.9995 l 2
 384.3617 303.9995 379.3656 321.9907 388.6869 331.314 c 2
 468.682 411.315 l 2
 474.92907 417.56305 485.0638 417.55914 491.308 411.315 c 2
EndSplineSet
Validated: 545
EndChar

StartChar: text-width
Encoding: 44 61493 42
Width: 448
Flags: W
LayerCount: 2
Fore
SplineSet
16 416 m 1
 432 416 l 2
 440.83691 416 448 408.83691 448 400 c 2
 448 304 l 2
 448 295.16309 440.83691 288 432 288 c 2
 396.5039 288 l 2
 387.66699 288 380.5039 295.16309 380.5039 304 c 2
 380.5039 352 l 1
 261.7429 352 l 1
 261.7429 224 l 1
 295.9997 224 l 2
 304.83661 224 311.9997 216.83691 311.9997 208 c 2
 311.9997 176 l 2
 311.9997 167.16309 304.83661 160 295.9997 160 c 2
 151.9997 160 l 2
 143.16279 160 135.9997 167.16309 135.9997 176 c 2
 135.9997 208 l 2
 135.9997 216.83691 143.16279 224 151.9997 224 c 2
 186.2565 224 l 1
 186.2565 352 l 1
 67.4955 352 l 1
 67.4955 304 l 2
 67.4955 295.16309 60.33241 288 51.4955 288 c 2
 15.9994 288 l 2
 7.16249 288 -0.000600000000034 295.16309 -0.000600000000034 304 c 2
 -0.000600000000034 400 l 2
 -0.000600000000034 408.83691 7.16249 416 15.9994 416 c 2
 16 416 l 1
443.315 75.3184 m 2
 449.56305 69.07133 449.55914 58.9366 443.315 52.6924 c 2
 363.314 -27.3027 l 2
 353.3062 -37.3086 335.9995 -30.29684 335.9995 -15.9902 c 2
 335.9995 32 l 1
 111.9995 32 l 1
 111.9995 -16 l 2
 111.9995 -31.6377 94.0083 -36.6348 84.685 -27.3135 c 2
 4.684 52.6816 l 2
 -1.56209 58.92867 -1.56014 69.0634 4.684 75.3076 c 2
 84.685 155.3027 l 2
 94.6928 165.3086 111.9995 158.29684 111.9995 143.9902 c 2
 111.9995 96 l 1
 335.9995 96 l 1
 335.9995 144 l 2
 335.9995 159.6377 353.9907 164.6348 363.314 155.3135 c 2
 443.315 75.3184 l 2
EndSplineSet
Validated: 545
EndChar

StartChar: align-left
Encoding: 45 61494 43
Width: 448
Flags: W
LayerCount: 2
Fore
SplineSet
288 404 m 2
 288 364 l 2
 288 355.16309 280.83691 348 272 348 c 2
 16 348 l 2
 7.16309 348 0 355.16309 0 364 c 2
 0 404 l 2
 0 412.83691 7.16309 420 16 420 c 2
 272 420 l 2
 280.83691 420 288 412.83691 288 404 c 2
0 276 m 2
 0 284.83691 7.16309 292 16 292 c 2
 432 292 l 2
 440.83691 292 448 284.83691 448 276 c 2
 448 236 l 2
 448 227.16309 440.83691 220 432 220 c 2
 16 220 l 2
 7.16309 220 0 227.16309 0 236 c 2
 0 276 l 2
16 -36 m 2
 7.16309 -36 0 -28.83691 0 -20 c 2
 0 20 l 2
 0 28.83691 7.16309 36 16 36 c 2
 432 36 l 2
 440.83691 36 448 28.83691 448 20 c 2
 448 -20 l 2
 448 -28.83691 440.83691 -36 432 -36 c 2
 16 -36 l 2
272 164 m 2
 280.83691 164 288 156.83691 288 148 c 2
 288 108 l 2
 288 99.16309 280.83691 92 272 92 c 2
 16 92 l 2
 7.16309 92 0 99.16309 0 108 c 2
 0 148 l 2
 0 156.83691 7.16309 164 16 164 c 2
 272 164 l 2
EndSplineSet
Validated: 513
EndChar

StartChar: align-center
Encoding: 46 61495 44
Width: 448
Flags: W
LayerCount: 2
Fore
SplineSet
352 404 m 2
 352 364 l 2
 352 355.16309 344.83691 348 336 348 c 2
 112 348 l 2
 103.16309 348 96 355.16309 96 364 c 2
 96 404 l 2
 96 412.83691 103.16309 420 112 420 c 2
 336 420 l 2
 344.83691 420 352 412.83691 352 404 c 2
16 220 m 2
 7.16309 220 0 227.16309 0 236 c 2
 0 276 l 2
 0 284.83691 7.16309 292 16 292 c 2
 432 292 l 2
 440.83691 292 448 284.83691 448 276 c 2
 448 236 l 2
 448 227.16309 440.83691 220 432 220 c 2
 16 220 l 2
16 -36 m 2
 7.16309 -36 0 -28.83691 0 -20 c 2
 0 20 l 2
 0 28.83691 7.16309 36 16 36 c 2
 432 36 l 2
 440.83691 36 448 28.83691 448 20 c 2
 448 -20 l 2
 448 -28.83691 440.83691 -36 432 -36 c 2
 16 -36 l 2
336 164 m 2
 344.83691 164 352 156.83691 352 148 c 2
 352 108 l 2
 352 99.16309 344.83691 92 336 92 c 2
 112 92 l 2
 103.16309 92 96 99.16309 96 108 c 2
 96 148 l 2
 96 156.83691 103.16309 164 112 164 c 2
 336 164 l 2
EndSplineSet
Validated: 513
EndChar

StartChar: align-right
Encoding: 47 61496 45
Width: 448
Flags: W
LayerCount: 2
Fore
SplineSet
160 364 m 2
 160 404 l 2
 160 412.83691 167.16309 420 176 420 c 2
 432 420 l 2
 440.83691 420 448 412.83691 448 404 c 2
 448 364 l 2
 448 355.16309 440.83691 348 432 348 c 2
 176 348 l 2
 167.16309 348 160 355.16309 160 364 c 2
16 220 m 2
 7.16309 220 0 227.16309 0 236 c 2
 0 276 l 2
 0 284.83691 7.16309 292 16 292 c 2
 432 292 l 2
 440.83691 292 448 284.83691 448 276 c 2
 448 236 l 2
 448 227.16309 440.83691 220 432 220 c 2
 16 220 l 2
16 -36 m 2
 7.16309 -36 0 -28.83691 0 -20 c 2
 0 20 l 2
 0 28.83691 7.16309 36 16 36 c 2
 432 36 l 2
 440.83691 36 448 28.83691 448 20 c 2
 448 -20 l 2
 448 -28.83691 440.83691 -36 432 -36 c 2
 16 -36 l 2
176 92 m 2
 167.16309 92 160 99.16309 160 108 c 2
 160 148 l 2
 160 156.83691 167.16309 164 176 164 c 2
 432 164 l 2
 440.83691 164 448 156.83691 448 148 c 2
 448 108 l 2
 448 99.16309 440.83691 92 432 92 c 2
 176 92 l 2
EndSplineSet
Validated: 513
EndChar

StartChar: align-justify
Encoding: 48 61497 46
Width: 448
Flags: W
LayerCount: 2
Fore
SplineSet
0 364 m 2
 0 404 l 2
 0 412.83691 7.16309 420 16 420 c 2
 432 420 l 2
 440.83691 420 448 412.83691 448 404 c 2
 448 364 l 2
 448 355.16309 440.83691 348 432 348 c 2
 16 348 l 2
 7.16309 348 0 355.16309 0 364 c 2
16 220 m 2
 7.16309 220 0 227.16309 0 236 c 2
 0 276 l 2
 0 284.83691 7.16309 292 16 292 c 2
 432 292 l 2
 440.83691 292 448 284.83691 448 276 c 2
 448 236 l 2
 448 227.16309 440.83691 220 432 220 c 2
 16 220 l 2
16 -36 m 2
 7.16309 -36 0 -28.83691 0 -20 c 2
 0 20 l 2
 0 28.83691 7.16309 36 16 36 c 2
 432 36 l 2
 440.83691 36 448 28.83691 448 20 c 2
 448 -20 l 2
 448 -28.83691 440.83691 -36 432 -36 c 2
 16 -36 l 2
16 92 m 2
 7.16309 92 0 99.16309 0 108 c 2
 0 148 l 2
 0 156.83691 7.16309 164 16 164 c 2
 432 164 l 2
 440.83691 164 448 156.83691 448 148 c 2
 448 108 l 2
 448 99.16309 440.83691 92 432 92 c 2
 16 92 l 2
EndSplineSet
Validated: 513
EndChar

StartChar: list
Encoding: 49 61498 47
Width: 512
LayerCount: 2
Fore
SplineSet
128 332 m 2
 128 372 l 2
 128 380.83691 135.16309 388 144 388 c 2
 496 388 l 2
 504.83691 388 512 380.83691 512 372 c 2
 512 332 l 2
 512 323.16309 504.83691 316 496 316 c 2
 144 316 l 2
 135.16309 316 128 323.16309 128 332 c 2
144 156 m 2
 135.16309 156 128 163.16309 128 172 c 2
 128 212 l 2
 128 220.83691 135.16309 228 144 228 c 2
 496 228 l 2
 504.83691 228 512 220.83691 512 212 c 2
 512 172 l 2
 512 163.16309 504.83691 156 496 156 c 2
 144 156 l 2
144 -4 m 2
 135.16309 -4 128 3.16309 128 12 c 2
 128 52 l 2
 128 60.83691 135.16309 68 144 68 c 2
 496 68 l 2
 504.83691 68 512 60.83691 512 52 c 2
 512 12 l 2
 512 3.16309 504.83691 -4 496 -4 c 2
 144 -4 l 2
16 304 m 2
 7.16309 304 0 311.16309 0 320 c 2
 0 384 l 2
 0 392.83691 7.16309 400 16 400 c 2
 80 400 l 2
 88.83691 400 96 392.83691 96 384 c 2
 96 320 l 2
 96 311.16309 88.83691 304 80 304 c 2
 16 304 l 2
16 144 m 2
 7.16309 144 0 151.16309 0 160 c 2
 0 224 l 2
 0 232.83691 7.16309 240 16 240 c 2
 80 240 l 2
 88.83691 240 96 232.83691 96 224 c 2
 96 160 l 2
 96 151.16309 88.83691 144 80 144 c 2
 16 144 l 2
16 -16 m 2
 7.16309 -16 0 -8.83691 0 0 c 2
 0 64 l 2
 0 72.83691 7.16309 80 16 80 c 2
 80 80 l 2
 88.83691 80 96 72.83691 96 64 c 2
 96 0 l 2
 96 -8.83691 88.83691 -16 80 -16 c 2
 16 -16 l 2
EndSplineSet
Validated: 1
EndChar

StartChar: outdent
Encoding: 50 61499 48
Width: 448
Flags: W
LayerCount: 2
Fore
SplineSet
0 364 m 2
 0 404 l 2
 0 412.83691 7.16309 420 16 420 c 2
 432 420 l 2
 440.83691 420 448 412.83691 448 404 c 2
 448 364 l 2
 448 355.16309 440.83691 348 432 348 c 2
 16 348 l 2
 7.16309 348 0 355.16309 0 364 c 2
208 220 m 2
 199.16309 220 192 227.16309 192 236 c 2
 192 276 l 2
 192 284.83691 199.16309 292 208 292 c 2
 432 292 l 2
 440.83691 292 448 284.83691 448 276 c 2
 448 236 l 2
 448 227.16309 440.83691 220 432 220 c 2
 208 220 l 2
16 -36 m 2
 7.16309 -36 0 -28.83691 0 -20 c 2
 0 20 l 2
 0 28.83691 7.16309 36 16 36 c 2
 432 36 l 2
 440.83691 36 448 28.83691 448 20 c 2
 448 -20 l 2
 448 -28.83691 440.83691 -36 432 -36 c 2
 16 -36 l 2
208 92 m 2
 199.16309 92 192 99.16309 192 108 c 2
 192 148 l 2
 192 156.83691 199.16309 164 208 164 c 2
 432 164 l 2
 440.83691 164 448 156.83691 448 148 c 2
 448 108 l 2
 448 99.16309 440.83691 92 432 92 c 2
 208 92 l 2
4.68652 180.687 m 2
 -1.56153 186.93505 -1.56153 197.0659 4.68652 203.314 c 2
 100.68652 299.3052 l 2
 110.6748 309.29641 128.00002 302.3218 128.00002 287.9927 c 2
 128.00002 96.0157 l 2
 128.00002 81.7764 110.73442 74.6524 100.68652 84.7032 c 2
 4.68652 180.687 l 2
EndSplineSet
Validated: 33
EndChar

StartChar: indent
Encoding: 51 61500 49
Width: 448
Flags: W
LayerCount: 2
Fore
SplineSet
0 364 m 2
 0 404 l 2
 0 412.83691 7.16309 420 16 420 c 2
 432 420 l 2
 440.83691 420 448 412.83691 448 404 c 2
 448 364 l 2
 448 355.16309 440.83691 348 432 348 c 2
 16 348 l 2
 7.16309 348 0 355.16309 0 364 c 2
176 220 m 2
 167.16309 220 160 227.16309 160 236 c 2
 160 276 l 2
 160 284.83691 167.16309 292 176 292 c 2
 432 292 l 2
 440.83691 292 448 284.83691 448 276 c 2
 448 236 l 2
 448 227.16309 440.83691 220 432 220 c 2
 176 220 l 2
16 -36 m 2
 7.16309 -36 0 -28.83691 0 -20 c 2
 0 20 l 2
 0 28.83691 7.16309 36 16 36 c 2
 432 36 l 2
 440.83691 36 448 28.83691 448 20 c 2
 448 -20 l 2
 448 -28.83691 440.83691 -36 432 -36 c 2
 16 -36 l 2
176 92 m 2
 167.16309 92 160 99.16309 160 108 c 2
 160 148 l 2
 160 156.83691 167.16309 164 176 164 c 2
 432 164 l 2
 440.83691 164 448 156.83691 448 148 c 2
 448 108 l 2
 448 99.16309 440.83691 92 432 92 c 2
 176 92 l 2
123.313 203.313 m 2
 129.56105 197.06495 129.56105 186.9341 123.313 180.688 c 2
 27.313 84.6958 l 2
 17.32472 74.70459 -0.000499999999999 81.6792 -0.000499999999999 96.0083 c 2
 -0.000499999999999 287.9843 l 2
 -0.000499999999999 302.2236 17.2651 309.3476 27.313 299.2968 c 2
 123.313 203.313 l 2
EndSplineSet
Validated: 33
EndChar

StartChar: video
Encoding: 52 61501 50
Width: 576
Flags: W
LayerCount: 2
Fore
SplineSet
336.2 384 m 2
 362.5994 384 383.9998 362.5996 383.9998 336.2002 c 2
 383.9998 47.8002 l 2
 383.9998 21.4008 362.5994 0.00040000000002 336.2 0.00040000000002 c 2
 47.8 0.00040000000002 l 2
 21.4006 0.00040000000002 0.000200000000014 21.4008 0.000200000000014 47.8002 c 2
 0.000200000000014 336.2002 l 2
 0.000200000000014 362.5996 21.4006 384 47.8 384 c 2
 336.2 384 l 2
525.6 346.3 m 2
 546.9008 360.9006 576.0004 345.900586 576.0004 320.5002 c 2
 576.0004 63.6002 l 2
 576.0004 38.1002 546.8002 23.2008 525.6 37.8004 c 2
 416 113.3004 l 1
 416 270.7004 l 1
 525.6 346.3 l 2
EndSplineSet
Validated: 33
EndChar

StartChar: image
Encoding: 53 61502 51
Width: 512
LayerCount: 2
Fore
SplineSet
464 0 m 2
 48 0 l 2
 21.4902 0 0 21.4902 0 48 c 2
 0 336 l 2
 0 362.5098 21.4902 384 48 384 c 2
 464 384 l 2
 490.5098 384 512 362.5098 512 336 c 2
 512 48 l 2
 512 21.4902 490.5098 0 464 0 c 2
112 328 m 0
 81.0723 328 56 302.9277 56 272 c 0
 56 241.0723 81.0723 216 112 216 c 0
 142.9277 216 168 241.0723 168 272 c 0
 168 302.9277 142.9277 328 112 328 c 0
64 64 m 1
 448 64 l 1
 448 176 l 1
 360.4854 263.5146 l 2
 355.79888 268.20112 348.2012 268.20112 343.5137 263.5146 c 2
 207.9997 127.9996 l 1
 152.4851 183.5142 l 2
 147.79858 188.20072 140.2009 188.20072 135.5134 183.5142 c 2
 63.9997 111.9996 l 1
 63.9997 63.9996 l 1
 64 64 l 1
EndSplineSet
Validated: 33
EndChar

StartChar: pencil
Encoding: 54 61504 52
Width: 512
LayerCount: 2
Fore
SplineSet
497.9 305.9 m 2
 451.7994 259.7994 l 2
 447.0992 255.0992 439.4996 255.0992 434.7994 259.7994 c 2
 323.7994 370.7994 l 2
 319.0992 375.4996 319.0992 383.0992 323.7994 387.7994 c 2
 369.9 433.9 l 2
 388.5992 452.5992 418.9996 452.5992 437.7994 433.9 c 2
 497.9 373.7994 l 2
 516.6998 355.0992 516.6998 324.6998 497.9 305.9 c 2
284.2 348.2 m 2
 288.9002 352.9002 296.4998 352.9002 301.2996 348.2 c 2
 412.2996 237.2 l 2
 416.9998 232.4998 416.9998 224.9002 412.2996 220.2 c 2
 149.6996 -42.401 l 1
 28.1996 -63.7008 l 2
 11.7992 -66.5006 -2.5006 -52.3004 0.3998 -35.901 c 2
 21.599 85.599 l 1
 284.2 348.2 l 2
88 24 m 1
 88 72 l 1
 51.7002 72 l 1
 40.4004 7.5 l 1
 71.5 -23.5996 l 1
 136 -12.2998 l 1
 136 24 l 1
 88 24 l 1
EndSplineSet
Validated: 33
EndChar

StartChar: map-marker
Encoding: 55 61505 53
Width: 384
Flags: W
LayerCount: 2
Fore
SplineSet
172.268 -53.6699 m 1
 26.97 156.9691 0 178.5871 0 256.0001 c 0
 0 362.0391 85.9609 448.0001 192 448.0001 c 0
 298.0391 448.0001 384 362.0392 384 256.0001 c 0
 384 178.587 357.0303 156.9689 211.732 -53.6699 c 0
 202.19684 -67.4443 181.8013 -67.4433 172.2672 -53.6699 c 1
 172.268 -53.6699 l 1
EndSplineSet
Validated: 545
EndChar

StartChar: adjust
Encoding: 56 61506 54
Width: 512
LayerCount: 2
Fore
SplineSet
8 192 m 0
 8 328.967 119.034 440 256 440 c 0
 392.966 440 504 328.966 504 192 c 0
 504 55.034 392.967 -56 256 -56 c 0
 119.033 -56 8 55.034 8 192 c 0
256 8 m 1
 357.689 8 440 90.2949 440 192 c 0
 440 293.689 357.7051 376 256 376 c 1
 256 8 l 1
EndSplineSet
Validated: 1
EndChar

StartChar: tint
Encoding: 57 61507 55
Width: 352
Flags: W
LayerCount: 2
Fore
SplineSet
205.22 425.91 m 1
 252.2102 267.43 352 225.84 352 114.09 c 0
 352 15.6505 273.2803 -64 176 -64 c 0
 78.7197 -64 0 15.6504 0 114.09 c 0
 0 225.28 100.01 268.151 146.78 425.91 c 0
 155.78 456.0301 197.28 454.6903 205.2195 425.91 c 1
 205.22 425.91 l 1
176 0 m 0
 184.83984 0 192 7.16016 192 16 c 0
 192 24.83984 184.83984 32 176 32 c 0
 131.8896 32 96 67.8896 96 112 c 0
 96 120.83984 88.83984 128 80 128 c 0
 71.16016 128 64 120.83984 64 112 c 0
 64 50.25 114.25 0 176 0 c 0
EndSplineSet
Validated: 33
EndChar

StartChar: edit
Encoding: 58 61508 56
Width: 576
Flags: W
LayerCount: 2
Fore
SplineSet
402.6 364.8 m 2
 492.8002 274.5998 l 2
 496.6 270.8 496.6 264.5998 492.8002 260.8 c 2
 274.4012 42.401 l 1
 181.6004 32.1002 l 2
 169.201 30.70079 158.701 41.20079 160.1004 53.6002 c 2
 170.4012 146.401 l 1
 388.8002 364.8 l 2
 392.6 368.5998 398.8002 368.5998 402.6 364.8 c 2
564.6 387.7 m 2
 579.8002 372.4998 579.8002 347.7996 564.6 332.4998 c 2
 529.2006 297.0994 l 2
 525.4008 293.2996 519.2006 293.2996 515.4008 297.0994 c 2
 425.2006 387.2996 l 2
 421.4008 391.0994 421.4008 397.2996 425.2006 401.0994 c 2
 460.6 436.4998 l 2
 475.9008 451.7 500.6 451.7 515.8002 436.4998 c 2
 564.6 387.7 l 2
384 101.8 m 2
 384 105.0002 385.2998 108.0002 387.5 110.3 c 2
 427.5 150.3 l 2
 435.09961 157.8 448 152.5002 448 141.8 c 2
 448 -16 l 2
 448 -42.5 426.5 -64 400 -64 c 2
 48 -64 l 2
 21.5 -64 0 -42.5 0 -16 c 2
 0 336 l 2
 0 362.5 21.5 384 48 384 c 2
 333.8 384 l 2
 344.5002 384 349.9006 371.0996 342.3 363.5 c 2
 302.3 323.5 l 2
 300.0002 321.2998 297.0002 320 293.8 320 c 2
 64 320 l 1
 64 0 l 1
 384 0 l 1
 384 101.8 l 2
EndSplineSet
Validated: 33
EndChar

StartChar: arrows
Encoding: 59 61511 57
Width: 512
LayerCount: 2
Fore
SplineSet
352.634 19.3789 m 2
 278.6272 -54.6279 l 2
 266.1301 -67.125 245.8694 -67.125 233.3723 -54.6279 c 2
 159.3655 19.3789 l 2
 149.99245 28.75195 149.99245 43.9482 159.3655 53.3203 c 2
 170.2053 64.1601 l 2
 179.76096 73.71576 195.3186 73.50092 204.6076 63.685491 c 2
 228.0002 37.634691 l 1
 228.0002 163.999691 l 1
 101.6352 163.999691 l 1
 127.686 140.608091 l 2
 137.50143 131.319031 137.7163 115.761391 128.160609 106.205791 c 2
 117.320809 95.365991 l 2
 107.947759 85.992941 92.751509 85.992941 83.379409 95.365991 c 2
 9.373509 169.372791 l 2
 -3.123591 181.869891 -3.123591 202.130591 9.373509 214.627691 c 2
 83.380309 288.634491 l 2
 92.753359 298.007541 107.949609 298.007541 117.321709 288.634491 c 2
 128.161509 277.794691 l 2
 137.717169 268.239031 137.502329 252.680391 127.6869 243.392391 c 2
 101.6351 219.999791 l 1
 228.0001 219.999791 l 1
 228.0001 346.364791 l 1
 204.6085 320.313991 l 2
 195.31944 310.498561 179.7618 310.283691 170.2062 319.839382 c 2
 159.3664 330.679182 l 2
 149.99335 340.052232 149.99335 355.248482 159.3664 364.620582 c 2
 233.3732 438.627382 l 2
 245.8703 451.124482 266.131 451.124482 278.6281 438.627382 c 2
 352.6349 364.620582 l 2
 362.00795 355.247532 362.00795 340.051282 352.6349 330.679182 c 2
 341.7951 319.839382 l 2
 332.23944 310.283722 316.6818 310.498562 307.3928 320.313991 c 2
 284.0002 346.364791 l 1
 284.0002 219.999791 l 1
 410.3652 219.999791 l 1
 384.3144 243.391391 l 2
 374.49897 252.680451 374.2841 268.238091 383.839791 277.793691 c 2
 394.679591 288.633491 l 2
 404.052641 298.006541 419.248891 298.006541 428.620991 288.633491 c 2
 502.627791 214.626691 l 2
 515.124891 202.129591 515.124891 181.868891 502.627791 169.371791 c 2
 428.620991 95.364991 l 2
 419.247941 85.991941 404.051691 85.991941 394.679591 95.364991 c 2
 383.839791 106.204791 l 2
 374.284131 115.760451 374.498971 131.318091 384.3144 140.607091 c 2
 410.3652 163.999691 l 1
 284.0002 163.999691 l 1
 284.0002 37.634691 l 1
 307.3918 63.685491 l 2
 316.68086 73.500921 332.2385 73.715791 341.7941 64.1601 c 2
 352.6339 53.3203 l 2
 362.00695 43.94823 362.00695 28.7519 352.634 19.3789 c 2
EndSplineSet
Validated: 33
EndChar

StartChar: step-backward
Encoding: 60 61512 58
Width: 448
Flags: W
LayerCount: 2
Fore
SplineSet
64 -20 m 1
 64 404 l 2
 64 410.59961 69.40039 416 76 416 c 2
 124 416 l 2
 130.59961 416 136 410.59961 136 404 c 2
 136 227.6 l 1
 331.5 408.6 l 2
 352.0996 425.7006 384 411.40078 384 384.0004 c 2
 384 0.000400000000013 l 2
 384 -27.4 352.0996 -41.6998 331.5 -24.5992 c 2
 136 155.2998 l 1
 136 -20.0002 l 2
 136 -26.59981 130.59961 -32.0002 124 -32.0002 c 2
 76 -32.0002 l 2
 69.40039 -32.0002 64 -26.59981 64 -20.0002 c 2
 64 -20 l 1
EndSplineSet
Validated: 545
EndChar

StartChar: fast-backward
Encoding: 61 61513 59
Width: 512
LayerCount: 2
Fore
SplineSet
0 12 m 1
 0 372 l 2
 0 378.59961 5.40039 384 12 384 c 2
 52 384 l 2
 58.59961 384 64 378.59961 64 372 c 2
 64 220.1 l 1
 235.5 376.6 l 2
 256.0996 393.7006 288 379.40078 288 352.0004 c 2
 288 220.1004 l 1
 459.5 376.6004 l 2
 480.0996 393.701 512 379.40118 512 352.0008 c 2
 512 32.0008 l 2
 512 4.6004 480.0996 -9.6994 459.5 7.4012 c 2
 288 162.7012 l 1
 288 32.0012 l 2
 288 4.6008 256.0996 -9.699 235.5 7.4016 c 2
 64 162.7016 l 1
 64 12.0016 l 2
 64 5.40199 58.59961 0.00160000000005 52 0.00160000000005 c 2
 12 0.00160000000005 l 2
 5.40039 0.00160000000005 0 5.40199 0 12.0016 c 2
 0 12 l 1
EndSplineSet
Validated: 549
EndChar

StartChar: backward
Encoding: 62 61514 60
Width: 512
LayerCount: 2
Fore
SplineSet
11.5 167.4 m 2
 -3.7998 180.1998 -3.7998 203.7994 11.5 216.5992 c 2
 203.5 376.5992 l 2
 224.0996 393.7994 256 379.39998 256 351.9996 c 2
 256 31.9996 l 2
 256 4.5992 224.0996 -9.8002 203.5 7.4 c 2
 11.5 167.4 l 2
267.5 167.4 m 2
 252.2002 180.1998 252.2002 203.7994 267.5 216.5992 c 2
 459.5 376.5992 l 2
 480.0996 393.7994 512 379.39998 512 351.9996 c 2
 512 31.9996 l 2
 512 4.5992 480.0996 -9.8002 459.5 7.4 c 2
 267.5 167.4 l 2
EndSplineSet
Validated: 33
EndChar

StartChar: play
Encoding: 63 61515 61
Width: 448
Flags: W
LayerCount: 2
Fore
SplineSet
424.4 233.3 m 2
 455.9 214.8 455.7994 169.2004 424.4 150.7004 c 2
 72.4 -57.2996 l 2
 40.6998 -76.0994 -0.000400000000027 -53.4998 -0.000400000000027 -15.9998 c 2
 -0.000400000000027 400.1002 l 2
 -0.000400000000027 441.901 43.7994 458.3004 72.4 441.401 c 2
 424.4 233.3 l 2
EndSplineSet
Validated: 33
EndChar

StartChar: pause
Encoding: 64 61516 62
Width: 448
Flags: W
LayerCount: 2
Fore
SplineSet
144 -31 m 2
 48 -31 l 2
 21.5 -31 0 -9.5 0 17 c 2
 0 369 l 2
 0 395.5 21.5 417 48 417 c 2
 144 417 l 2
 170.5 417 192 395.5 192 369 c 2
 192 17 l 2
 192 -9.5 170.5 -31 144 -31 c 2
448 17 m 2
 448 -9.5 426.5 -31 400 -31 c 2
 304 -31 l 2
 277.5 -31 256 -9.5 256 17 c 2
 256 369 l 2
 256 395.5 277.5 417 304 417 c 2
 400 417 l 2
 426.5 417 448 395.5 448 369 c 2
 448 17 l 2
EndSplineSet
Validated: 1
EndChar

StartChar: stop
Encoding: 65 61517 63
Width: 448
Flags: W
LayerCount: 2
Fore
SplineSet
400 416 m 2
 426.5 416 448 394.5 448 368 c 2
 448 16 l 2
 448 -10.5 426.5 -32 400 -32 c 2
 48 -32 l 2
 21.5 -32 0 -10.5 0 16 c 2
 0 368 l 2
 0 394.5 21.5 416 48 416 c 2
 400 416 l 2
EndSplineSet
Validated: 1
EndChar

StartChar: forward
Encoding: 66 61518 64
Width: 512
LayerCount: 2
Fore
SplineSet
500.5 216.6 m 2
 515.7998 203.8002 515.7998 180.2006 500.5 167.4008 c 2
 308.5 7.4008 l 2
 287.9004 -9.7994 256 4.60002 256 32.0004 c 2
 256 352.0004 l 2
 256 379.4008 287.9004 393.7006 308.5 376.6 c 2
 500.5 216.6 l 2
244.5 216.6 m 2
 259.7998 203.8002 259.7998 180.2006 244.5 167.4008 c 2
 52.5 7.4008 l 2
 31.9004 -9.7994 0 4.60002 0 32.0004 c 2
 0 352.0004 l 2
 0 379.4008 31.9004 393.7006 52.5 376.6 c 2
 244.5 216.6 l 2
EndSplineSet
Validated: 33
EndChar

StartChar: fast-forward
Encoding: 67 61520 65
Width: 512
LayerCount: 2
Fore
SplineSet
512 372 m 1
 512 12 l 2
 512 5.40039 506.59961 0 500 0 c 2
 460 0 l 2
 453.40039 0 448 5.40039 448 12 c 2
 448 163.9 l 1
 276.5 7.4 l 2
 255.9004 -9.8002 224 4.59922 224 31.9996 c 2
 224 163.8996 l 1
 52.5 7.3996 l 2
 31.9004 -9.8006 0 4.59882 0 31.9992 c 2
 0 351.9992 l 2
 0 379.3996 31.9004 393.6994 52.5 376.5988 c 2
 224 221.1998 l 1
 224 351.9998 l 2
 224 379.4002 255.9004 393.7 276.5 376.5994 c 2
 448 221.2004 l 1
 448 372.0004 l 2
 448 378.60001 453.40039 384.0004 460 384.0004 c 2
 500 384.0004 l 2
 506.59961 384.0004 512 378.60001 512 372.0004 c 2
 512 372 l 1
EndSplineSet
Validated: 545
EndChar

StartChar: step-forward
Encoding: 68 61521 66
Width: 448
Flags: W
LayerCount: 2
Fore
SplineSet
384 404 m 2
 384 -20 l 2
 384 -26.59961 378.59961 -32 372 -32 c 2
 324 -32 l 2
 317.40039 -32 312 -26.59961 312 -20 c 2
 312 156.4 l 1
 116.5 -24.6 l 2
 95.9004 -41.7006 64 -27.40078 64 -0.000399999999996 c 2
 64 383.9996 l 2
 64 411.4 95.9004 425.6998 116.5 408.5992 c 2
 312 228.7002 l 1
 312 404.0002 l 2
 312 410.59981 317.40039 416.0002 324 416.0002 c 2
 372 416.0002 l 2
 378.59961 416.0002 384 410.59981 384 404 c 2
EndSplineSet
Validated: 545
EndChar

StartChar: eject
Encoding: 69 61522 67
Width: 448
Flags: W
LayerCount: 2
Fore
SplineSet
448 64 m 2
 448 0 l 2
 448 -17.6729 433.6729 -32 416 -32 c 2
 32 -32 l 2
 14.3271 -32 0 -17.6729 0 0 c 2
 0 64 l 2
 0 81.6729 14.3271 96 32 96 c 2
 416 96 l 2
 433.6729 96 448 81.6729 448 64 c 2
48.0527 128 m 2
 6.3242 128 -15.4746 177.7324 12.6699 208.4346 c 2
 188.6159 400.4426 l 2
 207.6315 421.1858 240.3688 421.1848 259.3825 400.4426 c 2
 435.3215 208.4346 l 2
 463.5188 177.6739 441.58908 128 399.9387 128 c 2
 48.0517 128 l 1
 48.0527 128 l 2
EndSplineSet
Validated: 33
EndChar

StartChar: chevron-left
Encoding: 70 61523 68
Width: 320
Flags: W
LayerCount: 2
Fore
SplineSet
34.5195 208.97 m 1
 228.8705 403.31 l 2
 238.24062 412.68012 253.4408 412.68012 262.81 403.31 c 2
 285.4809 380.6401 l 2
 294.84028 371.28072 294.85004 356.1206 285.5199625 346.7407 c 2
 131.4909625 192.0007 l 1
 285.5109625 37.2507 l 2
 294.8508025 27.87082 294.8312725 12.7107 285.4709234 3.3503 c 2
 262.8010234 -19.3196 l 2
 253.4309034 -28.68972 238.2317234 -28.68972 228.8615234 -19.3196 c 2
 34.5205234 175.0314 l 2
 25.1513834 184.40152 25.1513834 199.6007 34.5205234 208.9709 c 2
 34.5195 208.97 l 1
EndSplineSet
Validated: 545
EndChar

StartChar: chevron-right
Encoding: 71 61524 69
Width: 320
Flags: W
LayerCount: 2
Fore
SplineSet
285.476 175.029 m 1
 91.132 -19.315 l 2
 81.75895 -28.68707 66.5636 -28.68707 57.1916 -19.315 c 2
 34.5246 3.352 l 2
 25.16718 12.70942 25.1496 27.8745 34.4845609 37.2534 c 2
 188.5055609 191.9994 l 1
 34.4845609 346.7444 l 2
 25.1496009 356.12331 25.1671809 371.2883 34.5246 380.6458 c 2
 57.1916 403.3128 l 2
 66.56465 412.68487 81.76 412.68487 91.132 403.3128 c 2
 285.475 208.9688 l 2
 294.84805 199.59673 294.84805 184.4014 285.475976562 175.0284 c 1
 285.476 175.029 l 1
EndSplineSet
Validated: 545
EndChar

StartChar: plus-circle
Encoding: 72 61525 70
Width: 512
LayerCount: 2
Fore
SplineSet
256 440 m 0
 393 440 504 329 504 192 c 0
 504 55 393 -56 256 -56 c 0
 119 -56 8 55 8 192 c 0
 8 329 119 440 256 440 c 0
400 164 m 2
 400 220 l 2
 400 226.59961 394.59961 232 388 232 c 2
 296 232 l 1
 296 324 l 2
 296 330.59961 290.59961 336 284 336 c 2
 228 336 l 2
 221.40039 336 216 330.59961 216 324 c 2
 216 232 l 1
 124 232 l 2
 117.40039 232 112 226.59961 112 220 c 2
 112 164 l 2
 112 157.40039 117.40039 152 124 152 c 2
 216 152 l 1
 216 60 l 2
 216 53.40039 221.40039 48 228 48 c 2
 284 48 l 2
 290.59961 48 296 53.40039 296 60 c 2
 296 152 l 1
 388 152 l 2
 394.59961 152 400 157.40039 400 164 c 2
EndSplineSet
Validated: 513
EndChar

StartChar: minus-circle
Encoding: 73 61526 71
Width: 512
LayerCount: 2
Fore
SplineSet
256 440 m 0
 393 440 504 329 504 192 c 0
 504 55 393 -56 256 -56 c 0
 119 -56 8 55 8 192 c 0
 8 329 119 440 256 440 c 0
124 152 m 2
 388 152 l 2
 394.59961 152 400 157.40039 400 164 c 2
 400 220 l 2
 400 226.59961 394.59961 232 388 232 c 2
 124 232 l 2
 117.40039 232 112 226.59961 112 220 c 2
 112 164 l 2
 112 157.40039 117.40039 152 124 152 c 2
EndSplineSet
Validated: 513
EndChar

StartChar: times-circle
Encoding: 74 61527 72
Width: 512
LayerCount: 2
Fore
SplineSet
256 440 m 0
 393 440 504 329 504 192 c 0
 504 55 393 -56 256 -56 c 0
 119 -56 8 55 8 192 c 0
 8 329 119 440 256 440 c 0
377.6 126.9 m 2
 312.0004 191.9996 l 1
 377.7006 256.9996 l 2
 382.4008 261.6998 382.4008 269.2994 377.7006 273.9996 c 2
 338.1 313.5992 l 2
 333.40078 318.2994 325.8002 318.2994 321.1 313.5992 c 2
 256.0004 247.9996 l 1
 191.0004 313.6998 l 2
 186.3002 318.4 178.7006 318.4 174.0004 313.6998 c 2
 134.4008 274.0992 l 2
 129.7006 269.39998 129.7006 261.7994 134.4008 257.0992 c 2
 200.0004 191.9996 l 1
 134.4008 126.9996 l 2
 129.7006 122.2994 129.7006 114.6998 134.4008 109.9996 c 2
 173.9008 70.4 l 2
 178.60002 65.6998 186.2006 65.6998 190.9008 70.4 c 2
 256.0004 135.9996 l 1
 321.0004 70.4 l 2
 325.7006 65.6998 333.3002 65.6998 338.0004 70.4 c 2
 377.6 109.9 l 2
 382.3002 114.59922 382.3002 122.1998 377.6 126.9 c 2
EndSplineSet
Validated: 545
EndChar

StartChar: check-circle
Encoding: 75 61528 73
Width: 512
LayerCount: 2
Fore
SplineSet
504 192 m 0
 504 55.033 392.967 -56 256 -56 c 0
 119.033 -56 8 55.033 8 192 c 0
 8 328.967 119.033 440 256 440 c 0
 392.967 440 504 328.967 504 192 c 0
227.314 60.6855 m 1
 411.314 244.6855 l 2
 417.56107 250.93355 417.56107 261.0654 411.314 267.3134 c 2
 388.6861 289.9404 l 2
 382.43903 296.18942 372.3072 296.18942 366.0582 289.9404 c 2
 215.9992 139.8814 l 1
 145.9406 209.941 l 2
 139.69255 216.18905 129.5607 216.18905 123.3127 209.941 c 2
 100.6848 187.314 l 2
 94.43773 181.06595 94.43773 170.9341 100.6848 164.6861 c 2
 204.6848 60.6861 l 2
 210.93382 54.43805 221.0647 54.43805 227.3137 60.685123438 c 2
 227.314 60.6855 l 1
EndSplineSet
Validated: 545
EndChar

StartChar: question-circle
Encoding: 76 61529 74
Width: 512
LayerCount: 2
Fore
SplineSet
504 192 m 0
 504 55.003 392.957 -56 256 -56 c 0
 119.043 -56 8 55.003 8 192 c 0
 8 328.917 119.043 440 256 440 c 0
 392.957 440 504 328.917 504 192 c 0
262.655 358 m 0
 208.1579 358 173.4001 335.043 146.106 294.2422 c 0
 142.56987 288.95607 143.75248 281.8272 148.82084 277.9844 c 2
 183.51904 251.6739 l 2
 188.72412 247.72663 196.14014 248.66609 200.18404 253.79597 c 0
 218.04834 276.45417 230.29734 289.59287 257.48774 289.59287 c 0
 277.91644 289.59287 303.18504 276.44537 303.18504 256.63487 c 0
 303.18504 241.65927 290.82274 233.96787 270.65184 222.65927 c 0
 247.12744 209.47177 215.99954 193.05867 215.99954 152.00007 c 2
 215.99954 148.00007 l 2
 215.99954 141.37312 221.37259 136.00007 227.99954 136.00007 c 2
 283.99954 136.00007 l 2
 290.62649 136.00007 295.99954 141.37312 295.99954 148.00007 c 2
 295.99954 149.33308 l 2
 295.99954 177.79498 379.18504 178.98058 379.18504 256.00008 c 0
 379.18504 314.00208 319.02094 358.00008 262.655 358 c 0
256 110 m 0
 230.6348 110 210 89.3652 210 64 c 0
 210 38.6357 230.6348 18 256 18 c 0
 281.3652 18 302 38.6357 302 64 c 0
 302 89.3652 281.3652 110 256 110 c 0
EndSplineSet
Validated: 545
EndChar

StartChar: info-circle
Encoding: 77 61530 75
Width: 512
LayerCount: 2
Fore
SplineSet
256 440 m 0
 392.957 440 504 328.917 504 192 c 0
 504 55.003 392.957 -56 256 -56 c 0
 119.043 -56 8 55.003 8 192 c 0
 8 328.917 119.043 440 256 440 c 0
256 330 m 0
 232.8037 330 214 311.1963 214 288 c 0
 214 264.8037 232.8037 246 256 246 c 0
 279.1963 246 298 264.8037 298 288 c 0
 298 311.1963 279.1963 330 256 330 c 0
312 76 m 2
 312 100 l 2
 312 106.62695 306.62695 112 300 112 c 2
 288 112 l 1
 288 212 l 2
 288 218.62695 282.62695 224 276 224 c 2
 212 224 l 2
 205.37305 224 200 218.62695 200 212 c 2
 200 188 l 2
 200 181.37305 205.37305 176 212 176 c 2
 224 176 l 1
 224 112 l 1
 212 112 l 2
 205.37305 112 200 106.62695 200 100 c 2
 200 76 l 2
 200 69.37305 205.37305 64 212 64 c 2
 300 64 l 2
 306.62695 64 312 69.37305 312 76 c 2
EndSplineSet
Validated: 513
EndChar

StartChar: crosshairs
Encoding: 78 61531 76
Width: 512
LayerCount: 2
Fore
SplineSet
500 224 m 0
 506.62695 224 512 218.62695 512 212 c 2
 512 172 l 2
 512 165.37305 506.62695 160 500 160 c 2
 469.6357 160 l 1
 455.7236 66.3252 381.6748 -7.724 287.9997 -21.636 c 1
 287.9997 -52.0003 l 2
 287.9997 -58.62725 282.62665 -64.0003 275.9997 -64.0003 c 2
 235.9997 -64.0003 l 2
 229.37275 -64.0003 223.9997 -58.62725 223.9997 -52.0003 c 2
 223.9997 -21.636 l 1
 130.3249 -7.7239 56.2757 66.3249 42.3637 160 c 1
 11.9994 160 l 2
 5.37245 160 -0.000600000000034 165.37305 -0.000600000000034 172 c 2
 -0.000600000000034 212 l 2
 -0.000600000000034 218.62695 5.37245 224 11.9994 224 c 2
 42.3637 224 l 1
 56.2758 317.6748 130.3246 391.724 223.9997 405.636 c 1
 223.9997 436.0003 l 2
 223.9997 442.62725 229.37275 448.0003 235.9997 448.0003 c 2
 275.9997 448.0003 l 2
 282.62665 448.0003 287.9997 442.62725 287.9997 436.0003 c 2
 287.9997 405.636 l 1
 381.6745 391.7239 455.7237 317.6751 469.6357 224 c 1
 500 224 l 0
288 43.3662 m 1
 346.2432 55.7832 392.232 101.8262 404.634 160.0002 c 1
 364.0002 160.0002 l 2
 357.37325 160.0002 352.0002 165.37325 352.0002 172.0002 c 2
 352.0002 212.0002 l 2
 352.0002 218.62715 357.37325 224.0002 364.0002 224.0002 c 2
 404.634 224.0002 l 1
 392.217 282.2434 346.174 328.2322 288 340.6342 c 1
 288 300.0004 l 2
 288 293.37345 282.62695 288.0004 276 288.0004 c 2
 236 288.0004 l 2
 229.37305 288.0004 224 293.37345 224 300.0004 c 2
 224 340.6342 l 1
 165.7568 328.2172 119.768 282.1742 107.366 224.0002 c 1
 147.9998 224.0002 l 2
 154.62675 224.0002 159.9998 218.62715 159.9998 212.0002 c 2
 159.9998 172.0002 l 2
 159.9998 165.37325 154.62675 160.0002 147.9998 160.0002 c 2
 107.366 160.0002 l 1
 119.783 101.757 165.826 55.7682 224 43.3662 c 1
 224 84 l 2
 224 90.62695 229.37305 96 236 96 c 2
 276 96 l 2
 282.62695 96 288 90.62695 288 84 c 2
 288 43.3662 l 1
288 192 m 0
 288 174.3271 273.6729 160 256 160 c 0
 238.3271 160 224 174.3271 224 192 c 0
 224 209.6729 238.3271 224 256 224 c 0
 273.6729 224 288 209.6729 288 192 c 0
EndSplineSet
Validated: 1
EndChar

StartChar: ban
Encoding: 79 61534 77
Width: 512
LayerCount: 2
Fore
SplineSet
256 440 m 0
 392.967 440 504 328.966 504 192 c 0
 504 55.034 392.966 -56 256 -56 c 0
 119.034 -56 8 55.033 8 192 c 0
 8 328.967 119.034 440 256 440 c 0
386.108 322.108 m 2
 320.6959 387.5182 220.673 392.1392 150.469 342.7838 c 1
 406.784 86.4708 l 1
 456.1072 156.627 451.5545 256.6598 386.1072 322.1088 c 2
 386.108 322.108 l 2
125.892 61.8916 m 2
 191.3041 -3.5195 291.328 -8.1396 361.531 41.2158 c 1
 105.216 297.5288 l 1
 55.8928 227.3726 60.4455 127.3398 125.8928 61.8908 c 2
 125.892 61.8916 l 2
EndSplineSet
Validated: 37
EndChar

StartChar: arrow-left
Encoding: 80 61536 78
Width: 448
Flags: W
LayerCount: 2
Fore
SplineSet
257.5 2.90039 m 1
 235.2998 -19.29981 l 2
 225.90039 -28.7002 210.7002 -28.7002 201.4004 -19.29981 c 2
 7.0004 175.00019 l 2
 -2.39999 184.40058 -2.39999 199.59979 7.0004 208.90059 c 2
 201.4004 403.29959 l 2
 210.79981 412.69998 226 412.69998 235.2998 403.29959 c 2
 257.5 381.09939 l 2
 267 371.59939 266.7998 356.09939 257.099609 346.79959 c 2
 136.599609 231.99959 l 1
 423.999609 231.99959 l 2
 437.299409 231.99959 447.999609 221.29939 447.999609 207.99959 c 2
 447.999609 175.99959 l 2
 447.999609 162.69979 437.299409 151.99959 423.999609 151.99959 c 2
 136.599609 151.99959 l 1
 257.099609 37.19959 l 2
 266.900389 27.89979 267.099609 12.39979 257.5 2.89979 c 1
 257.5 2.90039 l 1
EndSplineSet
Validated: 545
EndChar

StartChar: arrow-right
Encoding: 81 61537 79
Width: 448
Flags: W
LayerCount: 2
Fore
SplineSet
190.5 381.1 m 1
 212.7002 403.3002 l 2
 222.09961 412.70059 237.2998 412.70059 246.5996 403.3002 c 2
 440.9996 209.0002 l 2
 450.39999 199.59981 450.39999 184.4006 440.9996 175.0998 c 2
 246.5996 -19.2992 l 2
 237.20019 -28.69959 222 -28.69959 212.7002 -19.2992 c 2
 190.5 2.901 l 2
 181 12.401 181.2002 27.901 190.900391 37.2008 c 2
 311.400391 152.0008 l 1
 24.000391 152.0008 l 2
 10.700591 152.0008 0.000391000000036 162.701 0.000391000000036 176.0008 c 2
 0.000391000000036 208.0008 l 2
 0.000391000000036 221.3006 10.700591 232.0008 24.000391 232.0008 c 2
 311.400391 232.0008 l 1
 190.900391 346.8008 l 2
 181.099611 356.1006 180.900391 371.6006 190.5 381.1006 c 1
 190.5 381.1 l 1
EndSplineSet
Validated: 545
EndChar

StartChar: arrow-up
Encoding: 82 61538 80
Width: 448
Flags: W
LayerCount: 2
Fore
SplineSet
34.9004 158.5 m 1
 12.7002 180.7002 l 2
 3.29981 190.09961 3.29981 205.2998 12.7002 214.5996 c 2
 207.0002 408.9996 l 2
 216.40059 418.39999 231.5998 418.39999 240.9006 408.9996 c 2
 435.2006 214.6996 l 2
 444.60001 205.29921 444.60001 190.099 435.2006 180.7992 c 2
 413.0004 158.599 l 2
 403.5004 149.099 388.0004 149.2992 378.7006 158.999391 c 2
 264.0006 279.399391 l 1
 264.0006 -8.000609 l 2
 264.0006 -21.300409 253.3004 -32.000609 240.0006 -32.000609 c 2
 208.0006 -32.000609 l 2
 194.7008 -32.000609 184.0006 -21.300409 184.0006 -8.000609 c 2
 184.0006 279.399391 l 1
 69.2006 158.899391 l 2
 59.9008 149.098611 44.4008 148.899391 34.9008 158.499 c 1
 34.9004 158.5 l 1
EndSplineSet
Validated: 545
EndChar

StartChar: arrow-down
Encoding: 83 61539 81
Width: 448
Flags: W
LayerCount: 2
Fore
SplineSet
413.1 225.5 m 1
 435.3002 203.2998 l 2
 444.70059 193.90039 444.70059 178.7002 435.3002 169.4004 c 2
 241.0002 -24.9996 l 2
 231.59981 -34.39999 216.4006 -34.39999 207.0998 -24.9996 c 2
 12.7008 169.4004 l 2
 3.30041 178.79981 3.30041 194 12.7008 203.2998 c 2
 34.901 225.5 l 2
 44.401 235 59.901 234.7998 69.2008 225.099609 c 2
 184.0008 104.599609 l 1
 184.0008 391.999609 l 2
 184.0008 405.299409 194.701 415.999609 208.0008 415.999609 c 2
 240.0008 415.999609 l 2
 253.3006 415.999609 264.0008 405.299409 264.0008 391.999609 c 2
 264.0008 104.599609 l 1
 378.8008 225.099609 l 2
 388.1006 234.900389 403.6006 235.099609 413.1006 225.5 c 1
 413.1 225.5 l 1
EndSplineSet
Validated: 545
EndChar

StartChar: share
Encoding: 84 61540 82
Width: 512
LayerCount: 2
Fore
SplineSet
503.691 258.164 m 2
 514.7769 248.5888 514.7613 231.3984 503.691 221.8359 c 2
 327.686 69.8359 l 2
 312.2993 56.5468 287.9995 67.29977 287.9995 88 c 2
 287.9995 175.915 l 1
 132.9165 173.68355 66.0655 135.1855 111.4095 -9.827 c 0
 116.44368 -25.9247 96.9857 -38.3885 83.3324 -28.4579 c 0
 39.5804 3.3653 -0.000600000000048 64.2335 -0.000600000000048 125.6741 c 0
 -0.000600000000048 277.9011 127.3704 310.0931 287.9994 311.9321 c 1
 287.9994 391.9858 l 2
 287.9994 412.6538 312.2806 423.4546 327.6859 410.1499 c 2
 503.691 258.164 l 2
EndSplineSet
Validated: 33
EndChar

StartChar: expand
Encoding: 85 61541 83
Width: 448
Flags: W
LayerCount: 2
Fore
SplineSet
0 268 m 2
 0 392 l 2
 0 405.2998 10.7002 416 24 416 c 2
 148 416 l 2
 154.59961 416 160 410.59961 160 404 c 2
 160 364 l 2
 160 357.40039 154.59961 352 148 352 c 2
 64 352 l 1
 64 268 l 2
 64 261.40039 58.59961 256 52 256 c 2
 12 256 l 2
 5.40039 256 0 261.40039 0 268 c 2
288 404 m 2
 288 410.59961 293.40039 416 300 416 c 2
 424 416 l 2
 437.2998 416 448 405.2998 448 392 c 2
 448 268 l 2
 448 261.40039 442.59961 256 436 256 c 2
 396 256 l 2
 389.40039 256 384 261.40039 384 268 c 2
 384 352 l 1
 300 352 l 2
 293.40039 352 288 357.40039 288 364 c 2
 288 404 l 2
436 128 m 2
 442.59961 128 448 122.59961 448 116 c 2
 448 -8 l 2
 448 -21.2998 437.2998 -32 424 -32 c 2
 300 -32 l 2
 293.40039 -32 288 -26.59961 288 -20 c 2
 288 20 l 2
 288 26.59961 293.40039 32 300 32 c 2
 384 32 l 1
 384 116 l 2
 384 122.59961 389.40039 128 396 128 c 2
 436 128 l 2
160 -20 m 2
 160 -26.59961 154.59961 -32 148 -32 c 2
 24 -32 l 2
 10.7002 -32 0 -21.2998 0 -8 c 2
 0 116 l 2
 0 122.59961 5.40039 128 12 128 c 2
 52 128 l 2
 58.59961 128 64 122.59961 64 116 c 2
 64 32 l 1
 148 32 l 2
 154.59961 32 160 26.59961 160 20 c 2
 160 -20 l 2
EndSplineSet
Validated: 1
EndChar

StartChar: compress
Encoding: 86 61542 84
Width: 448
Flags: W
LayerCount: 2
Fore
SplineSet
436 256 m 2
 312 256 l 2
 298.7002 256 288 266.7002 288 280 c 2
 288 404 l 2
 288 410.59961 293.40039 416 300 416 c 2
 340 416 l 2
 346.59961 416 352 410.59961 352 404 c 2
 352 320 l 1
 436 320 l 2
 442.59961 320 448 314.59961 448 308 c 2
 448 268 l 2
 448 261.40039 442.59961 256 436 256 c 2
160 280 m 2
 160 266.7002 149.2998 256 136 256 c 2
 12 256 l 2
 5.40039 256 0 261.40039 0 268 c 2
 0 308 l 2
 0 314.59961 5.40039 320 12 320 c 2
 96 320 l 1
 96 404 l 2
 96 410.59961 101.40039 416 108 416 c 2
 148 416 l 2
 154.59961 416 160 410.59961 160 404 c 2
 160 280 l 2
160 -20 m 2
 160 -26.59961 154.59961 -32 148 -32 c 2
 108 -32 l 2
 101.40039 -32 96 -26.59961 96 -20 c 2
 96 64 l 1
 12 64 l 2
 5.40039 64 0 69.40039 0 76 c 2
 0 116 l 2
 0 122.59961 5.40039 128 12 128 c 2
 136 128 l 2
 149.2998 128 160 117.2998 160 104 c 2
 160 -20 l 2
352 -20 m 2
 352 -26.59961 346.59961 -32 340 -32 c 2
 300 -32 l 2
 293.40039 -32 288 -26.59961 288 -20 c 2
 288 104 l 2
 288 117.2998 298.7002 128 312 128 c 2
 436 128 l 2
 442.59961 128 448 122.59961 448 116 c 2
 448 76 l 2
 448 69.40039 442.59961 64 436 64 c 2
 352 64 l 1
 352 -20 l 2
EndSplineSet
Validated: 1
EndChar

StartChar: plus
Encoding: 87 61543 85
Width: 448
Flags: W
LayerCount: 2
Fore
SplineSet
416 240 m 2
 433.6699 240 448 225.6699 448 208 c 2
 448 176 l 2
 448 158.3301 433.6699 144 416 144 c 2
 272 144 l 1
 272 0 l 2
 272 -17.6699 257.6699 -32 240 -32 c 2
 208 -32 l 2
 190.3301 -32 176 -17.6699 176 0 c 2
 176 144 l 1
 32 144 l 2
 14.3301 144 0 158.3301 0 176 c 2
 0 208 l 2
 0 225.6699 14.3301 240 32 240 c 2
 176 240 l 1
 176 384 l 2
 176 401.6699 190.3301 416 208 416 c 2
 240 416 l 2
 257.6699 416 272 401.6699 272 384 c 2
 272 240 l 1
 416 240 l 2
EndSplineSet
Validated: 1
EndChar

StartChar: minus
Encoding: 88 61544 86
Width: 448
Flags: W
LayerCount: 2
Fore
SplineSet
416 240 m 2
 433.6699 240 448 225.6699 448 208 c 2
 448 176 l 2
 448 158.3301 433.6699 144 416 144 c 2
 32 144 l 2
 14.3301 144 0 158.3301 0 176 c 2
 0 208 l 2
 0 225.6699 14.3301 240 32 240 c 2
 416 240 l 2
EndSplineSet
Validated: 1
EndChar

StartChar: asterisk
Encoding: 89 61545 87
Width: 512
LayerCount: 2
Fore
SplineSet
478.21 113.907 m 2
 490.0049 107.42946 494.17 92.5242 487.44242 80.8709 c 2
 467.96192 47.1297 l 2
 461.23438 35.4764 446.24122 31.6307 434.73532 38.60724 c 2
 296.00032 122.71764 l 1
 299.47591 -39.48636 l 2
 299.763996 -52.93946 288.93681 -64.00006 275.48181 -64.00006 c 2
 236.51991 -64.00006 l 2
 223.06481 -64.00006 212.23771 -52.93956 212.52581 -39.48636 c 2
 216.00042 122.71764 l 1
 77.26542 38.60634 l 2
 65.75952 31.62978 50.76642 35.47548 44.03882 47.1288 c 2
 24.55832 80.87 l 2
 17.8298 92.5233 21.99582 107.4296 33.79074 113.9071 c 2
 176.00074 191.9999 l 1
 33.79174 270.0917 l 2
 21.99684 276.56924 17.83084 291.4755 24.55834 303.1288 c 2
 44.03884 336.87 l 2
 50.76638 348.5233 65.75954 352.369 77.26544 345.39246 c 2
 216.00044 261.28206 l 1
 212.52681 423.48606 l 2
 212.237748 436.93916 223.06491 447.99976 236.52001 447.99976 c 2
 275.48091 447.99976 l 2
 288.93701 447.99976 299.76311 436.93926 299.47501 423.48606 c 2
 296.0004 261.28206 l 1
 434.7354 345.39336 l 2
 446.2422 352.36992 461.2344 348.52422 467.962 336.8709 c 2
 487.4425 303.1297 l 2
 494.17102 291.4764 490.005 276.5701 478.21008 270.0926 c 2
 336.00008 191.9998 l 1
 478.21 113.907 l 2
EndSplineSet
Validated: 33
EndChar

StartChar: exclamation-circle
Encoding: 90 61546 88
Width: 512
LayerCount: 2
Fore
SplineSet
504 192 m 0
 504 55.003 392.957 -56 256 -56 c 0
 119.043 -56 8 55.003 8 192 c 0
 8 328.917 119.043 440 256 440 c 0
 392.957 440 504 328.917 504 192 c 0
256 142 m 0
 230.5947 142 210 121.4053 210 96 c 0
 210 70.5947 230.5947 50 256 50 c 0
 281.4053 50 302 70.5947 302 96 c 0
 302 121.4053 281.4053 142 256 142 c 0
212.327 307.346 m 2
 219.74497 171.346 l 2
 220.09165 164.98272 225.35337 160.0003 231.72637 160.0003 c 2
 280.27327 160.0003 l 2
 286.64632 160.0003 291.90807 164.98272 292.25467 171.346 c 2
 299.67264 307.346 l 2
 300.04764 314.22002 294.57498 320.0003 287.69124 320.0003 c 2
 224.30744 320.0003 l 2
 217.42365 320.0003 211.95194 314.22003 212.327 307.346 c 2
EndSplineSet
Validated: 545
EndChar

StartChar: gift
Encoding: 91 61547 89
Width: 512
LayerCount: 2
Fore
SplineSet
32 0 m 2
 32 128 l 1
 224 128 l 1
 224 -32 l 1
 64 -32 l 2
 46.2998 -32 32 -17.7002 32 0 c 2
288 -32 m 1
 288 128 l 1
 480 128 l 1
 480 0 l 2
 480 -17.7002 465.7002 -32 448 -32 c 2
 288 -32 l 1
480 288 m 2
 497.7002 288 512 273.7002 512 256 c 2
 512 176 l 2
 512 167.2002 504.7998 160 496 160 c 2
 16 160 l 2
 7.2002 160 0 167.2002 0 176 c 2
 0 256 l 2
 0 273.7002 14.2998 288 32 288 c 2
 76.0996 288 l 1
 69.7998 300.0996 66 313.5 66 328 c 0
 66 376.5 105.5 416 154 416 c 0
 195.5996 416 222.5 394.7002 257 347.7002 c 1
 291.5 394.7002 318.4004 416 360 416 c 0
 408.5 416 448 376.5 448 328 c 0
 448 313.5 444.09961 300.0996 437.9004 288 c 1
 480 288 l 2
153.9 288 m 2
 239.9996 288 l 1
 188.4996 364.7002 173.7994 368 153.9 368 c 0
 131.7994 368 113.9 350.0996 113.9 328 c 0
 113.9 305.9004 131.7994 288 153.9 288 c 2
360 288 m 2
 382.0996 288 400 305.9004 400 328 c 0
 400 350.0996 382.0996 368 360 368 c 0
 339.5996 368 325.2998 364.5 273.9004 288 c 1
 360 288 l 2
EndSplineSet
Validated: 1
EndChar

StartChar: leaf
Encoding: 92 61548 90
Width: 576
Flags: W
LayerCount: 2
Fore
SplineSet
546.2 438.3 m 2
 565.2 395.9006 575.9998 343.9006 575.9998 293.7 c 0
 575.9998 121.3 465.4998 -19.5 308.4998 -30.901 c 0
 227.5994 -39.50061 165.9998 2.3998 133.5998 46.2992 c 1
 82.5998 3.599 63.2004 -40.7008 61.7004 -44.3004 c 0
 54.9006 -60.5006 36.3 -68.401 19.9006 -61.6002 c 0
 3.5998 -54.90098 -4.2 -36.3004 2.4006 -20.0006 c 0
 26.0002 37.8998 132.5996 191.9994 384.0006 191.9994 c 0
 392.8004 191.9994 400.0006 199.1996 400.0006 207.9994 c 0
 400.0006 216.7992 392.8004 223.9994 384.0006 223.9994 c 0
 253.4006 223.9994 161.3006 185.1996 97.5006 139.4994 c 1
 96.800405 146.2992 96.0006 152.9994 96.0006 159.9994 c 0
 96.0006 265.9994 182.0006 351.9994 288.0006 351.9994 c 2
 368.0006 351.9994 l 2
 431.401 351.9994 486.9006 385.599 517.9006 439.4994 c 0
 524.59982 451.2992 540.5998 450.7992 546.2004 438.2992 c 2
 546.2 438.3 l 2
EndSplineSet
Validated: 33
EndChar

StartChar: fire
Encoding: 93 61549 91
Width: 384
Flags: W
LayerCount: 2
Fore
SplineSet
216 424.14 m 0
 216 321 384 298.29 384 128 c 0
 384 22.13 297.8701 -64 192 -64 c 0
 86.1299 -64 0 22.1299 0 128 c 0
 0 186.6699 27.7998 234.84 54.5703 262.96 c 0
 69.5303 278.6905 96 268.1602 96 246.46 c 2
 96 160.9502 l 2
 96 125.7803 123.9805 96.46 159.1504 96.0098 c 0
 194.8897 95.540073 224 124.3702 224 160 c 0
 224 248 48 256.1504 171.8496 437.18 c 0
 185.3496 456.9105 216 447.9407 216 424.14 c 0
EndSplineSet
Validated: 33
EndChar

StartChar: eye
Encoding: 94 61550 92
Width: 576
Flags: W
LayerCount: 2
Fore
SplineSet
572.52 206.6 m 0
 574.4409 202.80117 575.99949 196.2621 575.99949 192.0053 c 0
 575.99949 187.7485 574.4409 181.2094 572.52 177.4106 c 0
 518.3208 71.6396 410.93 0.00060000000002 288 0.00060000000002 c 0
 165.07 0.00060000000002 57.71 71.5904 3.48 177.4006 c 0
 1.5591 181.19943 0.000510000000018 187.7385 0.000510000000018 191.9953 c 0
 0.000510000000018 196.2521 1.5591 202.7912 3.48 206.59 c 0
 57.6792 312.361 165.07 384 288 384 c 0
 410.93 384 518.29 312.4102 572.52 206.6 c 0
288 48 m 1
 288.0703125 48 l 2
 367.5195125 48 432.0003125 112.4805 432.0003125 191.93 c 2
 432.0003125 192.0003125 l 2
 432.0003125 271.4886125 367.4886125 336.0003125 288.0003125 336.0003125 c 0
 208.5120125 336.0003125 144.0003125 271.4886125 144.0003125 192.0003125 c 0
 144.0003125 112.5120125 208.5120125 48.0003125 288.0003125 48.0003125 c 1
 288 48 l 1
288 288 m 2
 288.225586 288 l 2
 341.095686 288 384.005886 245.0908 384.005886 192.2207 c 0
 384.005886 139.3496 341.095686 96.4404 288.225586 96.4404 c 0
 235.354486 96.4404 192.445286 139.3496 192.445286 192.2207 c 0
 192.445286 199.26855 193.943336 210.5078 195.790016 217.3096 c 1
 202.773416 212.17093 215.479516 208.00003 224.150416 208.00003 c 0
 250.563516 208.00003 272.000016 229.43653 272.000016 255.84963 c 0
 272.000016 264.52053 267.829116 277.22663 262.690446 284.21003 c 1
 269.534196 286.20222 280.873046 287.90046 288 288 c 2
EndSplineSet
Validated: 1
EndChar

StartChar: eye-slash
Encoding: 95 61552 93
Width: 640
Flags: W
LayerCount: 2
Fore
SplineSet
320 48 m 2
 327.24121 48.0673828 338.8896 49.23633 346 50.61035 c 1
 397.8896 10.45995 l 1
 372.8701 3.99999 346.9101 -5.00000000017e-05 320 -5.00000000017e-05 c 0
 197.07 -5.00000000017e-05 89.71 71.58975 35.48 177.39995 c 0
 33.5591 181.19878 32.00051 187.73785 32.00051 191.99465 c 0
 32.00051 196.25145 33.5591 202.79055 35.48 206.58935 c 0
 45.7193 226.58935 58.4097 244.87935 72.1997 262.17915 c 1
 177.0987 181.10985 l 1
 182.74909 106.70945 244.1495 47.99985 319.9987 47.99985 c 1
 320 48 l 2
633.82 -10.0996 m 2
 637.23309 -12.75194 640.00359 -18.4121 640.00359 -22.7353 c 0
 640.00359 -25.76264 638.49675 -30.15913 636.63933 -32.54975 c 2
 616.99973 -57.82025 l 2
 614.34739 -61.23236 608.68821 -64.00287 604.36593 -64.00287 c 0
 601.33468 -64.00287 596.93234 -62.49115 594.53976 -60.62982 c 2
 6.17976 394.09918 l 2
 2.7696 396.75152 0.0020300000001 402.40973 0.0020300000001 406.73008 c 0
 0.0020300000001 409.75938 1.51082 414.15781 3.37019 416.54942 c 2
 23.00009 441.81992 l 2
 25.65243 445.23203 31.31161 448.00254 35.63389 448.00254 c 0
 38.66514 448.00254 43.06748 446.49082 45.46006 444.62949 c 2
 172.68006 346.29939 l 1
 210.69176 367.05719 276.69106 383.94689 320.00006 383.99959 c 0
 442.93006 383.99959 550.29006 312.40979 604.52006 206.59959 c 0
 606.44096 202.80076 607.99955 196.26169 607.99955 192.00489 c 0
 607.99955 187.74809 606.44096 181.20899 604.52006 177.41019 c 0
 587.75346 144.73439 551.35406 99.00689 523.27006 75.34019 c 1
 633.82 -10.0996 l 2
450.1 131.9 m 1
 458.71035 150.2203 464.0004 170.3697 464.0004 191.9996 c 2
 464.0004 192.0796781 l 2
 464.0004 271.5230781 399.5238 335.9996781 320.0804 335.9996781 c 2
 320.0003219 335.9996781 l 2
 291.5306219 335.9781937 250.6956219 321.1451781 228.8499219 302.8892781 c 1
 302.4603219 245.9996781 l 2
 303.1868839 248.7135481 303.8763419 253.1930381 304.0003619 255.9996781 c 0
 303.9847369 264.6285881 299.8138419 277.2662781 294.6907919 284.2096781 c 1
 301.8704819 286.3063581 313.7688919 288.0075281 321.2483919 288.0075281 c 0
 373.5559919 288.0075281 416.0081919 245.5554281 416.0081919 193.2477281 c 0
 416.0081919 192.9030011 416.00526221 192.3444081 416.0003794 191.9996781 c 0
 415.8880744 183.5651081 413.5579994 170.2506781 410.8001794 162.2799781 c 1
 450.1 131.9 l 1
EndSplineSet
Validated: 513
EndChar

StartChar: exclamation-triangle
Encoding: 96 61553 94
Width: 576
Flags: W
LayerCount: 2
Fore
SplineSet
569.517 7.9873 m 2
 587.975 -24.0068 564.80606 -64 527.9408 -64 c 2
 48.0538 -64 l 2
 11.1173 -64 -11.9452 -23.9453 6.4767 7.9873 c 2
 246.4227 424.0143 l 2
 264.8895 456.0241 311.1424 455.9655 329.577 424.0143 c 2
 569.517 7.9873 l 2
288 94 m 0
 262.5947 94 242 73.4053 242 48 c 0
 242 22.5947 262.5947 2 288 2 c 0
 313.4053 2 334 22.5947 334 48 c 0
 334 73.4053 313.4053 94 288 94 c 0
244.327 259.346 m 2
 251.74497 123.346 l 2
 252.09165 116.98272 257.35337 112.0003 263.72637 112.0003 c 2
 312.27327 112.0003 l 2
 318.64632 112.0003 323.90807 116.98272 324.25467 123.346 c 2
 331.67264 259.346 l 2
 332.04764 266.22002 326.57498 272.0003 319.69124 272.0003 c 2
 256.30744 272.0003 l 2
 249.42365 272.0003 243.95194 266.22003 244.327 259.346 c 2
EndSplineSet
Validated: 545
EndChar

StartChar: plane
Encoding: 97 61554 95
Width: 576
Flags: W
LayerCount: 2
Fore
SplineSet
480 256 m 1
 515.3496 256 576 227.3496 576 192 c 0
 576 156.6504 515.3496 128 480 128 c 2
 365.71 128 l 1
 260.6 -55.94 l 2
 257.75039 -60.91949 252.45059 -63.99957 246.7104 -63.99957 c 2
 181.2104 -63.99957 l 2
 170.5805 -63.99957 162.9106 -53.81987 165.8305 -43.59917 c 2
 214.8608 128.00083 l 1
 112.0008 128.00083 l 1
 68.8006 70.40123 l 2
 65.78107 66.37096 61.04083 64.00084 56.0008 64.00084 c 2
 16.0106 64.00084 l 2
 5.6004 64.00084 -2.0392 73.78111 0.4911 83.88074 c 2
 32.0009 192.00074 l 1
 0.4911 300.12074 l 2
 -2.03917 310.22034 5.60048 320.00064 16.0106 320.00064 c 2
 56.0008 320.00064 l 2
 61.03107 320.00064 65.78107 317.63052 68.8006 313.60025 c 2
 112.0008 256.00065 l 1
 214.8608 256.00065 l 1
 165.8305 427.61065 l 2
 162.91058 437.83035 170.5805 448.00025 181.2104 448.00025 c 2
 246.7104 448.00025 l 1
 246.711376562 448.00025 l 2
 251.837356562 448.00025 258.063876562 444.38892 260.610776562 439.94068 c 2
 365.710776562 256.00068 l 1
 480.000776562 256.00068 l 1
 480 256 l 1
EndSplineSet
Validated: 33
EndChar

StartChar: calendar-alt
Encoding: 98 61555 96
Width: 448
Flags: W
LayerCount: 2
Fore
SplineSet
0 -16 m 2
 0 256 l 1
 448 256 l 1
 448 -16 l 2
 448 -42.5 426.5 -64 400 -64 c 2
 48 -64 l 2
 21.5 -64 0 -42.5 0 -16 c 2
320 180 m 2
 320 140 l 2
 320 133.40039 325.40039 128 332 128 c 2
 372 128 l 2
 378.59961 128 384 133.40039 384 140 c 2
 384 180 l 2
 384 186.59961 378.59961 192 372 192 c 2
 332 192 l 2
 325.40039 192 320 186.59961 320 180 c 2
320 52 m 2
 320 12 l 2
 320 5.40039 325.40039 0 332 0 c 2
 372 0 l 2
 378.59961 0 384 5.40039 384 12 c 2
 384 52 l 2
 384 58.59961 378.59961 64 372 64 c 2
 332 64 l 2
 325.40039 64 320 58.59961 320 52 c 2
192 180 m 2
 192 140 l 2
 192 133.40039 197.40039 128 204 128 c 2
 244 128 l 2
 250.59961 128 256 133.40039 256 140 c 2
 256 180 l 2
 256 186.59961 250.59961 192 244 192 c 2
 204 192 l 2
 197.40039 192 192 186.59961 192 180 c 2
192 52 m 2
 192 12 l 2
 192 5.40039 197.40039 0 204 0 c 2
 244 0 l 2
 250.59961 0 256 5.40039 256 12 c 2
 256 52 l 2
 256 58.59961 250.59961 64 244 64 c 2
 204 64 l 2
 197.40039 64 192 58.59961 192 52 c 2
64 180 m 2
 64 140 l 2
 64 133.40039 69.40039 128 76 128 c 2
 116 128 l 2
 122.59961 128 128 133.40039 128 140 c 2
 128 180 l 2
 128 186.59961 122.59961 192 116 192 c 2
 76 192 l 2
 69.40039 192 64 186.59961 64 180 c 2
64 52 m 2
 64 12 l 2
 64 5.40039 69.40039 0 76 0 c 2
 116 0 l 2
 122.59961 0 128 5.40039 128 12 c 2
 128 52 l 2
 128 58.59961 122.59961 64 116 64 c 2
 76 64 l 2
 69.40039 64 64 58.59961 64 52 c 2
400 384 m 2
 426.5 384 448 362.5 448 336 c 2
 448 288 l 1
 0 288 l 1
 0 336 l 2
 0 362.5 21.5 384 48 384 c 2
 96 384 l 1
 96 432 l 2
 96 440.7998 103.2002 448 112 448 c 2
 144 448 l 2
 152.7998 448 160 440.7998 160 432 c 2
 160 384 l 1
 288 384 l 1
 288 432 l 2
 288 440.7998 295.2002 448 304 448 c 2
 336 448 l 2
 344.7998 448 352 440.7998 352 432 c 2
 352 384 l 1
 400 384 l 2
EndSplineSet
Validated: 513
EndChar

StartChar: random
Encoding: 99 61556 97
Width: 512
LayerCount: 2
Fore
SplineSet
504.971 88.9707 m 2
 514.34405 79.59765 514.34405 64.4023 504.971 55.0303 c 2
 424.971 -24.9541 l 2
 409.9612 -39.9639 384.0003 -29.44433 384.0003 -7.9834 c 2
 384.0003 32 l 1
 325.2151 32 l 2
 322.33717 32 318.40651 33.70801 316.44264 35.81152 c 2
 245.88604 111.40822 l 1
 299.21904 168.55082 l 1
 352.00024 112.00002 l 1
 384.00024 112.00002 l 1
 384.00024 151.98142 l 2
 384.00024 173.41892 409.94364 183.97852 424.97094 168.95212 c 2
 504.971 88.9707 l 2
12 272 m 2
 5.37305 272 0 277.37305 0 284 c 2
 0 340 l 2
 0 346.62695 5.37305 352 12 352 c 2
 122.785 352 l 1
 122.785976562 352 l 2
 125.663906562 352 129.593596562 350.29199 131.557456562 348.18848 c 2
 202.114056562 272.59178 l 1
 148.781056562 215.44918 l 1
 95.999856562 271.99998 l 1
 11.999856562 271.99998 l 1
 12 272 l 2
384 272 m 1
 352 272 l 1
 131.558 35.812 l 2
 129.28847 33.38134 126.11171 32.00048 122.78554 32.00048 c 2
 12.00054 32.00048 l 2
 5.37359 32.00048 0.000540000000001 37.37353 0.000540000000001 44.00048 c 2
 0.000540000000001 100.00048 l 2
 0.000540000000001 106.62743 5.37359 112.00048 12.00054 112.00048 c 2
 96.00054 112.00048 l 1
 316.44254 348.18848 l 2
 318.40641 350.292 322.33707 352 325.215 352 c 2
 384.0002 352 l 1
 384.0002 391.9814 l 2
 384.0002 413.4179 409.9436 423.9785 424.9709 408.9511 c 2
 504.9709 328.9697 l 2
 514.34395 319.59763 514.34395 304.4023 504.9709 295.0293 c 2
 424.9709 215.0449 l 2
 409.9611 200.0361 384.0002 210.55564 384.0002 232.0156 c 2
 384 272 l 1
EndSplineSet
Validated: 33
EndChar

StartChar: comment
Encoding: 100 61557 98
Width: 512
LayerCount: 2
Fore
SplineSet
256 416 m 0
 397.4 416 512 322.9004 512 208 c 0
 512 93.0996 397.4 0 256 0 c 0
 217.5996 0 181.2998 7.09961 148.6 19.4004 c 1
 124.0004 -0.2002 74.3002 -32 8 -32 c 0
 4.7998 -32 2 -30.2002 0.7002 -27.2002 c 0
 -0.5996 -24.2002 4.9999999997e-06 -20.79981 2.2002 -18.5 c 0
 2.7002 -18 44.5 26.9004 57 77.2998 c 1
 21.4004 113 0 158.4004 0 207.9998 c 0
 0 322.8998 114.6 415.9998 256 416 c 0
EndSplineSet
Validated: 1
EndChar

StartChar: magnet
Encoding: 101 61558 99
Width: 512
LayerCount: 2
Fore
SplineSet
164.07 299.9 m 1
 12 299.9 l 2
 5.37598 299.9 0 305.27598 0 311.9 c 2
 0 391.9 l 2
 0 411.7721 16.1279 427.9 36 427.9 c 2
 140 427.9 l 2
 159.8721 427.9 176 411.7721 176 391.9 c 2
 176 311.9 l 2
 176 311.86875 176.000976562 311.8199219 176.000976562 311.789648 c 0
 176.000976562 305.226168 170.673826562 299.900048 164.110376562 299.900048 c 2
 164.070337462 299.900048 l 1
 164.07 299.9 l 1
512 311.9 m 1
 512 305.33652 506.67285 299.9986 500.1104 299.9986 c 0
 500.0801266 299.9986 500.0303219 299.999576562 500.000048 299.999576562 c 2
 348.000048 299.999576562 l 2
 341.376028 299.999576562 336.000048 305.375556562 336.000048 311.999576562 c 2
 336.000048 391.999576562 l 2
 336.000048 411.871676562 352.127948 427.999576562 372.000048 427.999576562 c 2
 476.000048 427.999576562 l 2
 495.872148 427.999576562 512.000048 411.871676562 512.000048 391.999576562 c 2
 512 311.9 l 1
348 267.9 m 1
 499.85 267.9 l 1
 499.850976562 267.9 l 2
 506.474996562 267.9 511.850976562 262.52402 511.850976562 255.9 c 0
 511.850976562 255.8716797 511.850976562 255.8267578 511.85 255.799414 c 0
 511.650781 235.599214 511.250391 215.400014 511.85 202.599214 c 0
 511.85 51.900214 377.43 -44.099786 256.85 -44.099786 c 0
 136.27 -44.099786 0.1 51.900214 0.1 202.500214 c 0
 0.700586 215.500214 0.200586 234.400614 0.1 255.800014 c 2
 0.1 255.9006 l 2
 0.1 262.52462 5.47598 267.9006 12.1 267.9006 c 1
 12.1 267.9006 l 1
 164 267.9006 l 2
 170.62402 267.9006 176 262.52462 176 255.9006 c 2
 176 203.9006 l 2
 176 76.0006 336 75.7996 336 203.9006 c 2
 336 255.9006 l 2
 336 262.52462 341.37598 267.9006 348 267.9006 c 1
 348 267.9 l 1
EndSplineSet
Validated: 37
EndChar

StartChar: chevron-up
Encoding: 102 61559 100
Width: 448
Flags: W
LayerCount: 2
Fore
SplineSet
240.971 317.476 m 1
 435.315 123.133 l 2
 444.68707 113.75995 444.68707 98.5646 435.315 89.1926 c 2
 412.648 66.5256 l 2
 403.29058 57.16818 388.1255 57.1506 378.7466 66.4855609 c 2
 224.0006 220.5055609 l 1
 69.2556 66.4845609 l 2
 59.87669 57.1496009 44.7117 57.1671809 35.3542 66.5246 c 2
 12.6872 89.1916 l 2
 3.31513 98.56465 3.31513 113.76 12.6872 123.132 c 2
 207.0312 317.475 l 2
 216.40327 326.84805 231.5986 326.84805 240.9716 317.475976562 c 1
 240.971 317.476 l 1
EndSplineSet
Validated: 545
EndChar

StartChar: chevron-down
Encoding: 103 61560 101
Width: 448
Flags: W
LayerCount: 2
Fore
SplineSet
207.029 66.5244 m 1
 12.685 260.8684 l 2
 3.31293 270.24145 3.31293 285.4368 12.685 294.8088 c 2
 35.352 317.4758 l 2
 44.70942 326.83322 59.8745 326.8508 69.2534 317.5158391 c 2
 223.9994 163.4948391 l 1
 378.7444 317.5158391 l 2
 388.12331 326.8507991 403.2883 326.8332191 412.6458 317.4758 c 2
 435.3128 294.8088 l 2
 444.68487 285.43575 444.68487 270.2404 435.3128 260.8684 c 2
 240.9698 66.5244 l 2
 231.59675 57.15233 216.4014 57.15233 207.0284 66.5244 c 1
 207.029 66.5244 l 1
EndSplineSet
Validated: 545
EndChar

StartChar: retweet
Encoding: 104 61561 102
Width: 640
Flags: W
LayerCount: 2
Fore
SplineSet
629.657 104.402 m 1
 528.97 3.715 l 2
 519.59695 -5.65707 504.4026 -5.65707 495.0296 3.715 c 2
 394.3416 104.402 l 2
 384.96855 113.77505 384.96855 128.9704 394.3416 138.3424 c 2
 405.1648 149.1656 l 2
 414.72632 158.72712 430.2976 158.50544 439.5837 148.673412 c 2
 479.9987 105.881412 l 1
 479.9987 287.999412 l 1
 292.4497 287.999412 l 2
 286.9624 287.999412 279.3589 291.148822 275.479 295.028712 c 2
 259.479 311.028712 l 2
 244.3599 326.148812 255.06787 351.999412 276.4497 351.999412 c 2
 519.9987 351.999412 l 2
 533.2536 351.999412 543.9987 341.254312 543.9987 327.999412 c 2
 543.9987 105.881412 l 1
 584.4147 148.673412 l 2
 593.69986 158.504462 609.2711 158.727112 618.8336 149.1656 c 2
 629.6568 138.3424 l 2
 639.02887 128.97033 639.02887 113.774 629.655823438 104.402 c 1
 629.657 104.402 l 1
364.519 88.9707 m 1
 380.52 72.9707 l 2
 395.6391 57.8506 384.93113 32 363.5493 32 c 2
 120.0003 32 l 2
 106.7454 32 96.0003 42.7451 96.0003 56 c 2
 96.0003 278.119 l 1
 55.5843 235.326 l 2
 46.29817 225.49495 30.7269 225.2733 21.1654 234.834789 c 2
 10.3431 245.657089 l 2
 0.97005 255.029159 0.97005 270.224489 10.3431 279.597489 c 2
 111.0311 380.284489 l 2
 120.40317 389.657539 135.5985 389.657539 144.9715 380.284489 c 2
 245.6585 279.598489 l 2
 255.03155 270.226419 255.03155 255.031089 245.6585 245.658089 c 2
 234.8362 234.835789 l 2
 225.2737 225.273289 209.7034 225.495949 200.4173 235.327 c 2
 160.0013 278.119 l 1
 160.0013 96 l 1
 347.5493 96 l 1
 347.550276562 96 l 2
 353.037576562 96 360.640076562 92.85059 364.519976562 88.9707 c 2
 364.519 88.9707 l 1
EndSplineSet
Validated: 33
EndChar

StartChar: shopping-cart
Encoding: 105 61562 103
Width: 576
Flags: W
LayerCount: 2
Fore
SplineSet
528.12 146.681 m 2
 525.6366 135.7542 515.9227 128.0003 504.7167 128.0003 c 2
 211.5717 128.0003 l 1
 218.11662 96.0003 l 1
 486.53462 96.0003 l 2
 501.93502 96.0003 513.35002 81.6995 509.93792 66.681 c 2
 504.42034 42.4056 l 1
 523.11174 33.33236 535.99944 14.1722 535.99944 -7.9997 c 0
 535.99944 -38.9274 510.92714 -63.9997 479.99944 -63.9997 c 0
 449.07174 -63.9997 423.99944 -38.9274 423.99944 -7.9997 c 0
 423.99944 7.6741 430.44671 21.8353 440.82264 32.0003 c 1
 231.17564 32.0003 l 1
 241.55264 21.8353 247.99984 7.6741 247.99984 -7.9997 c 0
 247.99984 -38.9274 222.92754 -63.9997 191.99984 -63.9997 c 0
 161.07214 -63.9997 135.99984 -38.9274 135.99984 -7.9997 c 0
 135.99984 12.7786 147.32504 30.9007 164.13074 40.5657 c 1
 93.88274 384.0007 l 1
 23.99994 384.0007 l 2
 10.74504 384.0007 -5.99999999764e-05 394.7458 -5.99999999764e-05 408.0007 c 2
 -5.99999999764e-05 424.0007 l 2
 -5.99999999764e-05 437.2556 10.74504 448.0007 23.99994 448.0007 c 2
 126.52894 448.0007 l 2
 137.92934 448.0007 147.75744 439.97922 150.04164 428.8103 c 2
 159.20766 384.0007 l 1
 551.98966 384.0007 l 2
 567.39006 384.0007 578.80506 369.6999 575.39196 354.6814 c 2
 528.12 146.681 l 2
EndSplineSet
Validated: 545
EndChar

StartChar: folder
Encoding: 106 61563 104
Width: 512
LayerCount: 2
Fore
SplineSet
464 320 m 2
 490.5098 320 512 298.5098 512 272 c 2
 512 48 l 2
 512 21.4902 490.5098 0 464 0 c 2
 48 0 l 2
 21.4902 0 0 21.4902 0 48 c 2
 0 336 l 2
 0 362.5098 21.4902 384 48 384 c 2
 208 384 l 1
 272 320 l 1
 464 320 l 2
EndSplineSet
Validated: 1
EndChar

StartChar: folder-open
Encoding: 107 61564 105
Width: 576
Flags: W
LayerCount: 2
Fore
SplineSet
572.694 155.907 m 2
 500.2692 31.752 l 2
 490.0456 14.2247 465.2809 1.06581410364e-14 444.9899 1.06581410364e-14 c 2
 444.988923438 1.06581410364e-14 l 1
 45.024923438 1.06581410364e-14 l 2
 26.501523438 1.06581410364e-14 14.960423438 20.0928 24.293523438 36.0928 c 2
 96.717323438 160.2478 l 2
 106.941923438 177.7751 131.707523438 191.9998 151.999523438 191.9998 c 1
 151.999523438 191.9998 l 1
 551.963523438 191.9998 l 2
 570.486923438 191.9998 582.028023438 171.907 572.694 155.907 c 2
152 224 m 1
 117.9893 224 86.2139 205.75 69.0771 176.3721 c 2
 0 57.9541 l 1
 0 336.0001 l 2
 0 362.5099 21.4902 384.0001 48 384.0001 c 2
 208 384.0001 l 1
 272 320.0001 l 1
 432 320.0001 l 2
 458.5098 320.0001 480 298.5099 480 272.0001 c 2
 480 224.0001 l 1
 152 224 l 1
EndSplineSet
Validated: 549
EndChar

StartChar: arrows-v
Encoding: 108 61565 106
Width: 256
Flags: W
LayerCount: 2
Fore
SplineSet
160 41.8145 m 1
 203.7285 88.0225 l 2
 213.01756 97.83695 228.5752 98.0518 238.1308 88.496133 c 2
 248.9706 77.656333 l 2
 258.34365 68.284263 258.34365 53.087933 248.9706 43.714933 c 2
 150.6278 -54.627867 l 2
 138.1307 -67.124967 117.87 -67.124967 105.3729 -54.627867 c 2
 7.0301 43.714933 l 2
 -2.34295 53.087003 -2.34295 68.283333 7.0301 77.656333 c 2
 17.8699 88.496133 l 2
 27.42556 98.051793 42.9832 97.836953 52.2722 88.0225 c 2
 95.9997 41.8145 l 1
 95.9997 342.1845 l 1
 52.2712 295.9775 l 2
 42.98214 286.16305 27.4245 285.9482 17.8689 295.503867 c 2
 7.0291 306.343667 l 2
 -2.34395 315.715737 -2.34395 330.912067 7.0291 340.285067 c 2
 105.3719 438.626867 l 2
 117.869 451.123967 138.1297 451.123967 150.6268 438.626867 c 2
 248.9696 340.284067 l 2
 258.34265 330.911997 258.34265 315.715667 248.9696 306.342667 c 2
 238.1298 295.502867 l 2
 228.57414 285.947207 213.0165 286.162047 203.7275 295.9765 c 2
 160 342.1845 l 1
 160 41.8145 l 1
EndSplineSet
Validated: 545
EndChar

StartChar: arrows-h
Encoding: 109 61566 107
Width: 512
LayerCount: 2
Fore
SplineSet
105.815 160 m 1
 152.023 116.2725 l 2
 161.83745 106.98344 162.0523 91.4258 152.496633 81.8702 c 2
 141.656833 71.0304 l 2
 132.284763 61.65735 117.088433 61.65735 107.715433 71.0304 c 2
 9.372633 169.3732 l 2
 -3.124467 181.8703 -3.124467 202.131 9.372633 214.6281 c 2
 107.715433 312.9699 l 2
 117.087503 322.34295 132.283833 322.34295 141.656833 312.9699 c 2
 152.496633 302.1301 l 2
 162.052293 292.57444 161.837453 277.0168 152.023 267.7278 c 2
 105.815 224.0003 l 1
 406.185 224.0003 l 1
 359.977 267.7288 l 2
 350.16255 277.01786 349.9477 292.5755 359.503367 302.1311 c 2
 370.343167 312.9709 l 2
 379.715237 322.34395 394.911567 322.34395 404.284567 312.9709 c 2
 502.627367 214.6281 l 2
 515.124467 202.131 515.124467 181.8703 502.627367 169.3732 c 2
 404.284567 71.0304 l 2
 394.912497 61.65735 379.716167 61.65735 370.343167 71.0304 c 2
 359.503367 81.8702 l 2
 349.947707 91.42586 350.162547 106.9835 359.977 116.2725 c 2
 406.185 160 l 1
 105.815 160 l 1
EndSplineSet
Validated: 545
EndChar

StartChar: chart-bar
Encoding: 110 61568 108
Width: 512
LayerCount: 2
Fore
SplineSet
332.8 128 m 1
 326.40059 128 320.0002 134.40039 320.0002 140.7998 c 2
 320.0002 275.1998 l 2
 320.0002 281.59921 326.40059 287.9996 332.8 287.9996 c 2
 371.2004 287.9996 l 2
 377.59981 287.9996 384.0002 281.59921 384.0002 275.1998 c 2
 384.0002 140.7998 l 2
 384.0002 134.40039 377.59981 128 371.2004 128 c 2
 332.8 128 l 1
428.8 128 m 1
 422.40059 128 416.0002 134.40039 416.0002 140.7998 c 2
 416.0002 371.1998 l 2
 416.0002 377.59921 422.40059 383.9996 428.8 383.9996 c 2
 467.2004 383.9996 l 2
 473.59981 383.9996 480.0002 377.59921 480.0002 371.1998 c 2
 480.0002 140.7998 l 2
 480.0002 134.40039 473.59981 128 467.2004 128 c 2
 428.8 128 l 1
140.8 128 m 2
 134.40059 128 128.0002 134.40039 128.0002 140.7998 c 2
 128.0002 211.2002 l 2
 128.0002 217.59961 134.40059 224 140.8 224 c 2
 179.2004 224 l 2
 185.59981 224 192.0002 217.59961 192.0002 211.2002 c 2
 192.0002 140.7998 l 2
 192.0002 134.40039 185.59981 128 179.2004 128 c 2
 140.8 128 l 2
236.8 128 m 1
 230.40059 128 224.0002 134.40039 224.0002 140.7998 c 2
 224.0002 339.1998 l 2
 224.0002 345.59921 230.40059 351.9996 236.8 351.9996 c 2
 275.2004 351.9996 l 2
 281.59981 351.9996 288.0002 345.59921 288.0002 339.1998 c 2
 288.0002 140.7998 l 2
 288.0002 134.40039 281.59981 128 275.2004 128 c 2
 236.8 128 l 1
496 64 m 2
 504.83984 64 512 56.83984 512 48 c 2
 512 16 l 2
 512 7.16016 504.83984 0 496 0 c 2
 32 0 l 2
 14.3301 0 0 14.3301 0 32 c 2
 0 368 l 2
 0 376.83984 7.16016 384 16 384 c 2
 48 384 l 2
 56.83984 384 64 376.83984 64 368 c 2
 64 64 l 1
 496 64 l 2
EndSplineSet
Validated: 513
EndChar

StartChar: camera-retro
Encoding: 111 61571 109
Width: 512
LayerCount: 2
Fore
SplineSet
48 416 m 2
 464 416 l 2
 490.5 416 512 394.5 512 368 c 2
 512 16 l 2
 512 -10.5 490.5 -32 464 -32 c 2
 48 -32 l 2
 21.5 -32 0 -10.5 0 16 c 2
 0 368 l 2
 0 394.5 21.5 416 48 416 c 2
48 384 m 2
 39.2002 384 32 376.7998 32 368 c 2
 32 358 l 2
 32 354.7002 34.7002 352 38 352 c 2
 154 352 l 2
 157.2998 352 160 354.7002 160 358 c 2
 160 378 l 2
 160 381.2998 157.2998 384 154 384 c 2
 48 384 l 2
474 288 m 0
 477.2998 288 480 290.7002 480 294 c 2
 480 368 l 2
 480 376.7998 472.7998 384 464 384 c 2
 211.2 384 l 2
 209.2 384 207.29961 383 206.2 381.2998 c 2
 175.9998 336 l 1
 37.9998 336 l 2
 34.7 336 31.9998 333.2998 31.9998 330 c 2
 31.9998 294 l 2
 31.9998 290.7002 34.7 288 37.9998 288 c 2
 474 288 l 0
256 24 m 0
 322.2002 24 376 77.7998 376 144 c 0
 376 210.2002 322.2002 264 256 264 c 0
 189.7998 264 136 210.2002 136 144 c 0
 136 77.7998 189.7998 24 256 24 c 0
256 232 m 0
 304.5 232 344 192.5 344 144 c 0
 344 95.5 304.5 56 256 56 c 0
 207.5 56 168 95.5 168 144 c 0
 168 192.5 207.5 232 256 232 c 0
208 128 m 0
 216.7998 128 224 135.2002 224 144 c 0
 224 161.5996 238.4004 176 256 176 c 0
 264.7998 176 272 183.2002 272 192 c 0
 272 200.7998 264.7998 208 256 208 c 0
 220.7002 208 192 179.2998 192 144 c 0
 192 135.2002 199.2002 128 208 128 c 0
EndSplineSet
Validated: 513
EndChar

StartChar: key
Encoding: 112 61572 110
Width: 512
LayerCount: 2
Fore
SplineSet
512 271.999 m 1
 512 174.7969 433.2021 96 336 96 c 0
 324.7803 96 313.8096 97.06152 303.1729 99.06934 c 1
 279.1612 72.05474 l 2
 275.20905 67.60845 267.1729 64.00005 261.2237 64.00005 c 2
 261.222723438 64.00005 l 1
 224.000023438 64.00005 l 1
 224.000023438 24.00005 l 2
 224.000023438 10.74515 213.254923438 5.00000000159e-05 200.000023438 5.00000000159e-05 c 2
 160.000023438 5.00000000159e-05 l 1
 160.000023438 -39.99995 l 2
 160.000023438 -53.25485 149.254923438 -63.99995 136.000023438 -63.99995 c 2
 24.000023438 -63.99995 l 2
 10.745123438 -63.99995 2.34379999995e-05 -53.25485 2.34379999995e-05 -39.99995 c 2
 2.34379999995e-05 38.05865 l 2
 2.34379999995e-05 44.42388 2.529323438 50.52935 7.029323438 55.03035 c 2
 168.831323438 216.83235 l 1
 163.108663438 234.18585 160.000273438 252.72885 160.000273438 272.00035 c 0
 160.000273438 369.20245 238.797173438 447.99935 335.999273438 448.00035 c 0
 433.488573438 448.001326562 512.000273438 369.48965 512.000273438 271.99935 c 1
 512 271.999 l 1
336 320 m 0
 336 293.4902 357.4902 272 384 272 c 0
 410.5098 272 432 293.4902 432 320 c 0
 432 346.5098 410.5098 368 384 368 c 0
 357.4902 368 336 346.5098 336 320 c 0
EndSplineSet
Validated: 33
EndChar

StartChar: cogs
Encoding: 113 61573 111
Width: 640
Flags: W
LayerCount: 2
Fore
SplineSet
512.1 257 m 1
 503.90078 242.7002 l 2
 500.90078 237.4004 494.50039 235.2002 488.80018 237.29981 c 0
 477.00038 241.7002 466.20058 248.00001 456.70058 255.90041 c 0
 452.09999 259.70021 450.90078 266.40041 453.90078 271.59961 c 2
 462.1 285.90041 l 1
 455.20059 293.90041 449.8002 303.20021 446.2006 313.29981 c 1
 429.7006 313.29981 l 2
 423.7006 313.29981 418.5004 317.59961 417.5004 323.59961 c 0
 415.5004 335.59961 415.40079 348.20021 417.5004 360.70021 c 0
 418.5004 366.70021 423.7006 371.09961 429.7006 371.09961 c 2
 446.2006 371.09961 l 1
 449.80021 381.20021 455.2006 390.50001 462.1 398.50001 c 1
 453.90078 412.79981 l 2
 450.90078 418.00001 452.00039 424.70021 456.70058 428.50001 c 0
 466.20058 436.4004 477.09998 442.70021 488.80018 447.09961 c 0
 494.50038 449.2002 500.90078 447.0000006 503.90078 441.7002 c 2
 512.1 427.4004 l 1
 522.6 429.29981 533.3002 429.29981 543.8002 427.4004 c 1
 552.0004 441.7002 l 2
 555.0004 447 561.40079 449.2002 567.1 447.09961 c 0
 578.9008 442.7002 589.7006 436.40041 599.2006 428.50001 c 0
 603.80021 424.70021 605.0004 418.00001 602.0004 412.79981 c 2
 593.8002 398.50001 l 1
 600.70059 390.50001 606.1 381.20021 609.7006 371.09961 c 1
 626.2006 371.09961 l 2
 632.2006 371.09961 637.4008 366.79981 638.4008 360.79981 c 0
 640.4008 348.79981 640.50041 336.20021 638.4008 323.70021 c 0
 637.4008 317.70021 632.2006 313.29981 626.2006 313.29981 c 2
 609.7006 313.29981 l 1
 606.10001 303.20021 600.7006 293.90041 593.8002 285.90041 c 1
 602.0004 271.59961 l 2
 605.0004 266.40039 603.90079 259.70021 599.2006 255.90041 c 0
 589.7006 248.00002 578.8002 241.70021 567.1 237.29981 c 0
 561.40078 235.2002 555.0004 237.400396 552.0004 242.7002 c 2
 543.8002 257 l 1
 533.4008 255.09961 522.6 255.09961 512.1 257 c 1
501.6 315.8 m 1
 540.1 286.2004 584.0004 330.0998 554.4008 368.5998 c 1
 515.9008 398.3 472.0004 354.3 501.6 315.8 c 1
386.3 161.9 m 1
 420.0002 145.0992 l 2
 430.0998 139.2994 434.5002 126.9996 430.5002 115.9996 c 0
 421.59981 91.7994 404.0998 69.5992 387.9006 50.1998 c 0
 380.50021 41.29941 367.7004 39.0992 357.5998 44.9 c 2
 328.5002 61.6998 l 1
 312.5002 47.9996 293.9006 37.0992 273.5998 29.9996 c 1
 273.5998 -3.6 l 2
 273.5998 -15.2006 265.3 -25.2006 253.9006 -27.2006 c 0
 229.3 -31.4008 203.5002 -31.60001 178.0002 -27.2006 c 0
 166.5002 -25.2006 158.0002 -15.3002 158.0002 -3.6 c 2
 158.0002 29.9996 l 1
 137.7004 37.1998 119.0998 47.9996 103.0998 61.6998 c 1
 74.0002 44.9996 l 2
 64.0002 39.1998 51.0998 41.39999 43.7004 50.2994 c 0
 27.5002 69.6998 10.4006 91.9 1.5002 115.9996 c 0
 -2.4998 126.9 1.900591 139.1998 12.0002 145.0992 c 2
 45.3 161.9 l 1
 41.40059 182.7994 41.40059 204.2994 45.3 225.2994 c 1
 12.0002 242.1998 l 2
 1.9006 247.9996 -2.5994 260.2994 1.5002 271.1998 c 0
 10.40059 295.4 27.5002 317.5992 43.7004 336.9996 c 0
 51.09981 345.89999 63.9006 348.0992 74.0002 342.2994 c 2
 103.0998 325.4996 l 1
 119.0998 339.1998 137.7004 350.0992 158.0002 357.1998 c 1
 158.0002 390.9 l 2
 158.0002 402.4 166.2004 412.4 177.5998 414.4 c 0
 202.2004 418.59922 228.0998 418.79941 253.5998 414.4996094 c 0
 265.0998 412.4996094 273.5998 402.5992094 273.5998 390.9000094 c 2
 273.5998 357.2994094 l 1
 293.9006 350.0992094 312.5002 339.2994094 328.5002 325.5992094 c 1
 357.5998 342.4000094 l 2
 367.5998 348.1998094 380.5002 345.9996194 387.9006 337.0992294 c 0
 404.0998 317.6998294 421.0998 295.4996294 430.0002 271.2994294 c 0
 434.0002 260.4000294 430.0998094 248.0992294 420.0002 242.1998294 c 2
 386.3 225.4000294 l 1
 390.20039 204.4000294 390.20039 182.9000294 386.3 161.9 c 1
268.7 140.8 m 1
 327.9002 217.8 239.9998 305.7 163 246.5 c 1
 103.7998 169.5 191.7002 81.6 268.7 140.8 c 1
512.1 -41.9004 m 1
 503.90078 -56.2002 l 2
 500.90078 -61.5 494.50039 -63.7002 488.80018 -61.59961 c 0
 477.00038 -57.2002 466.20058 -50.90041 456.70058 -43.00001 c 0
 452.09999 -39.20021 450.90078 -32.50001 453.90078 -27.29981 c 2
 462.1 -13.00001 l 1
 455.20059 -5.00001 449.8002 4.29979 446.2006 14.40039 c 1
 429.7006 14.40039 l 2
 423.7006 14.40039 418.5004 18.70019 417.5004 24.70019 c 0
 415.5004 36.70019 415.40079 49.29979 417.5004 61.79979 c 0
 418.5004 67.79979 423.7006 72.20019 429.7006 72.20019 c 2
 446.2006 72.20019 l 1
 449.80021 82.29979 455.2006 91.59959 462.1 99.59959 c 1
 453.90078 113.90039 l 2
 450.90078 119.09961 452.00039 125.79979 456.70058 129.59959 c 0
 466.20058 137.49998 477.09998 143.79979 488.80018 148.20019 c 0
 494.50038 150.2998 500.90078 148.099604 503.90078 142.7998 c 2
 512.1 128.5 l 1
 522.6 130.40039 533.3002 130.40039 543.8002 128.5 c 1
 552.0004 142.7998 l 2
 555.0004 148.0996 561.40079 150.2998 567.1 148.20019 c 0
 578.9008 143.7998 589.7006 137.49999 599.2006 129.59959 c 0
 603.80021 125.79979 605.0004 119.09959 602.0004 113.90039 c 2
 593.8002 99.59959 l 1
 600.70059 91.59959 606.1 82.29979 609.7006 72.20019 c 1
 626.2006 72.20019 l 2
 632.2006 72.20019 637.4008 67.90039 638.4008 61.90039 c 0
 640.4008 49.90039 640.50041 37.29979 638.4008 24.79979 c 0
 637.4008 18.79979 632.2006 14.40039 626.2006 14.40039 c 2
 609.7006 14.40039 l 1
 606.10001 4.29979 600.7006 -5.00001 593.8002 -13.00001 c 1
 602.0004 -27.29981 l 2
 605.0004 -32.50001 603.90079 -39.20021 599.2006 -43.00001 c 0
 589.7006 -50.9004 578.8002 -57.20021 567.1 -61.59961 c 0
 561.40078 -63.7002 555.0004 -61.5000006 552.0004 -56.2002 c 2
 543.8002 -41.9004 l 1
 533.4008 -43.79981 522.6 -43.79981 512.1 -41.9004 c 1
501.6 17 m 1
 540.1 -12.5996 584.0004 31.2998 554.4008 69.7998 c 1
 515.9008 99.4004 472.0004 55.5 501.6 17 c 1
EndSplineSet
Validated: 33
EndChar

StartChar: comments
Encoding: 114 61574 112
Width: 576
Flags: W
LayerCount: 2
Fore
SplineSet
416 256 m 0
 416 167.5996 322.9004 96 208 96 c 0
 167 96 128.9004 105.2998 96.7 121 c 1
 74.9002 108.2998 44.5994 96 7.9998 96 c 0
 4.7996 96 1.9998 97.7998 0.7 100.7998 c 0
 -0.5998 103.7998 -0.000194999999993 107.20019 2.2 109.5 c 0
 2.499805 109.799805 24.5994 133.7998 37.9998 164 c 1
 14.0994 190.0996 -0.000199999999992 221.7002 -0.000199999999992 256 c 0
 -0.000199999999992 344.4004 93.0994 416 207.9998 416 c 0
 322.9002 416 415.9998 344.4004 416 256 c 0
538 36 m 2
 551.4004 5.7002 573.5 -18.2002 573.7998 -18.5 c 0
 576 -20.90039 576.5996 -24.2998 575.2998 -27.2002 c 0
 574.0996 -30.09961 571.20019 -32 568 -32 c 0
 531.4004 -32 501.0996 -19.7002 479.2998 -7 c 1
 447.0996 -22.7998 409 -32 367.9998 -32 c 0
 281.7996 -32 207.7998 8.4004 176.2998 65.9004 c 1
 186.7002 64.79981 197.2002 64.00001 208 64.00001 c 0
 340.3 64.00001 448 150.09961 448 256.00001 c 0
 448 262.79981 447.599609 269.50001 446.7002 276.09961 c 1
 522.5 252.20021 576.0002 194.90041 576.0002 127.99961 c 0
 576.0002 93.69981 561.9006 61.99961 538.0002 35.99961 c 1
 538 36 l 2
EndSplineSet
Validated: 1
EndChar

StartChar: star-half
Encoding: 115 61577 113
Width: 576
Flags: W
LayerCount: 2
Fore
SplineSet
288 448 m 1
 288 8.4 l 1
 157.3 -60.2006 l 2
 133.9006 -72.5004 106.4006 -52.60001 110.9006 -26.5004 c 2
 135.9006 118.9996 l 1
 30.2006 221.9996 l 2
 11.2006 240.4996 21.7006 272.7994 47.9008 276.5992 c 2
 194.0008 297.7994 l 1
 259.3006 430.1994 l 2
 265.20099 442.0988 276.6004 447.9992 288.0008 447.9992 c 1
 288 448 l 1
EndSplineSet
Validated: 549
EndChar

StartChar: sign-out
Encoding: 116 61579 114
Width: 512
LayerCount: 2
Fore
SplineSet
180 0 m 2
 96 0 l 2
 43 0 0 43 0 96 c 2
 0 288 l 2
 0 341 43 384 96 384 c 2
 180 384 l 2
 186.59961 384 192 378.59961 192 372 c 2
 192 332 l 2
 192 325.40039 186.59961 320 180 320 c 2
 96 320 l 2
 78.2998 320 64 305.7002 64 288 c 2
 64 96 l 2
 64 78.2998 78.2998 64 96 64 c 2
 180 64 l 2
 186.59961 64 192 58.59961 192 52 c 2
 192 12 l 2
 192 5.40039 186.59961 0 180 0 c 2
297.9 303.1 m 2
 287.9 312.3002 287.4996 328.1 297.199805 337.7006 c 2
 319.099205 359.6 l 2
 328.499595 369.00039 343.599205 369.00039 352.999605 359.700586 c 2
 504.899605 209.099586 l 2
 514.399605 199.700176 514.399605 184.400386 504.899605 174.999986 c 2
 352.899605 24.199986 l 2
 343.499215 14.900186 328.299005 14.999786 318.999205 24.2995954 c 2
 297.098805 46.1999954 l 2
 287.499195 55.9001954 287.799005 71.6999954 297.899586 80.9001954 c 2
 375.499186 151.9997954 l 1
 183.999186 151.9997954 l 2
 170.699386 151.9997954 159.999186 162.6999954 159.999186 175.9997954 c 2
 159.999186 207.9997954 l 2
 159.999186 221.2995954 170.699386 231.9997954 183.999186 231.9997954 c 2
 375.499186 231.9997954 l 1
 297.9 303.1 l 2
EndSplineSet
Validated: 545
EndChar

StartChar: thumbtack
Encoding: 117 61581 115
Width: 384
Flags: W
LayerCount: 2
Fore
SplineSet
298.028 233.733 m 1
 346.0173 211.4195 383.9997 171.1822 384.0007 120 c 0
 384.0007 106.7451 373.2556 96 360.0007 96 c 2
 224.0007 96 l 1
 224.0007 -8.007 l 2
 224.0007 -9.04997 223.621794 -10.65251 223.155973 -11.58512 c 2
 199.155973 -59.58512 l 2
 196.208703 -65.4777 187.785873 -65.46696 184.844473 -59.58512 c 2
 160.844473 -11.58512 l 2
 160.288809 -10.47379 159.999746 -9.24918 159.999746 -8.007 c 2
 159.999746 96 l 1
 23.999746 96 l 2
 10.744846 96 -0.000253999999956 106.7451 -0.000253999999956 120 c 0
 -0.000253999999956 170.7393 37.464546 211.1797 85.971446 233.733 c 1
 98.206846 352 l 1
 55.999846 352 l 2
 42.744946 352 31.999846 362.7451 31.999846 376 c 2
 31.999846 424 l 2
 31.999846 437.2549 42.744946 448 55.999846 448 c 2
 327.999846 448 l 2
 341.254746 448 351.999846 437.2549 351.999846 424 c 2
 351.999846 376 l 2
 351.999846 362.7451 341.254746 352 327.999846 352 c 2
 285.792846 352 l 1
 298.028 233.733 l 1
EndSplineSet
Validated: 1
EndChar

StartChar: external-link
Encoding: 118 61582 116
Width: 576
Flags: W
LayerCount: 2
Fore
SplineSet
448 168.804 m 2
 448 -16 l 2
 448 -42.5098 426.5098 -64 400 -64 c 2
 48 -64 l 2
 21.4902 -64 0 -42.5098 0 -16 c 2
 0 336 l 2
 0 362.5098 21.4902 384 48 384 c 2
 296 384 l 2
 301.4873 384 309.0898 380.85059 312.9697 376.9707 c 2
 328.9697 360.9707 l 2
 344.0898 345.8506 333.38181 320 312 320 c 2
 64 320 l 1
 64 0 l 1
 384 0 l 1
 384 152.804 l 2
 384 159.16923 386.5293 165.2747 391.0293 169.7757 c 2
 407.0293 185.7757 l 2
 422.1484 200.8939 448 190.18586 448 168.804 c 2
576 410.667 m 2
 576 252 l 2
 576 236.5361 563.4639 224 548 224 c 2
 530.1152 224 l 2
 514.3486 224 501.6914 237.0117 502.125 252.7725 c 2
 504.03125 319.9746 l 1
 256.90925 71.0896 l 2
 247.54695 61.66089 232.30375 61.63355 222.90825 71.0300297 c 2
 199.02935 94.9089297 l 2
 189.63287 104.3044397 189.66119 119.5466297 199.0898969 128.9099297 c 2
 447.9748969 376.0319297 l 1
 380.7727969 374.1256797 l 2
 365.0110969 373.6911097 352.0002969 386.3483797 352.0002969 402.1149797 c 2
 352.0002969 419.9997797 l 2
 352.0002969 435.4636797 364.5363969 447.9997797 380.0002969 447.9997797 c 2
 538.6672969 447.9997797 l 2
 559.2854969 447.9997797 576.0002969 431.2849797 576 410.667 c 2
EndSplineSet
Validated: 545
EndChar

StartChar: sign-in
Encoding: 119 61584 117
Width: 512
LayerCount: 2
Fore
SplineSet
137.2 337.7 m 1
 159.0994 359.5994 l 2
 168.40018 368.90018 183.5994 368.99979 192.9998 359.699986 c 2
 344.8998 208.999986 l 2
 354.3998 199.599596 354.3998 184.299786 344.8998 174.900386 c 2
 192.9998 24.299386 l 2
 183.59941 14.999586 168.4998 14.999586 159.0994 24.399972 c 2
 137.2 46.299372 l 2
 127.4998 55.999572 127.9002 71.699772 137.999805 80.999572 c 2
 215.599405 152.099172 l 1
 23.999405 152.099172 l 2
 10.699605 152.099172 -0.000594999999947 162.799372 -0.000594999999947 176.099172 c 2
 -0.000594999999947 208.099172 l 2
 -0.000594999999947 221.399972 10.699605 232.099172 23.999405 232.099172 c 2
 215.499405 232.099172 l 1
 137.899805 303.199772 l 2
 127.899805 312.299382 127.499405 328.099172 137.19961 337.699772 c 2
 137.2 337.7 l 1
512 96 m 2
 512 43 469 0 416 0 c 2
 332 0 l 2
 325.40039 0 320 5.40039 320 12 c 2
 320 52 l 2
 320 58.59961 325.40039 64 332 64 c 2
 416 64 l 2
 433.7002 64 448 78.2998 448 96 c 2
 448 288 l 2
 448 305.7002 433.7002 320 416 320 c 2
 332 320 l 2
 325.40039 320 320 325.40039 320 332 c 2
 320 372 l 2
 320 378.59961 325.40039 384 332 384 c 2
 416 384 l 2
 469 384 512 341 512 288 c 2
 512 96 l 2
EndSplineSet
Validated: 545
EndChar

StartChar: upload
Encoding: 121 61587 118
Width: 512
LayerCount: 2
Fore
SplineSet
296 64 m 2
 216 64 l 2
 202.7002 64 192 74.7002 192 88 c 2
 192 256 l 1
 104.2998 256 l 2
 86.5 256 77.5996 277.5 90.2002 290.0996 c 2
 242.3002 442.2996 l 2
 249.8002 449.7996 262.1 449.7996 269.6 442.2996 c 2
 421.8 290.0996 l 2
 434.4006 277.5 425.5002 256 407.7004 256 c 2
 320.0002 256 l 1
 320.0002 88 l 2
 320.0002 74.7002 309.3 64 296 64 c 2
512 72 m 2
 512 -40 l 2
 512 -53.2998 501.2998 -64 488 -64 c 2
 24 -64 l 2
 10.7002 -64 0 -53.2998 0 -40 c 2
 0 72 l 2
 0 85.2998 10.7002 96 24 96 c 2
 160 96 l 1
 160 88 l 2
 160 57.0996 185.0996 32 216 32 c 2
 296 32 l 2
 326.9004 32 352 57.0996 352 88 c 2
 352 96 l 1
 488 96 l 2
 501.2998 96 512 85.2998 512 72 c 2
388 -16 m 0
 388 -5 379 4 368 4 c 0
 357 4 348 -5 348 -16 c 0
 348 -27 357 -36 368 -36 c 0
 379 -36 388 -27 388 -16 c 0
452 -16 m 0
 452 -5 443 4 432 4 c 0
 421 4 412 -5 412 -16 c 0
 412 -27 421 -36 432 -36 c 0
 443 -36 452 -27 452 -16 c 0
EndSplineSet
Validated: 33
EndChar

StartChar: phone
Encoding: 123 61589 119
Width: 512
LayerCount: 2
Fore
SplineSet
493.4 423.4 m 2
 504.2994 420.9 511.9996 411.1998 511.9996 399.9996 c 0
 511.9996 143.4996 304.0996 -64.0004 47.9996 -64.0004 c 0
 36.6998 -64.0004 27.0992 -56.2006 24.5992 -45.4008 c 2
 0.5992 58.5992 l 2
 -2.00041 69.9 3.89998 81.4996 14.5992 86.1998 c 2
 126.5992 134.1998 l 2
 136.39998 138.4 147.7994 135.59921 154.5992 127.29941 c 2
 204.1998 66.69981 l 1
 282.4996 103.40001 345.3998 167.19981 381.3998 243.89981 c 1
 320.7992 293.49941 l 2
 312.4994 300.19961 309.6996 311.69961 313.89979 321.49941 c 2
 361.89979 433.49941 l 2
 366.4994 444.09901 378.09899 449.99941 389.39979 447.39981 c 2
 493.4 423.4 l 2
EndSplineSet
Validated: 33
EndChar

StartChar: phone-square
Encoding: 124 61592 120
Width: 448
Flags: W
LayerCount: 2
Fore
SplineSet
400 416 m 2
 426.5098 416 448 394.5098 448 368 c 2
 448 16 l 2
 448 -10.5098 426.5098 -32 400 -32 c 2
 48 -32 l 2
 21.4902 -32 0 -10.5098 0 16 c 2
 0 368 l 2
 0 394.5098 21.4902 416 48 416 c 2
 400 416 l 2
94 32 m 1
 254.055 32 384 161.708 384 322 c 1
 384 322 l 1
 384 328.58691 378.79102 335.1338 372.3721 336.6143 c 2
 307.3721 351.6123 l 2
 306.453155 351.824214 304.94241 351.996089 303.99905 351.996089 c 0
 298.53909 351.996089 292.36235 347.922849 290.21195 342.905269 c 2
 260.21195 272.907269 l 2
 259.543005 271.344769 259.00004 268.698289 259.00004 266.999069 c 0
 259.00004 263.075239 261.46391 257.874069 264.50102 255.388669 c 2
 302.38672 224.391569 l 1
 279.90332 176.469669 240.54982 136.575169 191.60672 113.612569 c 1
 160.60962 151.497369 l 2
 158.12427 154.534479 152.9231 156.999319 148.99922 156.999319 c 0
 147.3 156.999319 144.65352 156.455374 143.09102 155.786429 c 2
 73.09302 125.787429 l 2
 68.07447 123.637039 64.0022 117.460279 64.0022 112.000329 c 0
 64.0022 111.05697 64.174075 109.546229 64.385989 108.627279 c 2
 79.383989 43.627279 l 2
 80.943559 36.873369 86.966999 32.000279 94.000189 32.000279 c 1
 94 32 l 1
EndSplineSet
Validated: 513
EndChar

StartChar: unlock
Encoding: 125 61596 121
Width: 448
Flags: W
LayerCount: 2
Fore
SplineSet
400 192 m 1
 426.5 192 448 170.5 448 144 c 2
 448 -16 l 2
 448 -42.5 426.5 -64 400 -64 c 2
 48 -64 l 2
 21.5 -64 0 -42.5 0 -16 c 2
 0 144 l 2
 0 170.5 21.5 192 48 192 c 2
 72 192 l 1
 72 294.5 l 2
 72 378.5 139.5 447.7 223.5 448 c 0
 307.5 448.3 376 380 376 296 c 2
 376 280 l 2
 376 266.7002 365.2998 256 352 256 c 2
 320 256 l 2
 306.7002 256 296 266.7002 296 280 c 2
 296 296 l 2
 296 335.9004 263.2998 368.4004 223.2998 368 c 0
 183.7002 367.599609 152 334.7002 152 295.0996 c 2
 152 191.9996 l 1
 400 191.9996 l 1
 400 192 l 1
EndSplineSet
Validated: 33
EndChar

StartChar: credit-card
Encoding: 126 61597 122
Width: 576
Flags: W
LayerCount: 2
Fore
SplineSet
0 16 m 2
 0 192 l 1
 576 192 l 1
 576 16 l 2
 576 -10.5 554.5 -32 528 -32 c 2
 48 -32 l 2
 21.5 -32 0 -10.5 0 16 c 2
192 84 m 2
 192 44 l 2
 192 37.40039 197.40039 32 204 32 c 2
 340 32 l 2
 346.59961 32 352 37.40039 352 44 c 2
 352 84 l 2
 352 90.59961 346.59961 96 340 96 c 2
 204 96 l 2
 197.40039 96 192 90.59961 192 84 c 2
64 84 m 2
 64 44 l 2
 64 37.40039 69.40039 32 76 32 c 2
 148 32 l 2
 154.59961 32 160 37.40039 160 44 c 2
 160 84 l 2
 160 90.59961 154.59961 96 148 96 c 2
 76 96 l 2
 69.40039 96 64 90.59961 64 84 c 2
576 368 m 2
 576 320 l 1
 0 320 l 1
 0 368 l 2
 0 394.5 21.5 416 48 416 c 2
 528 416 l 2
 554.5 416 576 394.5 576 368 c 2
EndSplineSet
Validated: 513
EndChar

StartChar: rss
Encoding: 127 61598 123
Width: 448
Flags: W
LayerCount: 2
Fore
SplineSet
128.081 32.041 m 0
 128.081 -3.3281 99.4091 -32 64.04 -32 c 0
 28.6709 -32 -1.42108547152e-14 -3.3281 -1.42108547152e-14 32.041 c 0
 -1.42108547152e-14 67.4101 28.6719 96.082 64.041 96.082 c 0
 99.4101 96.082 128.081 67.4091 128.081 32.041 c 0
303.741 -15.209 m 1
 304.235141 -24.34377 296.89432 -32 287.7459 -31.999 c 2
 239.6766 -31.999 l 2
 231.26254 -31.999 224.2059 -25.50877 223.659 -17.1123 c 0
 216.36017 94.9577 126.7186 184.3757 14.887 191.6597 c 0
 6.49052 192.205598 0.000300000000001 199.26224 0.000300000000001 207.6773 c 2
 0.000300000000001 255.7466 l 2
 0.000300000000001 264.89406 7.65655 272.2349 16.7913 271.7407 c 0
 171.5563 263.37742 295.3873 139.3897 303.7413 -15.2093 c 1
 303.741 -15.209 l 1
447.99 -15.4971 m 1
 448.314219 -24.52737 441.01832 -32 431.9851 -32.001 c 2
 383.9167 -32.001 l 2
 375.29072 -32.001 368.2712 -25.16604 367.9177 -16.5479 c 0
 360.07981 174.6001 206.6317 328.0781 15.4527 335.9171 c 0
 6.83454 336.271592 -0.000400000000006 343.29112 -0.000400000000006 351.9161 c 2
 -0.000400000000006 399.9845 l 2
 -0.000400000000006 409.01868 7.47226 416.3146 16.5025 415.9904 c 0
 251.4645 407.55485 439.5955 218.3234 447.9895 -15.4966 c 1
 447.99 -15.4971 l 1
EndSplineSet
Validated: 33
EndChar

StartChar: hdd
Encoding: 128 61600 124
Width: 576
Flags: W
LayerCount: 2
Fore
SplineSet
576 144 m 2
 576 48 l 2
 576 21.4902 554.5098 0 528 0 c 2
 48 0 l 2
 21.4902 0 0 21.4902 0 48 c 2
 0 144 l 2
 0 170.5098 21.4902 192 48 192 c 2
 528 192 l 2
 554.5098 192 576 170.5098 576 144 c 2
528 224 m 1
 48 224 l 1
 47.9306641 224 l 2
 39.1132841 224 25.3564641 221.23828 17.2226641 217.83496 c 1
 113.7509641 362.62596 l 2
 121.6171741 374.42476 139.5087641 383.99996 153.6894641 383.99996 c 2
 422.3104641 383.99996 l 2
 436.4911641 383.99996 454.3836641 374.42379 462.2499641 362.62596 c 2
 558.7772641 217.83496 l 1
 550.6434741 221.23828 536.8866641 224 528.0692641 224 c 2
 528 224 l 1
480 128 m 0
 462.3271 128 448 113.6729 448 96 c 0
 448 78.3271 462.3271 64 480 64 c 0
 497.6729 64 512 78.3271 512 96 c 0
 512 113.6729 497.6729 128 480 128 c 0
384 128 m 0
 366.3271 128 352 113.6729 352 96 c 0
 352 78.3271 366.3271 64 384 64 c 0
 401.6729 64 416 78.3271 416 96 c 0
 416 113.6729 401.6729 128 384 128 c 0
EndSplineSet
Validated: 1
EndChar

StartChar: hand-point-right
Encoding: 131 61604 125
Width: 512
LayerCount: 2
Fore
SplineSet
512 248.348 m 1
 512 224.723 491.3496 204.5228 467.2002 204.5228 c 2
 367.3486 204.5228 l 1
 383.6894 187.474 385.6953 154.7562 361.04977 133.5785 c 1
 375.33787 110.7494 363.19723 80.5609 344.59957 71.2631 c 1
 353.57418 22.1225 322.65427 0.000400000000027 271.99997 0.000400000000027 c 0
 269.25388 0.000400000000027 258.72357 0.203525 255.99997 0.195712 c 0
 194.02927 0.027743 179.10637 31.260212 132.26897 38.510212 c 0
 120.59607 40.317832 112.00037 50.401812 112.00037 62.214312 c 2
 112.00037 233.739312 l 1
 112.00232312 233.740288562 l 1
 112.01306532 252.106488562 122.60972312 269.628988562 140.46622312 277.584988562 c 0
 169.35192312 290.579088562 235.87932312 326.623088562 248.00022312 354.908188562 c 0
 255.79710312 373.101588562 269.38402312 383.992188562 288.00022312 383.999988562 c 0
 322.22192312 384.013660462 345.75222312 348.902288562 332.11932312 317.091788562 c 0
 328.53631312 308.733388562 323.80682312 300.421888562 317.96602312 292.173788562 c 1
 467.20002312 292.173788562 l 2
 490.65022312 292.173788562 511.99982312 271.630788562 511.99982312 248.347588562 c 1
 512 248.348 l 1
96 248 m 2
 96 56 l 2
 96 42.7451 85.2549 32 72 32 c 2
 24 32 l 2
 10.7451 32 0 42.7451 0 56 c 2
 0 248 l 2
 0 261.2549 10.7451 272 24 272 c 2
 72 272 l 2
 85.2549 272 96 261.2549 96 248 c 2
68 80 m 0
 68 91.0459 59.0459 100 48 100 c 0
 36.9541 100 28 91.0459 28 80 c 0
 28 68.9541 36.9541 60 48 60 c 0
 59.0459 60 68 68.9541 68 80 c 0
EndSplineSet
Validated: 545
EndChar

StartChar: hand-point-left
Encoding: 132 61605 126
Width: 512
LayerCount: 2
Fore
SplineSet
44.7998 292.174 m 1
 194.0338 292.174 l 1
 188.19298 300.42205 183.4635 308.7326 179.8805 317.092 c 0
 166.2477 348.9025 189.77796 384.0139 223.9996 384.0002 c 0
 242.6158 383.9923875 256.2027 373.1027 263.9996 354.9084 c 0
 276.1217 326.6223 342.648 290.5793 371.5336 277.5852 c 0
 389.39 269.62915 399.9867 252.1067 399.9975 233.7405 c 1
 399.99945312 233.739523438 l 1
 399.99945312 62.213523438 l 2
 399.99945312 50.402023438 391.40375312 40.317023438 379.73085312 38.510423438 c 0
 332.89295312 31.260423438 317.97015312 0.028023438 255.99985312 0.195923438 c 0
 253.27622312 0.202759378 242.74595312 0.00061143799998 239.99985312 0.00061143799998 c 0
 189.34555312 0.00061143799998 158.42565312 22.122711438 167.40025312 71.263311438 c 1
 148.80255312 80.560191438 136.66195312 110.749611438 150.95005312 133.578711438 c 1
 126.30455312 154.755511438 128.31045312 187.474211438 144.65122312 204.523011438 c 1
 44.79962312 204.523011438 l 2
 20.65022312 204.523011438 -0.000176880000005 224.723211438 -0.000176880000005 248.348211438 c 0
 -0.000176880000005 271.631411438 21.34942312 292.174411438 44.79962312 292.174411438 c 1
 44.7998 292.174 l 1
440 272 m 2
 488 272 l 2
 501.2549 272 512 261.2549 512 248 c 2
 512 56 l 2
 512 42.7451 501.2549 32 488 32 c 2
 440 32 l 2
 426.7451 32 416 42.7451 416 56 c 2
 416 248 l 2
 416 261.2549 426.7451 272 440 272 c 2
464 60 m 0
 475.0459 60 484 68.9541 484 80 c 0
 484 91.0459 475.0459 100 464 100 c 0
 452.9541 100 444 91.0459 444 80 c 0
 444 68.9541 452.9541 60 464 60 c 0
EndSplineSet
Validated: 545
EndChar

StartChar: hand-point-up
Encoding: 133 61606 127
Width: 384
Flags: W
LayerCount: 2
Fore
SplineSet
135.652 448 m 1
 159.277 448 179.4772 427.3496 179.4772 403.2002 c 2
 179.4772 303.3486 l 1
 196.526 319.6894 229.2438 321.6953 250.4215 297.04977 c 1
 273.2506 311.33787 303.4391 299.19723 312.7369 280.59957 c 1
 361.8775 289.57418 383.9996 258.65427 383.9996 207.99997 c 0
 383.9996 205.25388 383.796475 194.72357 383.804288 191.99997 c 0
 383.972257 130.02927 352.739788 115.10637 345.489788 68.26897 c 0
 343.682168 56.59607 333.598188 48.00037 321.785688 48.00037 c 2
 150.260688 48.00037 l 1
 150.259711438 48.00232312 l 1
 131.893511438 48.01306532 114.371011438 58.60972312 106.415011438 76.46622312 c 0
 93.420911438 105.35192312 57.376911438 171.87832312 29.091811438 184.00022312 c 0
 10.897511438 191.79710312 0.00781143799998 205.38402312 1.143799998e-05 224.00022312 c 0
 -0.013660462 258.22192312 35.097711438 281.75222312 66.908211438 268.11932312 c 0
 75.266611438 264.53631312 83.578111438 259.80682312 91.826211438 253.96602312 c 1
 91.826211438 403.20002312 l 2
 91.826211438 426.65022312 112.369211438 447.99982312 135.652411438 447.99982312 c 1
 135.652 448 l 1
136 32 m 2
 328 32 l 2
 341.2549 32 352 21.2549 352 8 c 2
 352 -40 l 2
 352 -53.2549 341.2549 -64 328 -64 c 2
 136 -64 l 2
 122.7451 -64 112 -53.2549 112 -40 c 2
 112 8 l 2
 112 21.2549 122.7451 32 136 32 c 2
304 4 m 0
 292.9541 4 284 -4.9541 284 -16 c 0
 284 -27.0459 292.9541 -36 304 -36 c 0
 315.0459 -36 324 -27.0459 324 -16 c 0
 324 -4.9541 315.0459 4 304 4 c 0
EndSplineSet
Validated: 545
EndChar

StartChar: hand-point-down
Encoding: 134 61607 128
Width: 384
Flags: W
LayerCount: 2
Fore
SplineSet
91.8262 -19.2002 m 1
 91.8262 130.0338 l 1
 83.57815 124.19298 75.2676 119.4635 66.9082 115.8805 c 0
 35.0977 102.2477 -0.0137 125.77796 0 159.9996 c 0
 0.0078125 178.6158 10.8975 192.2027 29.0918 199.9996 c 0
 57.3779 212.1217 93.4209 278.648 106.415 307.5336 c 0
 114.37105 325.39 131.8935 335.9867 150.2597 335.9975 c 1
 150.260676562 335.99945312 l 1
 321.786676562 335.99945312 l 2
 333.598176562 335.99945312 343.683176562 327.40375312 345.489776562 315.73085312 c 0
 352.739776562 268.89295312 383.972176562 253.97015312 383.804276562 191.99985312 c 0
 383.797440622 189.27622312 383.999588562 178.74595312 383.999588562 175.99985312 c 0
 383.999588562 125.34555312 361.877488562 94.42565312 312.736888562 103.40025312 c 1
 303.440008562 84.80255312 273.250588562 72.66195312 250.421488562 86.95005312 c 1
 229.244688562 62.30455312 196.525988562 64.31045312 179.477188562 80.65122312 c 1
 179.477188562 -19.20037688 l 2
 179.477188562 -43.34977688 159.276988562 -64.00017688 135.651988562 -64.00017688 c 0
 112.368788562 -64.00017688 91.825788562 -42.65057688 91.825788562 -19.20037688 c 1
 91.8262 -19.2002 l 1
112 376 m 2
 112 424 l 2
 112 437.2549 122.7451 448 136 448 c 2
 328 448 l 2
 341.2549 448 352 437.2549 352 424 c 2
 352 376 l 2
 352 362.7451 341.2549 352 328 352 c 2
 136 352 l 2
 122.7451 352 112 362.7451 112 376 c 2
324 400 m 0
 324 411.0459 315.0459 420 304 420 c 0
 292.9541 420 284 411.0459 284 400 c 0
 284 388.9541 292.9541 380 304 380 c 0
 315.0459 380 324 388.9541 324 400 c 0
EndSplineSet
Validated: 545
EndChar

StartChar: arrow-circle-left
Encoding: 135 61608 129
Width: 512
LayerCount: 2
Fore
SplineSet
256 -56 m 0
 119 -56 8 55 8 192 c 0
 8 329 119 440 256 440 c 0
 393 440 504 329 504 192 c 0
 504 55 393 -56 256 -56 c 0
284.9 87.5996 m 1
 209.4 160 l 1
 392 160 l 2
 405.2998 160 416 170.7002 416 184 c 2
 416 200 l 2
 416 213.2998 405.2998 224 392 224 c 2
 209.4 224 l 1
 284.9 296.4004 l 2
 294.59922 305.7002 294.79941 321.2002 285.299414 330.7002 c 2
 274.299414 341.5996 l 2
 264.900004 350.99999 249.699814 350.99999 240.400014 341.5996 c 2
 107.700014 208.9996 l 2
 98.299624 199.59921 98.299624 184.4 107.700014 175.0992 c 2
 240.400014 42.4002 l 2
 249.799424 32.99981 264.999614 32.99981 274.299414 42.4002 c 2
 285.299414 53.2996 l 2
 294.799414 62.7996 294.599214 78.2996 284.9 87.5994 c 1
 284.9 87.5996 l 1
EndSplineSet
Validated: 545
EndChar

StartChar: arrow-circle-right
Encoding: 136 61609 130
Width: 512
LayerCount: 2
Fore
SplineSet
256 440 m 0
 393 440 504 329 504 192 c 0
 504 55 393 -56 256 -56 c 0
 119 -56 8 55 8 192 c 0
 8 329 119 440 256 440 c 0
227.1 296.4 m 1
 302.6 223.9996 l 1
 120 223.9996 l 2
 106.7002 223.9996 96 213.2994 96 199.9996 c 2
 96 183.9996 l 2
 96 170.6998 106.7002 159.9996 120 159.9996 c 2
 302.6 159.9996 l 1
 227.1 87.5992 l 2
 217.40078 78.2994 217.20059 62.7994 226.700586 53.2994 c 2
 237.700586 42.4 l 2
 247.099996 32.99961 262.300186 32.99961 271.599986 42.4 c 2
 404.299986 175 l 2
 413.700376 184.40039 413.700376 199.5996 404.299986 208.9004 c 2
 271.599986 341.7004 l 2
 262.200576 351.09981 247.000386 351.09981 237.700586 341.7004 c 2
 226.700586 330.8 l 2
 217.200586 321.20039 217.400786 305.7004 227.1 296.4006 c 1
 227.1 296.4 l 1
EndSplineSet
Validated: 545
EndChar

StartChar: arrow-circle-up
Encoding: 137 61610 131
Width: 512
LayerCount: 2
Fore
SplineSet
8 192 m 0
 8 329 119 440 256 440 c 0
 393 440 504 329 504 192 c 0
 504 55 393 -56 256 -56 c 0
 119 -56 8 55 8 192 c 0
151.6 163.1 m 1
 224.0004 238.6 l 1
 224.0004 56 l 2
 224.0004 42.7002 234.7006 32 248.0004 32 c 2
 264.0004 32 l 2
 277.3002 32 288.0004 42.7002 288.0004 56 c 2
 288.0004 238.6 l 1
 360.4008 163.1 l 2
 369.7006 153.40078 385.2006 153.20059 394.7006 162.700586 c 2
 405.6 173.700586 l 2
 415.00039 183.099996 415.00039 198.300186 405.6 207.599986 c 2
 273 340.299986 l 2
 263.59961 349.700376 248.4004 349.700376 239.0996 340.299986 c 2
 106.2996 207.599986 l 2
 96.90019 198.200576 96.90019 183.000386 106.2996 173.700586 c 2
 117.2 162.700586 l 2
 126.79961 153.200586 142.2996 153.400786 151.5994 163.1 c 1
 151.6 163.1 l 1
EndSplineSet
Validated: 545
EndChar

StartChar: arrow-circle-down
Encoding: 138 61611 132
Width: 512
LayerCount: 2
Fore
SplineSet
504 192 m 0
 504 55 393 -56 256 -56 c 0
 119 -56 8 55 8 192 c 0
 8 329 119 440 256 440 c 0
 393 440 504 329 504 192 c 0
360.4 220.9 m 2
 287.9996 145.4 l 1
 287.9996 328 l 2
 287.9996 341.2998 277.2994 352 263.9996 352 c 2
 247.9996 352 l 2
 234.6998 352 223.9996 341.2998 223.9996 328 c 2
 223.9996 145.4 l 1
 151.5992 220.9 l 2
 142.2994 230.59922 126.7994 230.79941 117.2994 221.299414 c 2
 106.4 210.299414 l 2
 96.99961 200.900004 96.99961 185.699814 106.4 176.400014 c 2
 239 43.700014 l 2
 248.40039 34.299624 263.5996 34.299624 272.9004 43.700014 c 2
 405.5994 176.400014 l 2
 414.99979 185.799424 414.99979 200.999614 405.5994 210.299414 c 2
 394.7 221.299414 l 2
 385.2 230.799414 369.7 230.599214 360.4 220.9 c 2
EndSplineSet
Validated: 545
EndChar

StartChar: globe
Encoding: 139 61612 133
Width: 496
Flags: W
LayerCount: 2
Fore
SplineSet
336.5 288 m 1
 159.5 288 l 1
 174 377.2998 208.2002 440 248 440 c 0
 287.7998 440 322 377.2998 336.5 288 c 1
152 192 m 0
 152 214.2002 153.2002 235.5 155.2998 256 c 1
 340.5998 256 l 1
 342.70039 235.5 343.90058 214.2002 343.90058 192 c 0
 343.90058 169.7998 342.70038 148.5 340.5998 128 c 1
 155.2998 128 l 1
 153.20019 148.5 152 169.7998 152 192 c 0
476.7 288 m 1
 368.7 288 l 1
 359.9002 344.9004 343.0994 395.8 318.7 429.6 c 1
 390.2 408.4008 448.099 355.9008 476.7 288 c 1
177.2 429.6 m 1
 152.7996 395.8002 135.9998 344.9008 127.2996 288 c 1
 19.2996 288 l 1
 47.7996 355.9004 105.7996 408.4 177.1996 429.6 c 1
 177.2 429.6 l 1
487.4 256 m 1
 492.79941 235.5 495.9 214.2002 495.9 192 c 0
 495.9 169.7998 492.79941 148.5 487.29941 128 c 1
 372.69941 128 l 1
 374.79902 149 375.99921 170.5 375.99921 192 c 0
 375.99921 213.5 374.79901 235 372.69941 256 c 1
 487.39941 256 l 1
 487.4 256 l 1
120 192 m 1
 120 170.5 121.2002 149 123.2002 128 c 1
 8.5992 128 l 1
 3.19979 148.5 -0.000410000000004 169.7998 -0.000410000000004 192 c 0
 -0.000410000000004 214.2002 3.19979 235.5 8.5992 256 c 1
 123.2992 256 l 1
 121.19959 235 119.9994 213.5 119.9994 192 c 1
 120 192 l 1
159.5 96 m 1
 336.5 96 l 1
 322 6.7002 287.7998 -56 248 -56 c 0
 208.2002 -56 174 6.7002 159.5 96 c 1
318.8 -45.5996 m 1
 343.2004 -11.7998 360.0002 39.0996 368.8 96.0004 c 1
 476.8 96.0004 l 1
 448.2004 28.1 390.2004 -24.3996 318.8 -45.5996 c 1
19.2998 96 m 1
 127.2998 96 l 1
 136.0996 39.0996 152.9004 -11.8 177.2998 -45.6 c 1
 105.7998 -24.4008 47.9008 28.0992 19.2998 96 c 1
EndSplineSet
Validated: 1
EndChar

StartChar: wrench
Encoding: 140 61613 134
Width: 512
LayerCount: 2
Fore
SplineSet
507.73 338.9 m 1
 519.5191 291.4898 506.88918 239.2398 469.8198 202.17 c 0
 429.9194 162.2696 372.5698 151.2403 322.4498 167.9503 c 1
 109.2398 -45.2597 l 2
 84.2496 -70.2499 43.73 -70.2499 18.7398 -45.2597 c 0
 -6.2504 -20.2695 -6.2504 20.2501 18.7398 45.2403 c 2
 232.1298 258.6303 l 1
 215.6298 308.7309 226.53996 366.1913 266.1796 405.8303 c 0
 303.2099 442.8498 355.3798 455.5002 402.7596 443.76 c 0
 411.84944 441.50023 415.0399 430.22 408.41976 423.5998 c 2
 334.05936 349.2404 l 1
 345.36986 281.3605 l 1
 413.24976 270.05 l 1
 487.61016 344.4104 l 2
 494.19024 350.99048 505.49006 347.92993 507.73026 338.90063 c 1
 507.73 338.9 l 1
64 -24 m 0
 77.25 -24 88 -13.25 88 0 c 0
 88 13.2598 77.25 24 64 24 c 0
 50.75 24 40 13.2598 40 0 c 0
 40 -13.25 50.75 -24 64 -24 c 0
EndSplineSet
Validated: 33
EndChar

StartChar: tasks
Encoding: 141 61614 135
Width: 512
LayerCount: 2
Fore
SplineSet
208 316 m 2
 199.2002 316 192 323.2002 192 332 c 2
 192 372 l 2
 192 380.7998 199.2002 388 208 388 c 2
 496 388 l 2
 504.7998 388 512 380.7998 512 372 c 2
 512 332 l 2
 512 323.2002 504.7998 316 496 316 c 2
 208 316 l 2
208 156 m 2
 199.2002 156 192 163.2002 192 172 c 2
 192 212 l 2
 192 220.7998 199.2002 228 208 228 c 2
 496 228 l 2
 504.7998 228 512 220.7998 512 212 c 2
 512 172 l 2
 512 163.2002 504.7998 156 496 156 c 2
 208 156 l 2
208 -4 m 2
 199.2002 -4 192 3.2002 192 12 c 2
 192 52 l 2
 192 60.7998 199.2002 68 208 68 c 2
 496 68 l 2
 504.7998 68 512 60.7998 512 52 c 2
 512 12 l 2
 512 3.2002 504.7998 -4 496 -4 c 2
 208 -4 l 2
64 80 m 0
 90.5 80 112 58.5 112 32 c 0
 112 5.5 90.5 -16 64 -16 c 0
 37.5 -16 15.4004 5.5 15.4004 32 c 0
 15.4004 58.5 37.5 80 64 80 c 0
156.5 379 m 2
 84.2998 306.7998 l 1
 68.7002 291.2002 l 2
 64 286.5 55.7998 286.5 51.0996 291.2002 c 2
 3.5 338.5996 l 2
 -1.2002 343.2998 -1.2002 350.9004 3.5 355.5996 c 2
 19.2002 371.2998 l 2
 23.9004 376 31.5 376 36.2002 371.2998 c 2
 58.9004 349.2002 l 1
 122.5996 412.5 l 2
 127.2998 417.2002 134.9004 417.2002 139.5996 412.5 c 2
 156.5996 396 l 2
 161.20019 391.2998 161.20019 383.7002 156.5 379 c 2
156.5 219.4 m 2
 84.2998 147.1998 l 1
 68.5996 131.4996 l 2
 63.90038 126.7994 55.7002 126.7994 51 131.4996 c 2
 3.5 178.9996 l 2
 -1.2002 183.6998 -1.2002 191.2994 3.5 195.9996 c 2
 19.2002 211.6998 l 2
 23.9004 216.4 31.5 216.4 36.2002 211.6998 c 2
 58.9004 189.5992 l 1
 122.5996 253.2994 l 2
 127.2998 257.9996 134.9004 257.9996 139.5996 253.2994 c 2
 156.5996 236.2994 l 2
 161.20019 231.69979 161.20019 224.0992 156.5 219.4 c 2
EndSplineSet
Validated: 33
EndChar

StartChar: filter
Encoding: 142 61616 136
Width: 512
LayerCount: 2
Fore
SplineSet
487.976 448 m 1
 509.3383 448 520.0219 422.1035 504.9477 407.0293 c 2
 320.0007 222.0583 l 1
 320.0007 -39.9807 l 2
 320.0007 -59.4934 298.0202 -70.6907 282.238 -59.6418 c 2
 202.238 -3.6623 l 2
 195.82198 0.82989 192.0007 8.1688 192.0007 15.9998 c 2
 192.0007 222.0588 l 1
 7.0587 407.0298 l 2
 -8.0458 422.1343 2.71104 448.0005 24.0294 448.0005 c 2
 487.9764 448.0005 l 1
 487.976 448 l 1
EndSplineSet
Validated: 33
EndChar

StartChar: briefcase
Encoding: 143 61617 137
Width: 512
LayerCount: 2
Fore
SplineSet
320 112 m 2
 320 160 l 1
 512 160 l 1
 512 16 l 2
 512 -9.5996 489.5996 -32 464 -32 c 2
 48 -32 l 2
 22.4004 -32 0 -9.5996 0 16 c 2
 0 160 l 1
 192 160 l 1
 192 112 l 2
 192 103.16016 199.16016 96 208 96 c 2
 304 96 l 2
 312.83984 96 320 103.16016 320 112 c 2
464 320 m 2
 489.5996 320 512 297.5996 512 272 c 2
 512 192 l 1
 0 192 l 1
 0 272 l 2
 0 297.5996 22.4004 320 48 320 c 2
 128 320 l 1
 128 368 l 2
 128 393.5996 150.4004 416 176 416 c 2
 336 416 l 2
 361.5996 416 384 393.5996 384 368 c 2
 384 320 l 1
 464 320 l 2
320 320 m 1
 320 352 l 1
 192 352 l 1
 192 320 l 1
 320 320 l 1
EndSplineSet
Validated: 1
EndChar

StartChar: arrows-alt
Encoding: 144 61618 138
Width: 512
LayerCount: 2
Fore
SplineSet
352.201 22.2246 m 2
 273.0047 -56.9707 l 2
 263.63165 -66.34375 248.4363 -66.34375 239.0643 -56.9707 c 2
 159.868 22.2246 l 2
 144.7489 37.3437 155.45687 63.1963 176.8387 63.1953 c 2
 228.0008 63.1953 l 1
 227.999823438 164.0003 l 1
 127.195823438 164.0003 l 1
 127.195823438 112.8382 l 2
 127.195823438 91.4564 101.344223438 80.7484 86.224123438 95.8675 c 2
 7.028823438 175.0638 l 2
 -2.344226562 184.43587 -2.344226562 199.6322 7.028823438 209.0042 c 2
 86.224123438 288.2005 l 2
 101.343223438 303.3196 127.195823438 292.61163 127.195823438 271.2288 c 2
 127.195823438 220.0003 l 1
 227.999823438 220.0003 l 1
 227.999823438 320.8043 l 1
 176.769323438 320.8043 l 2
 155.387523438 320.8043 144.679523438 346.6559 159.798623438 361.776 c 2
 238.994923438 440.9713 l 2
 248.367973438 450.34435 263.563323438 450.34435 272.935323438 440.9713 c 2
 352.131623438 361.776 l 2
 367.250723438 346.6569 356.542753438 320.8043 335.160923438 320.8043 c 2
 283.998823438 320.8043 l 1
 283.998823438 220.0003 l 1
 384.802823438 220.0003 l 1
 384.802823438 271.1624 l 2
 384.802823438 292.5442 410.654423438 303.2522 425.773523438 288.1331 c 2
 504.968823438 208.9368 l 2
 514.341873438 199.56473 514.341873438 184.3684 504.968823438 174.9964 c 2
 425.773523438 95.8001 l 2
 410.654423438 80.681 384.801823438 91.38897 384.802823438 112.7718 c 2
 384.802823438 164.0003 l 1
 283.999823438 164.0003 l 1
 283.999823438 63.1963 l 1
 335.230323438 63.1963 l 2
 356.612123438 63.1963 367.320123438 37.3447 352.201 22.2246 c 2
EndSplineSet
Validated: 545
EndChar

StartChar: users
Encoding: 145 61632 139
Width: 640
Flags: W
LayerCount: 2
Fore
SplineSet
96 224 m 0
 60.7002 224 32 252.7002 32 288 c 0
 32 323.2998 60.7002 352 96 352 c 0
 131.2998 352 160 323.2998 160 288 c 0
 160 252.7002 131.2998 224 96 224 c 0
544 224 m 0
 508.7002 224 480 252.7002 480 288 c 0
 480 323.2998 508.7002 352 544 352 c 0
 579.2998 352 608 323.2998 608 288 c 0
 608 252.7002 579.2998 224 544 224 c 0
576 192 m 1
 611.2998 192 640 163.2998 640 128 c 2
 640 96 l 2
 640 78.2998 625.7002 64 608 64 c 2
 542 64 l 1
 535.7998 111.4004 507.2002 151.2998 466.9004 173.4 c 1
 478.5 184.9 494.4004 191.9996 512 191.9996 c 2
 576 191.9996 l 1
 576 192 l 1
320 192 m 0
 258.0996 192 208 242.0996 208 304 c 0
 208 365.9004 258.0996 416 320 416 c 0
 381.9004 416 432 365.9004 432 304 c 0
 432 242.0996 381.9004 192 320 192 c 0
396.8 160 m 2
 460.4006 160 512 108.4004 512 44.8 c 2
 512 16.0002 l 2
 512 -10.4998 490.5 -31.9998 464 -31.9998 c 2
 176 -31.9998 l 2
 149.5 -31.9998 128 -10.4998 128 16.0002 c 2
 128 44.8 l 2
 128 108.4006 179.5996 160 243.2 160 c 2
 251.4998 160 l 1
 272.4002 150 295.4002 144 319.9998 144 c 0
 344.5994 144 367.7 150 388.4998 160 c 1
 396.7996 160 l 1
 396.8 160 l 2
173.1 173.4 m 1
 132.8002 151.2994 104.2006 111.4 97.9008 64 c 1
 32.0004 64 l 2
 14.3002 64 0.000399999999985 78.2998 0.000399999999985 96 c 2
 0.000399999999985 128 l 2
 0.000399999999985 163.2998 28.7006 192 64.0004 192 c 2
 128.0004 192 l 2
 145.6 192 161.5004 184.90039 173.1 173.4004 c 1
 173.1 173.4 l 1
EndSplineSet
Validated: 1
EndChar

StartChar: link
Encoding: 146 61633 140
Width: 512
LayerCount: 2
Fore
SplineSet
326.612 262.609 m 0
 386.3591 202.7994 385.5388 106.911 326.971375 48.018 c 0
 326.862 47.898859 326.732117 47.768 326.612 47.648859 c 2
 259.4118 -19.551341 l 2
 200.1413 -78.821841 103.7128 -78.814041 44.4518 -19.551341 c 0
 -14.8187 39.708459 -14.8187 136.148659 44.4518 195.408659 c 2
 81.5573 232.514159 l 2
 91.39812 242.354979 108.3434 235.814939 108.8512 221.908659 c 0
 109.499638 204.185959 112.67737 186.381359 118.54163 169.187959 c 0
 120.52796 163.365689 119.109013 156.925259 114.75843 152.575659 c 2
 101.67153 139.488759 l 2
 73.64613 111.462359 72.76623 65.828559 100.51626 37.528759 c 0
 128.54066 8.949659 174.60216 8.779759 202.84126 37.018017 c 2
 270.04146 104.208417 l 2
 298.23286 132.399817 298.11466 177.965217 270.04146 206.038417 c 0
 266.34029 209.732757 262.61275 212.601897 259.70066 214.607757 c 0
 256.03562 217.123377 252.92332 222.770847 252.75339 227.213257 c 0
 252.357882 237.780657 256.10105 248.669357 264.45159 257.018957 c 2
 285.50529 278.074657 l 2
 291.02677 283.595167 299.68789 284.273877 306.08929 279.805127 c 0
 312.1723 275.558057 321.36569 267.853927 326.612 262.609 c 0
467.547 403.551 m 0
 526.8175 344.2912 526.8175 247.851 467.546023438 188.592 c 2
 430.440523438 151.4865 l 2
 420.599703438 141.64666 403.655323438 148.18572 403.146623438 162.092 c 0
 402.498185438 179.8147 399.320453438 197.6193 393.456193438 214.8137 c 0
 391.469863438 220.63499 392.888810438 227.0754 397.239393438 231.425 c 2
 410.326293438 244.5119 l 2
 438.352693438 272.5383 439.231593438 318.1721 411.481563438 346.4719 c 0
 383.456163438 375.051 337.394663438 375.2209 309.156563438 346.982642 c 2
 241.956363438 279.792242 l 2
 213.764963438 251.600842 213.883163438 206.035442 241.956363438 177.962242 c 0
 245.657533438 174.267902 249.385073438 171.398762 252.297163438 169.392902 c 0
 255.962203438 166.877282 259.074503438 161.229812 259.244433438 156.787402 c 0
 259.639941438 146.220002 255.896773438 135.331302 247.546233438 126.981702 c 2
 226.492533438 105.926002 l 2
 220.972023438 100.406472 212.309933438 99.726782 205.908533438 104.195532 c 0
 199.826503438 108.441622 190.633133438 116.145732 185.387033438 121.390832 c 0
 125.639933438 181.200432 126.461233438 277.088832 185.027658438 335.981832 c 0
 185.137033438 336.100973 185.266916438 336.231832 185.387033438 336.350973 c 2
 252.587233438 403.551173 l 2
 311.857733438 462.821673 408.286233438 462.813873 467.547 403.551 c 0
EndSplineSet
Validated: 33
EndChar

StartChar: cloud
Encoding: 147 61634 141
Width: 640
Flags: W
LayerCount: 2
Fore
SplineSet
537.6 221.4 m 1
 596.0004 209.5992 640 157.9 640 96 c 0
 640 25.2998 582.7002 -32 512 -32 c 2
 144 -32 l 2
 64.5 -32 0 32.5 0 112 c 0
 0 174.7998 40.2002 228.2 96.2002 247.9 c 0
 96.099614 250.59922 96.000005 253.29941 96.000005 255.99961 c 0
 96.000005 344.40001 167.599605 415.99961 256.000005 415.99961 c 0
 315.299805 415.99961 367.000005 383.79941 394.700005 335.79941 c 1
 409.900205 345.99961 428.299605 351.99961 447.999805 351.99961 c 0
 500.999805 351.99961 543.999805 308.99961 543.999805 255.99961 c 0
 543.999805 243.79941 541.700005 232.09921 537.599415 221.40001 c 1
 537.6 221.4 l 1
EndSplineSet
Validated: 1
EndChar

StartChar: flask
Encoding: 148 61635 142
Width: 448
Flags: W
LayerCount: 2
Fore
SplineSet
437.2 44.5 m 2
 466.4998 -2.5 432.79961 -64 377.0994 -64 c 2
 70.9004 -64 l 2
 15.2998 -64 -18.5 -2.5996 10.7998 44.5 c 2
 127.9998 233 l 1
 127.9998 384 l 1
 119.9998 384 l 2
 106.7 384 95.9998 394.7002 95.9998 408 c 2
 95.9998 424 l 2
 95.9998 437.2998 106.7 448 119.9998 448 c 2
 327.9998 448 l 2
 341.2996 448 351.9998 437.2998 351.9998 424 c 2
 351.9998 408 l 2
 351.9998 394.7002 341.2996 384 327.9998 384 c 2
 319.9998 384 l 1
 319.9998 233 l 1
 437.2 44.5 l 2
137.9 128 m 1
 309.9 128 l 1
 261.6998 205.5996 l 2
 258.09921 210.7998 255.9 217.0996 255.9 224 c 2
 255.9 384 l 1
 191.9 384 l 1
 191.9 224 l 2
 191.9 217.2002 189.79941 210.7998 186.09922 205.5996 c 2
 137.9 128 l 1
EndSplineSet
Validated: 33
EndChar

StartChar: cut
Encoding: 149 61636 143
Width: 448
Flags: W
LayerCount: 2
Fore
SplineSet
278.06 192 m 1
 444.481 25.57 l 2
 449.17045 20.87957 449.17045 13.28 444.481 8.5993 c 0
 411.6802 -24.2005 358.4908 -24.2005 325.691 8.5993 c 2
 210.18 124.1203 l 1
 185.3206 99.2599 l 1
 189.63017 88.34 192.00029 76.4503 192.00029 64.0001 c 0
 192.00029 10.9806 149.01979 -31.9999 96.00029 -31.9999 c 0
 42.98079 -31.9999 0.000289999999978 10.9806 0.000289999999978 64.0001 c 0
 0.000289999999978 117.0196 42.98079 160.0001 96.00029 160.0001 c 0
 100.53056 160.0001 104.99052 159.679788 109.36069 159.070412 c 2
 142.29039 192.000112 l 1
 109.36069 224.929812 l 2
 104.99057 224.320437 100.54038 224.000124 96.00029 224.000124 c 0
 42.98079 224.000124 0.000289999999978 266.980624 0.000289999999978 320.000124 c 0
 0.000289999999978 373.019624 42.98079 416.000124 96.00029 416.000124 c 0
 149.01979 416.000124 192.00029 373.019624 192.00029 320.000124 c 0
 192.00029 307.549924 189.63017 295.660324 185.3206 284.740324 c 1
 210.18 259.879924 l 1
 325.691 375.400924 l 2
 358.4908 408.200724 411.6803 408.200724 444.481 375.400924 c 0
 449.17045 370.720264 449.17045 363.120624 444.481 358.430224 c 2
 278.06 192 l 1
96 288 m 0
 113.6396 288 128 302.3604 128 320 c 0
 128 337.6396 113.6396 352 96 352 c 0
 78.3604 352 64 337.6396 64 320 c 0
 64 302.3604 78.3604 288 96 288 c 0
96 32 m 0
 113.6396 32 128 46.3604 128 64 c 0
 128 81.6396 113.6396 96 96 96 c 0
 78.3604 96 64 81.6396 64 64 c 0
 64 46.3604 78.3604 32 96 32 c 0
EndSplineSet
Validated: 33
EndChar

StartChar: copy
Encoding: 150 61637 144
Width: 448
Flags: W
LayerCount: 2
Fore
SplineSet
320 0 m 1
 320 -40 l 2
 320 -53.2549 309.2549 -64 296 -64 c 2
 24 -64 l 2
 10.7451 -64 0 -53.2549 0 -40 c 2
 0 328 l 2
 0 341.2549 10.7451 352 24 352 c 2
 96 352 l 1
 96 56 l 2
 96 25.1211 121.1211 0 152 0 c 2
 320 0 l 1
320 344 m 2
 320 330.7998 330.7998 320 344 320 c 2
 448 320 l 1
 448 56 l 2
 448 42.7451 437.2549 32 424 32 c 2
 152 32 l 2
 138.7451 32 128 42.7451 128 56 c 2
 128 424 l 2
 128 437.2549 138.7451 448 152 448 c 2
 320 448 l 1
 320 344 l 2
440.971 375.029 m 2
 444.85088 371.14814 448.0003 363.5456 448.0003 358.0583 c 2
 448.0003 351.99971 l 1
 352.0003 351.99971 l 1
 352.0003 447.99971 l 1
 358.05889 447.99971 l 2
 363.54619 447.99971 371.14869 444.8503 375.02959 440.97041 c 2
 440.971 375.029 l 2
EndSplineSet
Validated: 1
EndChar

StartChar: paperclip
Encoding: 151 61638 145
Width: 448
Flags: W
LayerCount: 2
Fore
SplineSet
43.2461 -18.1416 m 1
 -15.1836 42.1475 -14.0947 139.3694 44.63184 199.4394 c 2
 254.39184 414.0004 l 2
 298.70824 459.3324 370.74384 459.3363 415.06384 414.0004 c 0
 458.95344 369.1068 459.00624 296.6714 415.06384 251.7244 c 2
 232.21384 64.8724 l 2
 202.35934 34.3353 153.58104 34.7611 124.23284 65.870447 c 0
 95.95744 95.840147 96.86464 143.343147 125.68401 172.823447 c 2
 269.42701 319.658447 l 2
 275.60963 325.971927 285.73951 326.080327 292.05301 319.899658 c 2
 314.91431 297.519758 l 2
 321.22876 291.338118 321.33619 281.208258 315.155521 274.893758 c 2
 171.426521 128.073758 l 2
 166.494881 123.028838 166.191171 114.645058 170.77906 109.781758 c 0
 175.15113 105.147968 182.02416 105.070818 186.46656 109.616719 c 2
 369.31656 296.467719 l 2
 388.92886 316.530219 388.92886 349.193319 369.3048412 369.265619 c 0
 350.1163412 388.892619 319.3478412 388.903319 300.1515412 369.265619 c 2
 90.3895412 154.705619 l 2
 55.6268412 119.145119 55.0907412 61.585519 89.1991112 26.392619 c 0
 123.2089112 -8.700181 178.1835112 -8.744081 212.2571112 26.107463 c 2
 384.3181112 202.106463 l 2
 390.4948712 208.424823 400.6247112 208.539083 406.9441112 202.362322 c 2
 429.8211112 179.998022 l 2
 436.1394712 173.821262 436.2547012 163.691422 430.0769702 157.372022 c 2
 258.0159702 -18.625978 l 2
 198.4407702 -79.564478 102.0739702 -78.841778 43.2459702 -18.140626 c 1
 43.2461 -18.1416 l 1
EndSplineSet
Validated: 33
EndChar

StartChar: save
Encoding: 152 61639 146
Width: 448
Flags: W
LayerCount: 2
Fore
SplineSet
433.941 318.059 m 2
 441.70077 310.29923 447.9996 295.0932 447.9996 284.1186 c 2
 447.9996 16.0006 l 2
 447.9996 -10.5092 426.5094 -31.9994 399.9996 -31.9994 c 2
 47.9996 -31.9994 l 2
 21.4898 -31.9994 -0.000400000000013 -10.5092 -0.000400000000013 16.0006 c 2
 -0.000400000000013 368.0006 l 2
 -0.000400000000013 394.5104 21.4898 416.0006 47.9996 416.0006 c 2
 316.1176 416.0006 l 2
 327.0922 416.0006 342.2983 409.70177 350.058 401.942 c 2
 433.941 318.059 l 2
224 32 m 0
 259.3457 32 288 60.6543 288 96 c 0
 288 131.3457 259.3457 160 224 160 c 0
 188.6543 160 160 131.3457 160 96 c 0
 160 60.6543 188.6543 32 224 32 c 0
320 336.52 m 2
 320 339.26316 318.4248 343.0659 316.48535 345.00535 c 2
 313.00488 348.48582 l 2
 310.75488 350.7368 307.70312 352.00047 304.51953 352.00047 c 2
 75.99953 352.00047 l 2
 69.37258 352.00047 63.99953 346.62742 63.99953 340.00047 c 2
 63.99953 236.00047 l 2
 63.99953 229.37352 69.37258 224.00047 75.99953 224.00047 c 2
 307.99953 224.00047 l 2
 314.62648 224.00047 319.99953 229.37352 319.99953 236.00047 c 2
 319.99953 336.52047 l 1
 320 336.52 l 2
EndSplineSet
Validated: 1
EndChar

StartChar: square
Encoding: 153 61640 147
Width: 448
Flags: W
LayerCount: 2
Fore
SplineSet
400 416 m 2
 426.5 416 448 394.5 448 368 c 2
 448 16 l 2
 448 -10.5 426.5 -32 400 -32 c 2
 48 -32 l 2
 21.5 -32 0 -10.5 0 16 c 2
 0 368 l 2
 0 394.5 21.5 416 48 416 c 2
 400 416 l 2
EndSplineSet
Validated: 1
EndChar

StartChar: bars
Encoding: 154 61641 148
Width: 448
Flags: W
LayerCount: 2
Fore
SplineSet
16 316 m 2
 7.16309 316 0 323.16309 0 332 c 2
 0 372 l 2
 0 380.83691 7.16309 388 16 388 c 2
 432 388 l 2
 440.83691 388 448 380.83691 448 372 c 2
 448 332 l 2
 448 323.16309 440.83691 316 432 316 c 2
 16 316 l 2
16 156 m 2
 7.16309 156 0 163.16309 0 172 c 2
 0 212 l 2
 0 220.83691 7.16309 228 16 228 c 2
 432 228 l 2
 440.83691 228 448 220.83691 448 212 c 2
 448 172 l 2
 448 163.16309 440.83691 156 432 156 c 2
 16 156 l 2
16 -4 m 2
 7.16309 -4 0 3.16309 0 12 c 2
 0 52 l 2
 0 60.83691 7.16309 68 16 68 c 2
 432 68 l 2
 440.83691 68 448 60.83691 448 52 c 2
 448 12 l 2
 448 3.16309 440.83691 -4 432 -4 c 2
 16 -4 l 2
EndSplineSet
Validated: 1
EndChar

StartChar: list-ul
Encoding: 155 61642 149
Width: 512
LayerCount: 2
Fore
SplineSet
96 352 m 0
 96 325.4902 74.5098 304 48 304 c 0
 21.4902 304 0 325.4902 0 352 c 0
 0 378.5098 21.4902 400 48 400 c 0
 74.5098 400 96 378.5098 96 352 c 0
48 240 m 0
 74.5098 240 96 218.5098 96 192 c 0
 96 165.4902 74.5098 144 48 144 c 0
 21.4902 144 0 165.4902 0 192 c 0
 0 218.5098 21.4902 240 48 240 c 0
48 80 m 0
 74.5098 80 96 58.5098 96 32 c 0
 96 5.4902 74.5098 -16 48 -16 c 0
 21.4902 -16 0 5.4902 0 32 c 0
 0 58.5098 21.4902 80 48 80 c 0
144 316 m 2
 135.16309 316 128 323.16309 128 332 c 2
 128 372 l 2
 128 380.83691 135.16309 388 144 388 c 2
 496 388 l 2
 504.83691 388 512 380.83691 512 372 c 2
 512 332 l 2
 512 323.16309 504.83691 316 496 316 c 2
 144 316 l 2
144 156 m 2
 135.16309 156 128 163.16309 128 172 c 2
 128 212 l 2
 128 220.83691 135.16309 228 144 228 c 2
 496 228 l 2
 504.83691 228 512 220.83691 512 212 c 2
 512 172 l 2
 512 163.16309 504.83691 156 496 156 c 2
 144 156 l 2
144 -4 m 2
 135.16309 -4 128 3.16309 128 12 c 2
 128 52 l 2
 128 60.83691 135.16309 68 144 68 c 2
 496 68 l 2
 504.83691 68 512 60.83691 512 52 c 2
 512 12 l 2
 512 3.16309 504.83691 -4 496 -4 c 2
 144 -4 l 2
EndSplineSet
Validated: 513
EndChar

StartChar: list-ol
Encoding: 156 61643 150
Width: 512
LayerCount: 2
Fore
SplineSet
3.2627 308.473 m 1
 3.2627 315.95054 7.17969 320.0453 14.8359 320.0453 c 2
 29.9668 320.0453 l 1
 29.9668 359.9223 l 2
 29.9668 365.08539 30.50098 370.4252 30.50098 370.4252 c 1
 30.144535 370.4252 l 1
 30.144535 370.4252 28.366215 367.75528 27.296875 366.68692 c 0
 22.845705 362.41446 16.792975 362.23672 11.630875 367.75528 c 2
 6.113295 373.98673 l 2
 0.771495 379.32755 1.128915 385.20253 6.647475 390.36563 c 2
 28.367175 410.30313 l 2
 32.815415 414.39883 36.732405 416.0004 42.785175 416.0004 c 2
 54.889675 416.0004 l 2
 62.545925 416.0004 66.638675 412.08438 66.638675 404.4281 c 2
 66.638675 320.0443 l 1
 82.126975 320.0443 l 2
 89.782245 320.0443 93.699275 315.95055 93.699275 308.472 c 2
 93.699275 299.57161 l 2
 93.699275 292.09407 89.782285 287.99931 82.126975 287.99931 c 2
 14.835975 287.99931 l 2
 7.179725 287.99931 3.262775 292.09404 3.262775 299.57161 c 2
 3.262775 308.47298 l 1
 3.2627 308.473 l 1
2.21094 143.409 m 1
 2.21094 190.6863 53.16604 199.7918 53.16604 212.574 c 0
 53.16604 219.75369 47.21194 221.32888 43.88577 221.32888 c 0
 40.73343 221.32888 37.40725 220.2781 34.43069 217.47634 c 0
 29.35159 212.574 23.92389 210.47243 18.32029 215.02614 c 2
 9.74119 221.85524 l 2
 3.96189 226.40797 2.56053 231.65993 6.93846 237.26344 c 0
 13.59178 246.01832 26.02536 255.99974 47.38666 255.99974 c 0
 66.82416 255.99974 91.86326 245.49384 91.86326 216.42654 c 0
 91.86326 178.07984 45.11036 170.02514 43.18356 159.51734 c 1
 82.23336 159.51734 l 2
 89.76168 159.51734 93.78996 155.49097 93.78996 148.13554 c 2
 93.78996 139.38066 l 2
 93.78996 132.02714 89.76164 127.99886 82.23336 127.99886 c 2
 14.29296 127.99886 l 2
 7.28808 127.99886 2.20996 132.02718 2.20996 139.38066 c 2
 2.20996 143.40898 l 1
 2.210936562 143.40898 l 1
 2.21094 143.409 l 1
5.6543 -6.61035 m 1
 11.25684 2.66992 l 2
 15.11036 9.32422 20.36231 9.67383 26.84084 5.82226 c 0
 31.74416 3.7207 36.47072 2.66992 41.20024 2.66992 c 0
 51.35554 2.66992 55.55764 6.17187 55.55764 10.90039 c 0
 55.55764 17.55371 49.95412 20.00586 39.62404 20.00586 c 2
 34.8965 20.00586 l 2
 28.9424 20.00586 25.61623 22.10742 22.6377 27.88574 c 2
 21.5879 29.81152 l 2
 19.13673 34.54004 20.36231 39.61816 24.38868 44.69632 c 2
 29.99317 51.70023 l 2
 36.82227 60.1055 42.24997 65.18263 42.24997 65.18263 c 1
 42.24997 65.533216 l 1
 42.24997 65.533216 38.04685 64.482436 29.64157 64.482436 c 2
 16.68457 64.482436 l 2
 9.15527 64.482436 5.30177 68.509776 5.30177 75.864236 c 2
 5.30177 84.619116 l 2
 5.30177 92.149386 9.15529 96.000916 16.68457 96.000916 c 2
 75.16897 96.000916 l 2
 82.69827 96.000916 86.55077 91.973576 86.55077 84.619116 c 2
 86.55077 81.291966 l 2
 86.55077 75.513646 85.15038 71.486306 81.47167 67.109366 c 2
 63.96287 46.971666 l 1
 83.57417 41.893546 92.67867 26.485366 92.67867 12.126966 c 0
 92.67867 -9.236334 78.32127 -31.999034 44.17577 -31.999034 c 0
 27.54007 -31.999034 15.98437 -27.271494 8.28027 -22.543954 c 0
 2.50097 -18.341804 1.97558 -12.739264 5.65429 -6.610354 c 1
 5.6543 -6.61035 l 1
144 316 m 2
 135.16309 316 128 323.16309 128 332 c 2
 128 372 l 2
 128 380.83691 135.16309 388 144 388 c 2
 496 388 l 2
 504.83691 388 512 380.83691 512 372 c 2
 512 332 l 2
 512 323.16309 504.83691 316 496 316 c 2
 144 316 l 2
144 156 m 2
 135.16309 156 128 163.16309 128 172 c 2
 128 212 l 2
 128 220.83691 135.16309 228 144 228 c 2
 496 228 l 2
 504.83691 228 512 220.83691 512 212 c 2
 512 172 l 2
 512 163.16309 504.83691 156 496 156 c 2
 144 156 l 2
144 -4 m 2
 135.16309 -4 128 3.16309 128 12 c 2
 128 52 l 2
 128 60.83691 135.16309 68 144 68 c 2
 496 68 l 2
 504.83691 68 512 60.83691 512 52 c 2
 512 12 l 2
 512 3.16309 504.83691 -4 496 -4 c 2
 144 -4 l 2
EndSplineSet
Validated: 545
EndChar

StartChar: underline
Encoding: 158 61645 151
Width: 448
Flags: W
LayerCount: 2
Fore
SplineSet
224.264 59.7598 m 1
 132.5951 59.7598 67.661 110.9248 67.661 211.1528 c 2
 67.661 384.0008 l 1
 39.37 384.0008 l 2
 30.53309 384.0008 23.37 391.16389 23.37 400.0008 c 2
 23.37 432.0008 l 2
 23.37 440.83771 30.53309 448.0008 39.37 448.0008 c 2
 176.76 448.0008 l 2
 185.59691 448.0008 192.76 440.83771 192.76 432.0008 c 2
 192.76 400.0008 l 2
 192.76 391.16389 185.59691 384.0008 176.76 384.0008 c 2
 147.9475 384.0008 l 1
 147.9475 211.1528 l 2
 147.9475 157.4536 176.261 131.7085 224.2639 131.7085 c 0
 271.2307 131.7085 300.0598 157.1421 300.0598 211.6733 c 2
 300.0598 384.0003 l 1
 271.7688 384.0003 l 2
 262.93189 384.0003 255.7688 391.16339 255.7688 400.0003 c 2
 255.7688 432.0003 l 2
 255.7688 440.83721 262.93189 448.0003 271.7688 448.0003 c 2
 408.6368 448.0003 l 2
 417.47371 448.0003 424.6368 440.83721 424.6368 432.0003 c 2
 424.6368 400.0003 l 2
 424.6368 391.16339 417.47371 384.0003 408.6368 384.0003 c 2
 380.3458 384.0003 l 1
 380.3458 211.1523 l 2
 380.3458 111.747 315.4649 59.7593 224.2638 59.7593 c 1
 224.264 59.7598 l 1
16 0 m 2
 432 0 l 2
 440.83691 0 448 -7.16309 448 -16 c 2
 448 -48 l 2
 448 -56.83691 440.83691 -64 432 -64 c 2
 16 -64 l 2
 7.16309 -64 0 -56.83691 0 -48 c 2
 0 -16 l 2
 0 -7.16309 7.16309 0 16 0 c 2
EndSplineSet
Validated: 1
EndChar

StartChar: table
Encoding: 159 61646 152
Width: 512
LayerCount: 2
Fore
SplineSet
464 416 m 2
 490.5098 416 512 394.5098 512 368 c 2
 512 16 l 2
 512 -10.5098 490.5098 -32 464 -32 c 2
 48 -32 l 2
 21.4902 -32 0 -10.5098 0 16 c 2
 0 368 l 2
 0 394.5098 21.4902 416 48 416 c 2
 464 416 l 2
224 32 m 1
 224 128 l 1
 64 128 l 1
 64 32 l 1
 224 32 l 1
224 192 m 1
 224 288 l 1
 64 288 l 1
 64 192 l 1
 224 192 l 1
448 32 m 1
 448 128 l 1
 288 128 l 1
 288 32 l 1
 448 32 l 1
448 192 m 1
 448 288 l 1
 288 288 l 1
 288 192 l 1
 448 192 l 1
EndSplineSet
Validated: 1
EndChar

StartChar: magic
Encoding: 160 61648 153
Width: 512
LayerCount: 2
Fore
SplineSet
224 352 m 1
 208 384 l 1
 176 400 l 1
 208 416 l 1
 224 448 l 1
 240 416 l 1
 272 400 l 1
 240 384 l 1
 224 352 l 1
80 288 m 1
 53.3398 341.3301 l 1
 0 368 l 1
 53.3398 394.6699 l 1
 80 448 l 1
 106.6602 394.6699 l 1
 160 368 l 1
 106.6602 341.3301 l 1
 80 288 l 1
432 160 m 1
 458.6602 106.6699 l 1
 512 80 l 1
 458.6602 53.3301 l 1
 432 0 l 1
 405.3398 53.3301 l 1
 352 80 l 1
 405.3398 106.6699 l 1
 432 160 l 1
502.62 353.77 m 2
 515.12 341.2807 515.12 321.0102 502.62 308.5307 c 2
 139.48 -54.6193 l 2
 133.23 -60.8693 125.0396 -63.98942 116.8491 -63.98942 c 0
 108.66941 -63.98942 100.48 -60.8693 94.23 -54.6193 c 2
 9.3794 30.2313 l 2
 -3.1206 42.7206 -3.1206 62.9813 9.3794 75.4813 c 2
 372.5194 438.6213 l 2
 378.7694 444.88107 386.9598 448.00118 395.1503 448.00118 c 0
 403.33975 448.00118 411.5302 444.88106 417.7694 438.6213 c 2
 502.62 353.77 l 2
359.45 244.54 m 1
 446.0496 331.1396 l 1
 395.1394 382.0498 l 1
 308.5398 295.4502 l 1
 359.45 244.54 l 1
EndSplineSet
Validated: 33
EndChar

StartChar: caret-down
Encoding: 163 61655 154
Width: 320
Flags: W
LayerCount: 2
Fore
SplineSet
31.2998 256 m 1
 288.5998 256 l 2
 306.4006 256 315.3 234.5 302.7004 221.9004 c 2
 174.0994 93.2004 l 2
 166.2996 85.4006 153.5994 85.4006 145.7996 93.2004 c 2
 17.1996 221.9004 l 2
 4.599 234.5 13.4994 256 31.2992 256 c 2
 31.2998 256 l 1
EndSplineSet
Validated: 545
EndChar

StartChar: caret-up
Encoding: 164 61656 155
Width: 320
Flags: W
LayerCount: 2
Fore
SplineSet
288.662 96 m 2
 31.338 96 l 2
 13.5196 96 4.5968 117.543 17.1964 130.1416 c 2
 145.8584 258.8036 l 2
 153.66797 266.61415 166.332 266.61415 174.1416 258.8036 c 2
 302.8036 130.1416 l 2
 315.4042 117.543 306.48036 96 288.662 96 c 2
EndSplineSet
Validated: 545
EndChar

StartChar: caret-left
Encoding: 165 61657 156
Width: 192
Flags: W
LayerCount: 2
Fore
SplineSet
192 320.662 m 2
 192 63.338 l 2
 192 45.5196 170.457 36.5968 157.8584 49.1964 c 2
 29.1964 177.8584 l 2
 21.38585 185.66797 21.38585 198.332 29.1964 206.1416 c 2
 157.8584 334.8036 l 2
 170.457 347.4042 192 338.48036 192 320.662 c 2
EndSplineSet
Validated: 545
EndChar

StartChar: caret-right
Encoding: 166 61658 157
Width: 192
Flags: W
LayerCount: 2
Fore
SplineSet
0 63.3379 m 2
 0 320.6619 l 2
 0 338.4803 21.543 347.4031 34.1416 334.8035 c 2
 162.8036 206.1415 l 2
 170.61415 198.33193 170.61415 185.6679 162.8036 177.8583 c 2
 34.1416 49.1963 l 2
 21.543 36.5957 1.42108547152e-14 45.51954 0 63.3379 c 2
EndSplineSet
Validated: 545
EndChar

StartChar: columns
Encoding: 167 61659 158
Width: 512
LayerCount: 2
Fore
SplineSet
464 416 m 2
 490.5098 416 512 394.5098 512 368 c 2
 512 16 l 2
 512 -10.5098 490.5098 -32 464 -32 c 2
 48 -32 l 2
 21.4902 -32 0 -10.5098 0 16 c 2
 0 368 l 2
 0 394.5098 21.4902 416 48 416 c 2
 464 416 l 2
224 32 m 1
 224 288 l 1
 64 288 l 1
 64 32 l 1
 224 32 l 1
448 32 m 1
 448 288 l 1
 288 288 l 1
 288 32 l 1
 448 32 l 1
EndSplineSet
Validated: 1
EndChar

StartChar: sort
Encoding: 168 61660 159
Width: 320
Flags: W
LayerCount: 2
Fore
SplineSet
41 160 m 1
 279 160 l 2
 300.4004 160 311.0996 134.0996 296 119 c 2
 177 0 l 2
 167.59961 -9.40039 152.4004 -9.40039 143.0996 0 c 2
 23.9996 119 l 2
 8.9 134.0996 19.59921 160 40.9996 160 c 2
 41 160 l 1
296 265 m 2
 311.0996 249.9004 300.40039 224 279 224 c 2
 41 224 l 2
 19.5996 224 8.9004 249.9004 24 265 c 2
 143.1 384 l 2
 152.40078 393.40039 167.6 393.40039 177.0004 384 c 2
 296 265 l 2
EndSplineSet
Validated: 33
EndChar

StartChar: sort-down
Encoding: 169 61661 160
Width: 320
Flags: W
LayerCount: 2
Fore
SplineSet
41 160 m 1
 279 160 l 2
 300.4004 160 311.0996 134.0996 296 119 c 2
 177 0 l 2
 167.59961 -9.40039 152.4004 -9.40039 143.0996 0 c 2
 23.9996 119 l 2
 8.9 134.0996 19.59921 160 40.9996 160 c 2
 41 160 l 1
EndSplineSet
Validated: 545
EndChar

StartChar: sort-up
Encoding: 170 61662 161
Width: 320
Flags: W
LayerCount: 2
Fore
SplineSet
279 224 m 2
 41 224 l 2
 19.5996 224 8.9004 249.9004 24 265 c 2
 143 384 l 2
 152.40039 393.40039 167.5996 393.40039 176.9004 384 c 2
 295.9004 265 l 2
 311.0996 249.9004 300.4004 224 279 224 c 2
EndSplineSet
Validated: 545
EndChar

StartChar: envelope
Encoding: 171 61664 162
Width: 512
LayerCount: 2
Fore
SplineSet
502.3 257.2 m 1
 506.20039 260.29961 512.0002 257.400195 512.0002 252.4998 c 2
 512.0002 47.9998 l 2
 512.0002 21.4998 490.5002 -0.000200000000007 464.0002 -0.000200000000007 c 2
 48.0002 -0.000200000000007 l 2
 21.5002 -0.000200000000007 0.000200000000063 21.4998 0.000200000000063 47.9998 c 2
 0.000200000000063 252.3998 l 2
 0.000200000000063 257.3998 5.7004 260.1996 9.7004 257.09902 c 0
 32.0998 239.69962 61.8 217.59902 163.8004 143.49902 c 0
 184.901 128.09862 220.5006 95.69922 256.0006 95.89942 c 0
 291.7008 95.598639 328.0006 128.69922 348.3004 143.49902 c 0
 450.3004 217.59862 479.9014 239.79882 502.3004 257.19902 c 1
 502.3 257.2 l 1
256 128 m 2
 232.7998 127.599609 199.4004 157.2002 182.5996 169.4004 c 0
 49.9006 265.7002 39.7996 274.2004 9.2006 298.0994 c 0
 3.4008 302.69999 0.000400000000008 309.5994 0.000400000000008 316.9998 c 2
 0.000400000000008 335.9998 l 2
 0.000400000000008 362.4998 21.5004 383.9998 48.0004 383.9998 c 2
 464.0004 383.9998 l 2
 490.5004 383.9998 512.0004 362.4998 512.0004 335.9998 c 2
 512.0004 316.9998 l 2
 512.0004 309.59941 508.60001 302.5994 502.8002 298.0994 c 0
 472.2006 274.0994 462.1 265.7 329.4012 169.4004 c 0
 312.6004 157.2002 279.201 127.5996 256.0008 128 c 2
 256 128 l 2
EndSplineSet
Validated: 33
EndChar

StartChar: undo
Encoding: 172 61666 163
Width: 512
LayerCount: 2
Fore
SplineSet
212.333 223.667 m 2
 12 223.667 l 2
 5.37305 223.667 0 229.04005 0 235.667 c 2
 0 436 l 2
 0 442.62695 5.37305 448 12 448 c 2
 60 448 l 2
 66.62695 448 72 442.62695 72 436 c 2
 72 357.8877 l 1
 117.7734 408.7207 184.26 440.5303 258.175 439.9932 c 0
 395.081 438.999059 504.623 328.3702 504.332 191.4612 c 0
 504.040984 54.7422 393.12 -55.9998 256.333 -55.9998 c 0
 192.2441 -55.9998 133.837 -31.6863 89.823 8.215 c 0
 84.72339 12.83707 84.48902 20.7687 89.356203 25.6349 c 2
 123.323003 59.6017 l 2
 127.796633 64.07631 134.985103 64.31947 139.723403 60.127091 c 0
 170.759503 32.664191 211.579803 16.000091 256.332403 16.000091 c 0
 353.600003 16.000091 432.332403 94.715891 432.332403 192.000091 c 0
 432.332403 289.266691 353.616603 368.000091 256.332403 368.000091 c 0
 197.836303 368.000091 146.052403 339.524491 114.058403 295.667091 c 1
 212.332803 295.667091 l 2
 218.959753 295.667091 224.332803 290.294041 224.332803 283.667091 c 2
 224.332803 235.667091 l 2
 224.332803 229.040141 218.959753 223.667091 212.333 223.667 c 2
EndSplineSet
Validated: 33
EndChar

StartChar: gavel
Encoding: 173 61667 164
Width: 512
LayerCount: 2
Fore
SplineSet
504.971 248.638 m 2
 514.34307 239.26495 514.34307 224.0696 504.971 214.6976 c 2
 380.52 90.2466 l 2
 371.14891 80.87355 355.9526 80.87355 346.5796 90.2466 c 2
 323.9526 112.8736 l 2
 314.57955 122.24567 314.57955 137.442 323.9526 146.815 c 2
 329.60983 152.47125 l 1
 290.01123 192.06985 l 1
 208.97123 111.02985 l 1
 214.62846 105.37262 l 2
 227.12556 92.87552 227.12556 72.61482 214.62846 60.11772 c 2
 99.88346 -54.62728 l 2
 87.38636 -67.12438 67.12566 -67.12438 54.62856 -54.62728 c 2
 9.37366 -9.37238 l 2
 -3.12344 3.12472 -3.12344 23.38542 9.37366 35.88252 c 2
 124.11766 150.62852 l 2
 136.61476 163.12562 156.87546 163.12562 169.37256 150.62852 c 2
 175.02979 144.97129 l 1
 256.06979 226.01129 l 1
 216.47119 265.60989 l 1
 210.81494 259.95266 l 2
 201.44287 250.57961 186.24654 250.57961 176.87354 259.95266 c 2
 154.24654 282.57966 l 2
 144.87349 291.95173 144.87349 307.14806 154.24654 316.52006 c 2
 278.69754 440.97106 l 2
 288.06961 450.34411 303.26494 450.34411 312.63794 440.97106 c 2
 335.26494 418.34316 l 2
 344.63799 408.97109 344.63799 393.77576 335.26494 384.40276 c 2
 329.60869 378.74553 l 1
 442.74669 265.60853 l 1
 448.40392 271.26478 l 2
 457.77599 280.63783 472.97132 280.63783 482.34432 271.26478 c 2
 504.971 248.638 l 2
EndSplineSet
Validated: 33
EndChar

StartChar: tachometer
Encoding: 174 61668 165
Width: 576
Flags: W
LayerCount: 2
Fore
SplineSet
288 416 m 0
 447.06 416 576 287.06 576 128 c 0
 576 75.2002 561.75 25.74 536.9404 -16.8 c 0
 531.33005 -26.42012 520.6396 -32.0002 509.5 -32.0002 c 2
 66.5 -32.0002 l 2
 55.3604 -32.0002 44.6699 -26.42012 39.0596 -16.8 c 0
 14.25 25.74 -5.68434188608e-14 75.2 -5.68434188608e-14 128 c 0
 -5.68434188608e-14 287.06 128.94 416 288 416 c 0
390.77 296.41 m 2
 394.95066 308.9803 388.17039 322.5799 375.6001 326.7694 c 0
 362.9702 331.04967 349.4106 324.16002 345.2407 311.5995 c 2
 283.9009 127.5895 l 1
 250.5005 125.42934 224.0005 97.9401 224.0005 63.9997 c 0
 224.0005 52.28 227.38038 41.4499 232.88038 31.9997 c 1
 343.12038 31.9997 l 1
 348.62038 41.4499 352.00026 52.28 352.00026 63.9997 c 0
 352.00026 83.4597 343.13014 100.6696 329.44066 112.4099 c 1
 390.77 296.41 l 2
EndSplineSet
Validated: 33
EndChar

StartChar: bolt
Encoding: 175 61671 166
Width: 320
Flags: W
LayerCount: 2
Fore
SplineSet
296 288 m 0
 314.5 288 326 267.9004 316.7002 252 c 2
 140.7002 -52 l 2
 136.29981 -59.59961 128.2998 -64 119.9004 -64 c 0
 104.5996 -64 93 -49.7002 96.5996 -34.5 c 2
 142.7002 160 l 1
 24.0002 160 l 2
 9.5002 160 -1.7 172.7998 0.2004 187.2002 c 2
 32.2004 427.2002 l 2
 33.80001 439.0996 44.0002 448 56.0002 448 c 2
 200.0002 448 l 2
 215.7004 448 227.2004 433 223.2004 417.7998 c 2
 180.5998 287.9998 l 1
 296 288 l 0
EndSplineSet
Validated: 33
EndChar

StartChar: sitemap
Encoding: 176 61672 167
Width: 640
Flags: W
LayerCount: 2
Fore
SplineSet
128 96 m 2
 145.6699 96 160 81.6699 160 64 c 2
 160 -32 l 2
 160 -49.6699 145.6699 -64 128 -64 c 2
 32 -64 l 2
 14.3301 -64 0 -49.6699 0 -32 c 2
 0 64 l 2
 0 81.6699 14.3301 96 32 96 c 2
 128 96 l 2
104 176 m 1
 104 128 l 1
 56 128 l 1
 56 185.5898 l 2
 56 206.7695 73.2305 224 94.4102 224 c 2
 296.0002 224 l 1
 296.0002 288 l 1
 256.0002 288 l 2
 238.3303 288 224.0002 302.3301 224.0002 320 c 2
 224.0002 416 l 2
 224.0002 433.6699 238.3303 448 256.0002 448 c 2
 384.0002 448 l 2
 401.6701 448 416.0002 433.6699 416.0002 416 c 2
 416.0002 320 l 2
 416.0002 302.3301 401.6701 288 384.0002 288 c 2
 344.0002 288 l 1
 344.0002 224 l 1
 545.5902 224 l 2
 566.7699 224 584.0004 206.7598 584.0004 185.5898 c 2
 584.0004 128 l 1
 536.0004 128 l 1
 536.0004 176 l 1
 344.0004 176 l 1
 344.0004 128 l 1
 296.0004 128 l 1
 296.0004 176 l 1
 104.0004 176 l 1
 104 176 l 1
368 96 m 2
 385.6699 96 400 81.6699 400 64 c 2
 400 -32 l 2
 400 -49.6699 385.6699 -64 368 -64 c 2
 272 -64 l 2
 254.3301 -64 240 -49.6699 240 -32 c 2
 240 64 l 2
 240 81.6699 254.3301 96 272 96 c 2
 368 96 l 2
608 96 m 2
 625.6699 96 640 81.6699 640 64 c 2
 640 -32 l 2
 640 -49.6699 625.6699 -64 608 -64 c 2
 512 -64 l 2
 494.3301 -64 480 -49.6699 480 -32 c 2
 480 64 l 2
 480 81.6699 494.3301 96 512 96 c 2
 608 96 l 2
EndSplineSet
Validated: 1
EndChar

StartChar: umbrella
Encoding: 177 61673 168
Width: 576
Flags: W
LayerCount: 2
Fore
SplineSet
575.7 167.2 m 1
 577.9002 157.0994 567.29961 145.7996 556.9998 155.7996 c 0
 505.4998 210.2 449.3998 208.2996 398.3998 118.7996 c 0
 393.09902 109.2996 383.4994 110.19999 378.6996 118.7996 c 0
 376.1996 123.19999 346.4994 191.9998 287.9994 191.9998 c 0
 242.1996 191.9998 217.4994 154.2 197.2992 118.7996 c 0
 192.4994 110.19999 182.8998 109.2996 177.599 118.7996 c 0
 126.6996 208.2 70.999 210.7996 18.999 155.7996 c 0
 8.7988 145.90019 -1.9014 157.0994 0.2988 167.2 c 0
 29.499 303.5 138.2988 385.4 255.9988 398.099 c 1
 255.9988 415.9994 l 2
 255.9988 433.6996 270.2986 447.9994 287.9988 447.9994 c 0
 305.699 447.9994 319.9988 433.6996 319.9988 415.9994 c 2
 319.9988 398.099 l 1
 437.2988 385.3998 547.0988 303.4994 575.6988 167.2 c 1
 575.7 167.2 l 1
256 146.3 m 1
 265.59961 155.20039 275.7002 159.9006 288 160.0002 c 0
 300.2002 160.0002 310.9004 154.3 320 146.4006 c 1
 320 16.0996 l 2
 320 -28 284.0996 -63.9004 240 -63.9004 c 0
 206.2002 -63.9004 175.7998 -42.5 164.5996 -10.5996 c 0
 158.70019 6 167.40038 24.2998 184.0996 30.2002 c 0
 200.7998 36.09961 219 27.4004 224.9004 10.7002 c 0
 226.79981 5.29981 232.2002 8.881784197e-15 240 8.881784197e-15 c 0
 248.7998 8.881784197e-15 256 7.2002 256 16 c 2
 256 146.3 l 1
EndSplineSet
Validated: 33
EndChar

StartChar: paste
Encoding: 178 61674 169
Width: 448
Flags: W
LayerCount: 2
Fore
SplineSet
128 264 m 2
 128 32 l 1
 24 32 l 2
 10.7451 32 0 42.7451 0 56 c 2
 0 392 l 2
 0 405.2549 10.7451 416 24 416 c 2
 104.6104 416 l 1
 115.6944 435.1104 136.3633 448 160 448 c 0
 183.6367 448 204.3057 435.1104 215.3896 416 c 1
 296 416 l 2
 309.2549 416 320 405.2549 320 392 c 2
 320 320 l 1
 184 320 l 2
 153.1221 320 128 294.8789 128 264 c 2
160 408 m 0
 146.7451 408 136 397.2549 136 384 c 0
 136 370.7451 146.7451 360 160 360 c 0
 173.2549 360 184 370.7451 184 384 c 0
 184 397.2549 173.2549 408 160 408 c 0
344 160 m 2
 448 160 l 1
 448 -40 l 2
 448 -53.2549 437.2549 -64 424 -64 c 2
 184 -64 l 2
 170.7451 -64 160 -53.2549 160 -40 c 2
 160 264 l 2
 160 277.2549 170.7451 288 184 288 c 2
 320 288 l 1
 320 184 l 2
 320 170.7998 330.7998 160 344 160 c 2
448 198.059 m 2
 448 192.00041 l 1
 352 192.00041 l 1
 352 288.00041 l 1
 358.05859 288.00041 l 2
 363.54589 288.00041 371.14839 284.851 375.02929 280.97111 c 2
 440.96969 215.03071 l 2
 444.85055 211.14985 447.99996 203.54731 448 198.059 c 2
EndSplineSet
Validated: 1
EndChar

StartChar: lightbulb
Encoding: 179 61675 170
Width: 352
Flags: W
LayerCount: 2
Fore
SplineSet
96.0596 -6.34961 m 1
 96.0097953 31.99999 l 1
 255.9897953 31.99999 l 1
 255.9497562 -6.34961 l 2
 255.94389682 -11.67871 253.5425262 -19.60451 250.5894062 -24.04001 c 2
 233.4996062 -49.73041 l 2
 228.2593762 -57.61225 216.3248062 -64.00971 206.8600062 -64.00971 c 2
 145.1500062 -64.00971 l 2
 135.6841862 -64.00971 123.7496062 -57.61225 118.5094062 -49.73041 c 2
 101.4196062 -24.04001 l 2
 97.9293762 -18.79978 96.0699962 -12.63961 96.0592562 -6.34961 c 1
 96.0596 -6.34961 l 1
0 272 m 1
 0 365.0303 73.4404 447.69 175.45 448 c 0
 272.91 448.299805 352 369.3896 352 272 c 0
 352 227.6299 335.5498 187.1504 308.4404 156.22 c 0
 291.9199 137.3704 266.08 97.9905 256.2304 64.7698 c 0
 256.1903609 64.500269 256.1600875 64.250269 256.120048 63.990503 c 2
 95.880048 63.990503 l 2
 95.8400089 64.250269 95.8097355 64.510034 95.769696 64.7698 c 0
 85.920086 97.9905 60.080196 137.3704 43.559696 156.22 c 0
 16.450296 187.1507 9.60000000347e-05 227.6302 9.60000000347e-05 272 c 1
 0 272 l 1
176 352 m 0
 184.83984 352 192 359.16016 192 368 c 0
 192 376.83984 184.83984 384 176 384 c 0
 114.2402 384 64 333.7598 64 272 c 0
 64 263.16016 71.16016 256 80 256 c 0
 88.83984 256 96 263.16016 96 272 c 0
 96 316.1104 131.8896 352 176 352 c 0
EndSplineSet
Validated: 33
EndChar

StartChar: exchange
Encoding: 180 61676 171
Width: 512
LayerCount: 2
Fore
SplineSet
0 280 m 1
 0 296 l 2
 0 309.2549 10.7451 320 24 320 c 2
 405.97 320 l 1
 375.5032 347.7275 l 2
 365.68875 357.01656 365.4729 372.5742 375.029567 382.1298 c 2
 385.869367 392.9696 l 2
 395.242417 402.34265 410.436767 402.34265 419.809767 392.9696 c 2
 502.627167 310.6268 l 2
 515.124267 298.1297 515.124267 277.869 502.627167 265.3719 c 2
 419.809767 183.0291 l 2
 410.436717 173.65605 395.241367 173.65605 385.869367 183.0291 c 2
 375.029567 193.8689 l 2
 365.472927 203.42456 365.688747 218.9832 375.5032 228.2712 c 2
 405.97 255.9997 l 1
 24 255.9997 l 2
 10.7451 255.9997 0 266.7448 0 279.9997 c 2
 0 280 l 1
488 128 m 1
 501.2549 128 512 117.2549 512 104 c 2
 512 88 l 2
 512 74.7451 501.2549 64 488 64 c 2
 106.03 64 l 1
 136.4968 36.2715 l 2
 146.31125 26.98244 146.5271 11.4248 136.970433 1.8692 c 2
 126.130633 -8.9706 l 2
 116.758563 -18.34365 101.563233 -18.34365 92.190233 -8.9706 c 2
 9.372833 73.3722 l 2
 -3.124267 85.8693 -3.124267 106.13 9.372833 118.6271 c 2
 92.190233 200.9699 l 2
 101.563283 210.34295 116.757633 210.34295 126.130633 200.9699 c 2
 136.970433 190.1301 l 2
 146.527073 180.57444 146.311253 165.0168 136.4968 155.7278 c 2
 106.03 128.0003 l 1
 488 128.0003 l 1
 488 128 l 1
EndSplineSet
Validated: 33
EndChar

StartChar: cloud-download
Encoding: 181 61677 172
Width: 640
Flags: W
LayerCount: 2
Fore
SplineSet
537.6 221.4 m 1
 596.0004 209.5992 640 157.9 640 96 c 0
 640 25.2998 582.7002 -32 512 -32 c 2
 144 -32 l 2
 64.5 -32 0 32.5 0 112 c 0
 0 174.7998 40.2002 228.2 96.2002 247.9 c 0
 96.099614 250.59922 96.000005 253.29941 96.000005 255.99961 c 0
 96.000005 344.40001 167.599605 415.99961 256.000005 415.99961 c 0
 315.299805 415.99961 367.000005 383.79941 394.700005 335.79941 c 1
 409.900205 345.99961 428.299605 351.99961 447.999805 351.99961 c 0
 500.999805 351.99961 543.999805 308.99961 543.999805 255.99961 c 0
 543.999805 243.79941 541.700005 232.09921 537.599415 221.40001 c 1
 537.6 221.4 l 1
397.7 128.4 m 2
 406.9998 137.79941 406.9998 152.9996 397.7996094 162.2994 c 2
 386.9998094 173.0992 l 2
 377.4001994 182.69979 361.7996094 182.49959 352.4998094 172.5992 c 2
 320.0994094 138.0992 l 1
 320.0994094 263.9992 l 2
 320.0994094 277.299 309.4002094 287.9992 296.0994094 287.9992 c 2
 280.0994094 287.9992 l 2
 266.7996094 287.9992 256.0994094 277.299 256.0994094 263.9992 c 2
 256.0994094 138.0992 l 1
 223.7000094 172.5992 l 2
 214.4002094 182.39998 198.7996094 182.6998 189.2000094 173.0992 c 2
 178.4002094 162.2994 l 2
 168.9998194 152.9996 168.9998194 137.7994 178.4002094 128.4 c 2
 271.0994094 35.6998 l 2
 280.4001894 26.29941 295.5994094 26.29941 304.9998094 35.6998 c 2
 397.7 128.4 l 2
EndSplineSet
Validated: 545
EndChar

StartChar: cloud-upload
Encoding: 182 61678 173
Width: 640
Flags: W
LayerCount: 2
Fore
SplineSet
537.6 221.4 m 1
 596.0004 209.5992 640 157.9 640 96 c 0
 640 25.2998 582.7002 -32 512 -32 c 2
 144 -32 l 2
 64.5 -32 0 32.5 0 112 c 0
 0 174.7998 40.2002 228.2 96.2002 247.9 c 0
 96.099614 250.59922 96.000005 253.29941 96.000005 255.99961 c 0
 96.000005 344.40001 167.599605 415.99961 256.000005 415.99961 c 0
 315.299805 415.99961 367.000005 383.79941 394.700005 335.79941 c 1
 409.900205 345.99961 428.299605 351.99961 447.999805 351.99961 c 0
 500.999805 351.99961 543.999805 308.99961 543.999805 255.99961 c 0
 543.999805 243.79941 541.700005 232.09921 537.599415 221.40001 c 1
 537.6 221.4 l 1
397.7 157.7 m 2
 406.9998 166.9998 406.9998 182.2 397.599414 191.5994 c 2
 304.900214 284.2996 l 2
 295.599434 293.69999 280.400214 293.69999 270.999814 284.2996 c 2
 178.299614 191.5994 l 2
 168.900204 182.2996 168.900204 167.0994 178.299614 157.7 c 2
 189.099414 146.9002 l 2
 198.700004 137.29961 214.299614 137.49981 223.599414 147.4002 c 2
 255.999814 181.9002 l 1
 255.999814 56.0002 l 2
 255.999814 42.7004 266.700014 32.0002 279.999814 32.0002 c 2
 295.999814 32.0002 l 2
 309.299614 32.0002 319.999814 42.7004 319.999814 56.0002 c 2
 319.999814 181.9002 l 1
 352.400214 147.4002 l 2
 361.700014 137.59942 377.299614 137.2996 386.900214 146.9002 c 2
 397.7 157.7 l 2
EndSplineSet
Validated: 545
EndChar

StartChar: suitcase
Encoding: 185 61682 174
Width: 512
LayerCount: 2
Fore
SplineSet
128 -32 m 1
 128 368 l 2
 128 394.5 149.5 416 176 416 c 2
 336 416 l 2
 362.5 416 384 394.5 384 368 c 2
 384 -32 l 1
 128 -32 l 1
192 352 m 1
 192 320 l 1
 320 320 l 1
 320 352 l 1
 192 352 l 1
512 272 m 2
 512 16 l 2
 512 -10.5 490.5 -32 464 -32 c 2
 416 -32 l 1
 416 320 l 1
 464 320 l 2
 490.5 320 512 298.5 512 272 c 2
96 -32 m 1
 48 -32 l 2
 21.5 -32 0 -10.5 0 16 c 2
 0 272 l 2
 0 298.5 21.5 320 48 320 c 2
 96 320 l 1
 96 -32 l 1
EndSplineSet
Validated: 1
EndChar

StartChar: bell
Encoding: 186 61683 175
Width: 448
Flags: W
LayerCount: 2
Fore
SplineSet
224 -64 m 2
 188.6797 -64 160.0303 -35.3496 160.0303 0 c 1
 287.9693 0 l 1
 287.9693 -35.3496 259.3199 -64 223.9996 -64 c 2
 224 -64 l 2
439.39 85.71 m 1
 445.39 79.26957 448.05016 71.5498 448.00035 64 c 0
 447.9007406 47.5996 435.01985 32 415.90075 32 c 2
 32.09975 32 l 2
 12.98065 32 0.11045 47.5996 0.000149999999969 64 c 0
 -0.0496547 71.5498 2.6105 79.2598 8.6105 85.71 c 0
 27.9298 106.4698 64.0802 137.7002 64.0802 240 c 0
 64.0802 317.7002 118.5597 379.9 192.0192 395.16 c 1
 192.0192 415.9998 l 2
 192.0192 433.6697 206.3395 447.9998 223.9997 447.9998 c 0
 241.6599 447.9998 255.9802 433.6697 255.9802 415.9998 c 2
 255.9802 395.16 l 1
 329.4402 379.9002 383.9192 317.7 383.9192 240 c 0
 383.9192 137.7 420.0696 106.47 439.3889 85.71 c 1
 439.39 85.71 l 1
EndSplineSet
Validated: 37
EndChar

StartChar: coffee
Encoding: 187 61684 176
Width: 640
Flags: W
LayerCount: 2
Fore
SplineSet
192 64 m 2
 139 64 96 107 96 160 c 2
 96 392 l 2
 96 405.2998 106.7002 416 120 416 c 2
 512 416 l 2
 582.5996 416 640 358.5996 640 288 c 0
 640 217.4004 582.5996 160 512 160 c 2
 480 160 l 1
 480 107 437 64 384 64 c 2
 192 64 l 2
512 352 m 2
 480 352 l 1
 480 224 l 1
 512 224 l 2
 547.2998 224 576 252.7002 576 288 c 0
 576 323.2998 547.2998 352 512 352 c 2
559.7 -32 m 1
 48.3 -32 l 2
 0.7004 -32 -12.7 32 12.3 32 c 2
 595.6 32 l 2
 620.6 32 607.4008 -32 559.7006 -32 c 2
 559.7 -32 l 1
EndSplineSet
Validated: 33
EndChar

StartChar: hospital
Encoding: 188 61688 177
Width: 448
Flags: W
LayerCount: 2
Fore
SplineSet
448 -44 m 2
 448 -64 l 1
 0 -64 l 1
 0 -44 l 2
 0 -37.37305 5.37305 -32 12 -32 c 2
 32 -32 l 1
 32 328 l 2
 32 341.2549 42.7451 352 56 352 c 2
 144 352 l 1
 144 424 l 2
 144 437.2549 154.7451 448 168 448 c 2
 280 448 l 2
 293.2549 448 304 437.2549 304 424 c 2
 304 352 l 1
 392 352 l 2
 405.2549 352 416 341.2549 416 328 c 2
 416 -32 l 1
 436 -32 l 2
 442.62695 -32 448 -37.37305 448 -44 c 2
308 256 m 2
 268 256 l 2
 261.37305 256 256 250.62695 256 244 c 2
 256 204 l 2
 256 197.37305 261.37305 192 268 192 c 2
 308 192 l 2
 314.62695 192 320 197.37305 320 204 c 2
 320 244 l 2
 320 250.62695 314.62695 256 308 256 c 2
140 192 m 2
 180 192 l 2
 186.62695 192 192 197.37305 192 204 c 2
 192 244 l 2
 192 250.62695 186.62695 256 180 256 c 2
 140 256 l 2
 133.37305 256 128 250.62695 128 244 c 2
 128 204 l 2
 128 197.37305 133.37305 192 140 192 c 2
244 64 m 2
 204 64 l 2
 197.37305 64 192 58.62695 192 52 c 2
 192 -32 l 1
 256 -32 l 1
 256 52 l 2
 256 58.62695 250.62695 64 244 64 c 2
308 160 m 2
 268 160 l 2
 261.37305 160 256 154.62695 256 148 c 2
 256 108 l 2
 256 101.37305 261.37305 96 268 96 c 2
 308 96 l 2
 314.62695 96 320 101.37305 320 108 c 2
 320 148 l 2
 320 154.62695 314.62695 160 308 160 c 2
192 148 m 2
 192 154.62695 186.62695 160 180 160 c 2
 140 160 l 2
 133.37305 160 128 154.62695 128 148 c 2
 128 108 l 2
 128 101.37305 133.37305 96 140 96 c 2
 180 96 l 2
 186.62695 96 192 101.37305 192 108 c 2
 192 148 l 2
182 352 m 2
 208 352 l 1
 208 326 l 2
 208 322.68848 210.68848 320 214 320 c 2
 234 320 l 2
 237.31152 320 240 322.68848 240 326 c 2
 240 352 l 1
 266 352 l 2
 269.31152 352 272 354.68848 272 358 c 2
 272 378 l 2
 272 381.31152 269.31152 384 266 384 c 2
 240 384 l 1
 240 410 l 2
 240 413.31152 237.31152 416 234 416 c 2
 214 416 l 2
 210.68848 416 208 413.31152 208 410 c 2
 208 384 l 1
 182 384 l 2
 178.68848 384 176 381.31152 176 378 c 2
 176 358 l 2
 176 354.68848 178.68848 352 182 352 c 2
EndSplineSet
Validated: 1
EndChar

StartChar: beer
Encoding: 192 61692 178
Width: 448
Flags: W
LayerCount: 2
Fore
SplineSet
368 352 m 1
 412.1123 352 448 316.1123 448 272 c 2
 448 143.14 l 2
 448 111.6127 429.3965 82.9369 400.6064 70.0873 c 2
 320 34.1107 l 1
 320 -7.9997 l 2
 320 -21.2546 309.2549 -31.9997 296 -31.9997 c 2
 24 -31.9997 l 2
 10.7451 -31.9997 0 -21.2546 0 -7.9997 c 2
 0 392.0003 l 2
 0 405.2552 10.7451 416.0003 24 416.0003 c 2
 296 416.0003 l 2
 309.2549 416.0003 320 405.2552 320 392.0003 c 2
 320 352.0003 l 1
 368 352 l 1
384 143.14 m 1
 384 272 l 2
 384 280.82227 376.82227 288 368 288 c 2
 320 288 l 1
 320 104.195 l 1
 374.5215 128.529 l 2
 379.74904 130.86689 383.99611 137.41279 384.00002 143.1394 c 2
 384 143.14 l 1
208 64 m 0
 216.83594 64 224 71.16406 224 80 c 2
 224 304 l 2
 224 312.83594 216.83594 320 208 320 c 0
 199.16406 320 192 312.83594 192 304 c 2
 192 80 l 2
 192 71.16406 199.16406 64 208 64 c 0
112 64 m 0
 120.83594 64 128 71.16406 128 80 c 2
 128 304 l 2
 128 312.83594 120.83594 320 112 320 c 0
 103.16406 320 96 312.83594 96 304 c 2
 96 80 l 2
 96 71.16406 103.16406 64 112 64 c 0
EndSplineSet
Validated: 1
EndChar

StartChar: h-square
Encoding: 193 61693 179
Width: 448
Flags: W
LayerCount: 2
Fore
SplineSet
448 368 m 2
 448 16 l 2
 448 -10.5098 426.5098 -32 400 -32 c 2
 48 -32 l 2
 21.4902 -32 0 -10.5098 0 16 c 2
 0 368 l 2
 0 394.5098 21.4902 416 48 416 c 2
 400 416 l 2
 426.5098 416 448 394.5098 448 368 c 2
336 320 m 2
 304 320 l 2
 295.16309 320 288 312.83691 288 304 c 2
 288 224 l 1
 160 224 l 1
 160 304 l 2
 160 312.83691 152.83691 320 144 320 c 2
 112 320 l 2
 103.16309 320 96 312.83691 96 304 c 2
 96 80 l 2
 96 71.16309 103.16309 64 112 64 c 2
 144 64 l 2
 152.83691 64 160 71.16309 160 80 c 2
 160 160 l 1
 288 160 l 1
 288 80 l 2
 288 71.16309 295.16309 64 304 64 c 2
 336 64 l 2
 344.83691 64 352 71.16309 352 80 c 2
 352 304 l 2
 352 312.83691 344.83691 320 336 320 c 2
EndSplineSet
Validated: 513
EndChar

StartChar: plus-square
Encoding: 194 61694 180
Width: 448
Flags: W
LayerCount: 2
Fore
SplineSet
400 416 m 2
 426.5 416 448 394.5 448 368 c 2
 448 16 l 2
 448 -10.5 426.5 -32 400 -32 c 2
 48 -32 l 2
 21.5 -32 0 -10.5 0 16 c 2
 0 368 l 2
 0 394.5 21.5 416 48 416 c 2
 400 416 l 2
368 164 m 2
 368 220 l 2
 368 226.59961 362.59961 232 356 232 c 2
 264 232 l 1
 264 324 l 2
 264 330.59961 258.59961 336 252 336 c 2
 196 336 l 2
 189.40039 336 184 330.59961 184 324 c 2
 184 232 l 1
 92 232 l 2
 85.40039 232 80 226.59961 80 220 c 2
 80 164 l 2
 80 157.40039 85.40039 152 92 152 c 2
 184 152 l 1
 184 60 l 2
 184 53.40039 189.40039 48 196 48 c 2
 252 48 l 2
 258.59961 48 264 53.40039 264 60 c 2
 264 152 l 1
 356 152 l 2
 362.59961 152 368 157.40039 368 164 c 2
EndSplineSet
Validated: 513
EndChar

StartChar: angle-double-left
Encoding: 195 61696 181
Width: 448
Flags: W
LayerCount: 2
Fore
SplineSet
223.7 209 m 2
 359.7 345 l 2
 369.09941 354.40039 384.2996 354.40039 393.5994 345 c 2
 416.2 322.4004 l 2
 425.59941 313.00001 425.59941 297.7998 416.2 288.5 c 2
 319.9002 192 l 1
 416.2996 95.5996 l 2
 425.69999 86.20019 425.69999 71 416.2996 61.7002 c 2
 393.7 39 l 2
 384.29961 29.59961 369.0994 29.59961 359.7996 39 c 2
 223.7996 175 l 2
 214.2996 184.40039 214.2996 199.5996 223.7 209 c 2
31.7002 175 m 2
 22.29981 184.40039 22.29981 199.5996 31.7998094 209 c 2
 167.7998094 345 l 2
 177.0996094 354.40039 192.2998094 354.40039 201.7002094 345 c 2
 224.2998094 322.2998 l 2
 233.7001994 313 233.7001994 297.7998 224.2998094 288.4004 c 2
 127.9004094 192 l 1
 224.2002094 95.5 l 2
 233.5996194 86.2002 233.5996194 71 224.2002094 61.5996 c 2
 201.5996094 39 l 2
 192.2998094 29.59961 177.0996094 29.59961 167.7002094 39 c 2
 31.7002 175 l 2
EndSplineSet
Validated: 545
EndChar

